{
.appVersion = "3091";
classes = (
{
code = "colon exclam period question semicolon quotedblleft quotedblright quoteleft quoteright questiondown exclamdown periodcentered ellipsis comma divide";
name = circular_punctuation;
},
{
code = "colon.ss01 exclam.ss01 period.ss01 question.ss01 semicolon.ss01 quotedblleft.ss01 quotedblright.ss01 quoteleft.ss01 quoteright.ss01 questiondown.ss01 exclamdown.ss01 periodcentered.ss01 ellipsis.ss01 comma.ss01 divide.ss01";
name = square_punctuation;
},
{
code = "a.old aacute abreve acircumflex adieresis agrave amacron aogonek aring atilde";
name = single_storey_a;
}
);
copyright = "Copyright 2021 The Albert Sans Project Authors (https://github.com/usted/Albert-Sans)";
customParameters = (
{
name = "Use Typo Metrics";
value = 1;
},
{
name = fsType;
value = (
);
},
{
name = "Variable Font Origin";
value = "0CF0EA28-C756-4A9E-9D7C-CFEF350B4CFE";
},
{
name = "Use Line Breaks";
value = 1;
},
{
name = license;
value = "This Font Software is licensed under the SIL Open Font License, Version 1.1. This license is available with a FAQ at: https://scripts.sil.org/OFL";
},
{
name = licenseURL;
value = "https://scripts.sil.org/OFL";
},
{
name = Axes;
value = (
{
Name = Weight;
Tag = wght;
}
);
}
);
date = "2021-08-03 19:15:46 +0000";
designer = "Andreas Rasmussen";
designerURL = "https://www.andreasrasmussen.net";
familyName = "Albert Sans";
fontMaster = (
{
ascender = 720;
capHeight = 700;
custom = Thin;
customParameters = (
{
name = typoAscender;
value = 950;
},
{
name = typoDescender;
value = -250;
},
{
name = typoLineGap;
value = 0;
},
{
name = winAscent;
value = 1100;
},
{
name = winDescent;
value = 320;
},
{
name = underlineThickness;
value = 50;
},
{
name = underlinePosition;
value = -100;
},
{
name = strikeoutPosition;
value = 300;
},
{
name = strikeoutSize;
value = 50;
},
{
name = subscriptXOffset;
value = 0;
},
{
name = subscriptXSize;
value = 650;
},
{
name = subscriptYOffset;
value = 75;
},
{
name = subscriptYSize;
value = 600;
},

glyphs = (
{
glyphname = A;
lastChange = "2021-08-13 16:01:27 +0000";
layers = (
{
anchors = (
{
name = ogonek;
position = "{637.5, 0}";
},
{
name = top;
position = "{355.5, 700}";
}
);
hints = (
{
horizontal = 1;
place = "{175, 92}";
type = Stem;
},
{
horizontal = 1;
place = "{700, -20}";
target = down;
type = TopGhost;
},
{
horizontal = 1;
place = "{0, 21}";
target = up;
type = BottomGhost;
}
);
layerId = "0CF0EA28-C756-4A9E-9D7C-CFEF350B4CFE";
paths = (
{
closed = 1;
nodes = (
"126.5 0 LINE",
"187.5 175 LINE",
"524.5 175 LINE",
"584.5 0 LINE",
"704.5 0 LINE",
"455.5 700 LINE",
"256.5 700 LINE",
"8.5 0 LINE"
);
},
{
closed = 1;
nodes = (
"492.5 267 LINE",
"219.5 267 LINE",
"337.5 607 LINE",
"374.5 607 LINE"
);
}
);
width = 713;
},
{
anchors = (
{
name = ogonek;
position = "{581.5, 0}";
},
{
name = top;
position = "{312.5, 697}";
}
);
hints = (
{
horizontal = 1;
place = "{700, -20}";
target = down;
type = TopGhost;
},
{
horizontal = 1;
place = "{0, 21}";
target = up;
type = BottomGhost;
}
);
layerId = "6E968933-CD79-43C6-9231-80D77C940F4D";
paths = (
{
closed = 1;
nodes = (
"35.5 0 LINE",
"116.5 210 LINE",
"505.5 210 LINE",
"585.505 0 LINE",
"610.5 0 LINE",
"343.5 700 LINE",
"278.5 700 LINE",
"10.5 0 LINE"
);
},
{
closed = 1;
nodes = (
"498.5 230 LINE",
"123.5 230 LINE",
"295.5 681 LINE",
"327.5 681 LINE"
);
}
);
width = 620.97253;
},
{
anchors = (
{
name = ogonek;
position = "{718.3, 1}";
},
{
name = top;
position = "{403.3, 700}";
}
);
hints = (
{
horizontal = 1;
place = "{375, 141}";
type = Stem;
},
{
horizontal = 1;
place = "{297, -20}";
target = down;
type = TopGhost;
},
{
horizontal = 1;
place = "{0, 21}";
target = up;
type = BottomGhost;
}
);
layerId = "BAF31694-0472-4296-B0EA-1654553C45D2";
paths = (
{
closed = 1;
nodes = (
"190.3 0 LINE",
"239.3 145 LINE",
"566.3 145 LINE",
"616.3 0 LINE",
"801.3 0 LINE",
"547.3 700 LINE",
"261.3 700 LINE",
"5.3 0 LINE"
);
},
{
closed = 1;
nodes = (
"521.3 280 LINE",
"285.3 280 LINE",
"379.3 559 LINE",
"427.3 559 LINE"
);
}
);
width = 806.62123;
}
);
leftMetricsKey = "=H*0.1";
rightMetricsKey = "=H*0.1";
unicode = 0041;
},
{
glyphname = Aogonek;
lastChange = "2021-08-13 16:01:27 +0000";
layers = (
{
anchors = (
{
name = _ogonek;
position = "{-333.99, 0}";
}
);
components = (
{
alignment = -1;
name = A;
transform = "{1, 0, 0, 1, 0.01, 0}";
}
);
hints = (
{
place = "{456, 93}";
type = Stem;
},
{
place = "{456, 214}";
type = Stem;
},
{
horizontal = 1;
place = "{-213, 74}";
type = Stem;
}
);
layerId = "0CF0EA28-C756-4A9E-9D7C-CFEF350B4CFE";
paths = (
{
closed = 1;
nodes = (
"582.01 39 LINE SMOOTH",
"488.01 -5 OFFCURVE",
"455.01 -53 OFFCURVE",
"455.01 -104 CURVE SMOOTH",
"455.01 -184 OFFCURVE",
"525.01 -213 OFFCURVE",
"588.01 -213 CURVE SMOOTH",
"617.01 -213 OFFCURVE",
"646.01 -206 OFFCURVE",
"669.01 -197 CURVE",
"669.01 -125 LINE",
"646.01 -134 OFFCURVE",
"622.01 -139 OFFCURVE",
"603.01 -139 CURVE SMOOTH",
"569.01 -139 OFFCURVE",
"548.01 -120 OFFCURVE",
"548.01 -92 CURVE SMOOTH",
"548.01 -68 OFFCURVE",
"562.01 -47 OFFCURVE",
"605.01 -25 CURVE SMOOTH",
"654.01 0 LINE",
"624.01 58 LINE"
);
}
);
width = 713.01;
},
{
anchors = (
{
name = _ogonek;
position = "{-270, 0}";
}
);
components = (
{
alignment = -1;
name = A;
transform = "{1, 0, 0, 1, 0.004, 0}";
}
);
hints = (
{
place = "{422, 21}";
type = Stem;
},
{
horizontal = 1;
place = "{-185, 21}";
target = up;
type = BottomGhost;
}
);
layerId = "6E968933-CD79-43C6-9231-80D77C940F4D";
paths = (
{
closed = 1;
nodes = (
"524 -15 LINE SMOOTH",
"461 -43 OFFCURVE",
"437 -77 OFFCURVE",
"437 -115 CURVE SMOOTH",
"437 -166 OFFCURVE",
"476 -189 OFFCURVE",
"528 -189 CURVE SMOOTH",
"547 -189 OFFCURVE",
"569 -185 OFFCURVE",
"590 -177 CURVE",
"590 -156 LINE",
"569 -164 OFFCURVE",
"547 -169 OFFCURVE",
"527 -169 CURVE SMOOTH",
"488 -169 OFFCURVE",
"458 -152 OFFCURVE",
"458 -114 CURVE SMOOTH",
"458 -85 OFFCURVE",
"476 -56 OFFCURVE",
"528 -33 CURVE SMOOTH",
"599 0 LINE",
"592 16 LINE"
);
}
);
width = 620.97553;
},
{
anchors = (
{
name = _ogonek;
position = "{281, 1}";
}
);
components = (
{
alignment = -1;
name = A;
transform = "{1, 0, 0, 1, -0.004, 0}";
}
);
hints = (
{
place = "{194, 39}";
type = Stem;
},
{
place = "{456, 180}";
type = Stem;
},
{
horizontal = 1;
place = "{-218, 99}";
type = Stem;
}
);
layerId = "BAF31694-0472-4296-B0EA-1654553C45D2";
paths = (
{
closed = 1;
nodes = (
"622 67 LINE SMOOTH",
"492 13 OFFCURVE",
"456 -37 OFFCURVE",
"456 -100 CURVE SMOOTH",
"456 -180 OFFCURVE",
"520 -218 OFFCURVE",
"604 -218 CURVE SMOOTH",
"641 -218 OFFCURVE",
"675 -212 OFFCURVE",
"704 -203 CURVE",
"704 -104 LINE",
"676 -114 OFFCURVE",
"650 -119 OFFCURVE",
"629 -119 CURVE SMOOTH",
"601 -119 OFFCURVE",
"584 -107 OFFCURVE",
"584 -86 CURVE SMOOTH",
"584 -67 OFFCURVE",
"597 -48 OFFCURVE",
"652 -23 CURVE SMOOTH",
"698 -1 LINE",
"661 84 LINE"
);
}
);
width = 806.61623;
}
);
leftMetricsKey = A;
rightMetricsKey = A;
unicode = 0104;
},
{
glyphname = AE;
lastChange = "2021-08-13 16:01:44 +0000";
layers = (
{
hints = (
{
place = "{468, 114}";
type = Stem;
},
{
horizontal = 1;
place = "{0, 89}";
type = Stem;
},
{
horizontal = 1;
place = "{143, 89}";
type = Stem;
},
{
horizontal = 1;
place = "{310, 88}";
type = Stem;
},
{
horizontal = 1;
place = "{611, 89}";
type = Stem;
}
);
layerId = "0CF0EA28-C756-4A9E-9D7C-CFEF350B4CFE";
paths = (
{
closed = 1;
nodes = (
"148.5 143 LINE",
"520.5 143 LINE",
"520.5 232 LINE",
"197.5 232 LINE"
);
},
{
closed = 1;
nodes = (
"850.5 611 LINE",
"850.5 700 LINE",
"390.5 700 LINE",
"8.5 0 LINE",
"131.5 0 LINE",
"467.5 621 LINE",
"467.5 0 LINE",
"850.5 0 LINE",
"850.5 89 LINE",
"581.5 89 LINE",
"581.5 310 LINE",
"820.5 310 LINE",
"820.5 398 LINE",
"581.5 398 LINE",
"581.5 611 LINE"
);
}
);
width = 915.5;
},
{
hints = (
{
place = "{447, 21}";
type = Stem;
},
{
horizontal = 1;
place = "{685, -20}";
target = down;
type = TopGhost;
},
{
horizontal = 1;
place = "{0, 21}";
target = up;
type = BottomGhost;
}
);
layerId = "6E968933-CD79-43C6-9231-80D77C940F4D";
paths = (
{
closed = 1;
nodes = (
"138.5 192 LINE",
"452.5 192 LINE",
"452.5 211 LINE",
"145.5 211 LINE"
);
},
{
closed = 1;
nodes = (
"789.5 681 LINE",
"789.5 700 LINE",
"442.5 700 LINE",
"10.5 0 LINE",
"36.5 0 LINE",
"444.5 662 LINE",
"444.5 0 LINE",
"789.5 0 LINE",
"789.5 19 LINE",
"466.5 19 LINE",
"466.5 340 LINE",
"759.5 340 LINE",
"759.5 360 LINE",
"466.5 360 LINE",
"466.5 681 LINE"
);
}
);
width = 874.27043;
},
{
hints = (
{
place = "{483, 176}";
type = Stem;
},
{
horizontal = 1;
place = "{0, 140}";
type = Stem;
},
{
horizontal = 1;
place = "{116, 134}";
type = Stem;
},
{
horizontal = 1;
place = "{290, 133}";
type = Stem;
},
{
horizontal = 1;
place = "{561, 139}";
type = Stem;
}
);
layerId = "BAF31694-0472-4296-B0EA-1654553C45D2";
paths = (
{
closed = 1;
nodes = (
"154.3 116 LINE",
"568.3 116 LINE",
"568.3 250 LINE",
"229.3 250 LINE"
);
},
{
closed = 1;
nodes = (
"911.3 561 LINE",
"911.3 700 LINE",
"364.3 700 LINE",
"5.3 0 LINE",
"197.3 0 LINE",
"483.3 569 LINE",
"483.3 0 LINE",
"911.3 0 LINE",
"911.3 140 LINE",
"659.3 140 LINE",
"659.3 290 LINE",
"881.3 290 LINE",
"881.3 424 LINE",
"659.3 424 LINE",
"659.3 561 LINE"
);
}
);
width = 944.54519;
}
);
leftMetricsKey = A;
rightMetricsKey = E;
unicode = 00C6;
},
{
glyphname = B;
lastChange = "2021-08-13 16:01:27 +0000";
layers = (
{
hints = (
{
place = "{85, 114}";
type = Stem;
},
{
place = "{499, 116}";
type = Stem;
},
{
place = "{517, 114}";
type = Stem;
},
{
horizontal = 1;
place = "{0, 93}";
type = Stem;
},
{
horizontal = 1;
place = "{308, 93}";
type = Stem;
},
{
horizontal = 1;
place = "{607, 93}";
type = Stem;
}
);
layerId = "0CF0EA28-C756-4A9E-9D7C-CFEF350B4CFE";
paths = (
{
closed = 1;
nodes = (
"499 439 OFFCURVE",
"454 401 OFFCURVE",
"380 401 CURVE SMOOTH",
"199 401 LINE",
"199 607 LINE",
"380 607 LINE SMOOTH",
"454 607 OFFCURVE",
"499 567 OFFCURVE",
"499 503 CURVE SMOOTH"
);
},
{
closed = 1;
nodes = (
"631 302 OFFCURVE",
"561 350 OFFCURVE",
"461 355 CURVE",
"461 356 LINE",
"545 367 OFFCURVE",
"615 414 OFFCURVE",
"615 517 CURVE SMOOTH",
"615 616 OFFCURVE",
"537 700 OFFCURVE",
"390 700 CURVE SMOOTH",
"85 700 LINE",
"85 0 LINE",
"403 0 LINE SMOOTH",
"545 0 OFFCURVE",
"631 80 OFFCURVE",
"631 187 CURVE SMOOTH"
);
},
{
closed = 1;
nodes = (
"517 131 OFFCURVE",
"470 93 OFFCURVE",
"393 93 CURVE SMOOTH",
"199 93 LINE",
"199 308 LINE",
"389 308 LINE SMOOTH",
"465 308 OFFCURVE",
"517 269 OFFCURVE",
"517 199 CURVE SMOOTH"
);
},
{
closed = 1;
nodes = (
"408 334 LINE",
"487 334 LINE",
"487 388 LINE",
"408 388 LINE"
);
}
);
width = 687.1;
},
{
hints = (
{
place = "{103, 22}";
type = Stem;
},
{
place = "{539, 22}";
type = Stem;
},
{
place = "{561, 22}";
type = Stem;
},
{
horizontal = 1;
place = "{685, -20}";
target = down;
type = TopGhost;
},
{
horizontal = 1;
place = "{0, 21}";
target = up;
type = BottomGhost;
}
);
layerId = "6E968933-CD79-43C6-9231-80D77C940F4D";
paths = (
{
closed = 1;
nodes = (
"543 435 OFFCURVE",
"481 370 OFFCURVE",
"363 370 CURVE SMOOTH",
"127 370 LINE",
"127 681 LINE",
"357 681 LINE SMOOTH",
"488 681 OFFCURVE",
"543 615 OFFCURVE",
"543 528 CURVE"
);
},
{
closed = 1;
nodes = (
"581 292 OFFCURVE",
"497 360 OFFCURVE",
"400 360 CURVE",
"392 358 LINE",
"474 359 OFFCURVE",
"565 409 OFFCURVE",
"565 529 CURVE",
"565 624 OFFCURVE",
"505 700 OFFCURVE",
"358 700 CURVE SMOOTH",
"105 700 LINE",
"105 0 LINE",
"358 0 LINE SMOOTH",
"510 0 OFFCURVE",
"581 84 OFFCURVE",
"581 187 CURVE SMOOTH"
);
},
{
closed = 1;
nodes = (
"559 85 OFFCURVE",
"485 20 OFFCURVE",
"358 20 CURVE SMOOTH",
"127 20 LINE",
"127 350 LINE",
"356 350 LINE SMOOTH",
"483 350 OFFCURVE",
"559 288 OFFCURVE",
"559 187 CURVE SMOOTH"
);
},
{
closed = 1;
nodes = (
"343 354 LINE",
"432 354 LINE",
"432 367 LINE",
"343 367 LINE"
);
}
);
width = 650.15246;
},
{
hints = (
{
place = "{53, 176}";
type = Stem;
},
{
place = "{463, 179}";
type = Stem;
},
{
place = "{480, 179}";
type = Stem;
},
{
horizontal = 1;
place = "{0, 142}";
type = Stem;
},
{
horizontal = 1;
place = "{290, 133}";
type = Stem;
},
{
horizontal = 1;
place = "{559, 141}";
type = Stem;
}
);
layerId = "BAF31694-0472-4296-B0EA-1654553C45D2";
paths = (
{
closed = 1;
nodes = (
"463 445 OFFCURVE",
"433 423 OFFCURVE",
"379 423 CURVE SMOOTH",
"230 423 LINE",
"230 559 LINE",
"379 559 LINE SMOOTH",
"433 559 OFFCURVE",
"463 536 OFFCURVE",
"463 490 CURVE SMOOTH"
);
},
{
closed = 1;
nodes = (
"659 291 OFFCURVE",
"592 352 OFFCURVE",
"478 357 CURVE",
"475 361 LINE",
"571 366 OFFCURVE",
"643 414 OFFCURVE",
"643 517 CURVE SMOOTH",
"643 629 OFFCURVE",
"557 700 OFFCURVE",
"414 700 CURVE SMOOTH",
"53 700 LINE",
"53 0 LINE",
"425 0 LINE SMOOTH",
"574 0 OFFCURVE",
"659 74 OFFCURVE",
"659 190 CURVE SMOOTH"
);
},
{
closed = 1;
nodes = (
"480 168 OFFCURVE",
"449 142 OFFCURVE",
"393 142 CURVE SMOOTH",
"230 142 LINE",
"230 290 LINE",
"391 290 LINE SMOOTH",
"447 290 OFFCURVE",
"480 263 OFFCURVE",
"480 215 CURVE SMOOTH"
);
},
{
closed = 1;
nodes = (
"427 332 LINE",
"501 332 LINE",
"501 387 LINE",
"427 387 LINE"
);
}
);
width = 694.14802;
}
);
leftMetricsKey = H;
rightMetricsKey = "=H*0.66";
unicode = 0042;
},
{
glyphname = C;
lastChange = "2021-08-13 16:01:46 +0000";
layers = (
{
anchors = (
{
name = bottom;
position = "{391.5, 0}";
},
{
name = top;
position = "{399.5, 709}";
}
);
hints = (
{
place = "{42, 117}";
type = Stem;
},
{
horizontal = 1;
place = "{-6, 100}";
type = Stem;
},
{
horizontal = 1;
place = "{608, 101}";
type = Stem;
}
);
layerId = "0CF0EA28-C756-4A9E-9D7C-CFEF350B4CFE";
paths = (
{
closed = 1;
nodes = (
"42.5 141 OFFCURVE",
"201.5 -6 OFFCURVE",
"397.5 -6 CURVE SMOOTH",
"537.5 -6 OFFCURVE",
"657.5 59 OFFCURVE",
"719.5 203 CURVE",
"619.5 239 LINE",
"567.5 130 OFFCURVE",
"477.5 93 OFFCURVE",
"397.5 93 CURVE SMOOTH",
"259.5 93 OFFCURVE",
"159.5 193 OFFCURVE",
"159.5 351 CURVE SMOOTH",
"159.5 509 OFFCURVE",
"259.5 608 OFFCURVE",
"397.5 608 CURVE SMOOTH",
"475.5 608 OFFCURVE",
"562.5 573 OFFCURVE",
"609.5 484 CURVE",
"710.5 521 LINE",
"652.5 643 OFFCURVE",
"533.5 709 OFFCURVE",
"397.5 709 CURVE SMOOTH",
"201.5 709 OFFCURVE",
"42.5 561 OFFCURVE",
"42.5 351 CURVE SMOOTH"
);
}
);
width = 776.1691;
},
{
anchors = (
{
name = bottom;
position = "{403.5, 0}";
},
{
name = top;
position = "{381.5, 700}";
}
);
hints = (
{
place = "{64, 23}";
type = Stem;
},
{
horizontal = 1;
place = "{-7, 21}";
target = up;
type = BottomGhost;
},
{
horizontal = 1;
place = "{692, -20}";
target = down;
type = TopGhost;
}
);
layerId = "6E968933-CD79-43C6-9231-80D77C940F4D";
paths = (
{
closed = 1;
nodes = (
"52.5 140 OFFCURVE",
"190.5 -7 OFFCURVE",
"381.5 -7 CURVE SMOOTH",
"547.5 -7 OFFCURVE",
"651.5 75 OFFCURVE",
"700.5 201 CURVE",
"681.5 208 LINE",
"640.5 97 OFFCURVE",
"537.5 11 OFFCURVE",
"381.5 13 CURVE",
"212.5 13 OFFCURVE",
"75.5 140 OFFCURVE",
"75.5 349 CURVE SMOOTH",
"75.5 560 OFFCURVE",
"212.5 687 OFFCURVE",
"381.5 687 CURVE SMOOTH",
"535.5 687 OFFCURVE",
"634.5 609 OFFCURVE",
"677.5 501 CURVE",
"696.5 508 LINE",
"646.5 629 OFFCURVE",
"543.5 707 OFFCURVE",
"381.5 707 CURVE SMOOTH",
"190.5 707 OFFCURVE",
"52.5 560 OFFCURVE",
"52.5 349 CURVE SMOOTH"
);
}
);
width = 770.33665;
},
{
anchors = (
{
name = bottom;
position = "{374.5, 1}";
},
{
name = top;
position = "{379.5, 705}";
}
);
hints = (
{
place = "{26, 179}";
type = Stem;
},
{
horizontal = 1;
place = "{-5, 159}";
type = Stem;
},
{
horizontal = 1;
place = "{548, 159}";
type = Stem;
}
);
layerId = "BAF31694-0472-4296-B0EA-1654553C45D2";
paths = (
{
closed = 1;
nodes = (
"26.5 142 OFFCURVE",
"170.5 -5 OFFCURVE",
"378.5 -5 CURVE SMOOTH",
"540.5 -5 OFFCURVE",
"662.5 80 OFFCURVE",
"709.5 228 CURVE",
"544.5 265 LINE",
"504.5 178 OFFCURVE",
"438.5 154 OFFCURVE",
"375.5 154 CURVE SMOOTH",
"274.5 154 OFFCURVE",
"205.5 231 OFFCURVE",
"205.5 351 CURVE SMOOTH",
"205.5 471 OFFCURVE",
"274.5 548 OFFCURVE",
"375.5 548 CURVE SMOOTH",
"437.5 548 OFFCURVE",
"497.5 524 OFFCURVE",
"535.5 450 CURVE",
"704.5 488 LINE",
"657.5 624 OFFCURVE",
"536.5 707 OFFCURVE",
"378.5 707 CURVE SMOOTH",
"170.5 707 OFFCURVE",
"26.5 560 OFFCURVE",
"26.5 351 CURVE SMOOTH"
);
}
);
width = 744.98981;
}
);
leftMetricsKey = O;
rightMetricsKey = "=O*1.3333";
unicode = 0043;
},
{
glyphname = D;
lastChange = "2021-08-13 16:01:27 +0000";
layers = (
{
anchors = (
{
name = top;
position = "{355, 701}";
}
);
hints = (
{
place = "{85, 114}";
type = Stem;
},
{
place = "{584, 117}";
type = Stem;
},
{
horizontal = 1;
place = "{0, 93}";
type = Stem;
},
{
horizontal = 1;
place = "{607, 93}";
type = Stem;
}
);
layerId = "0CF0EA28-C756-4A9E-9D7C-CFEF350B4CFE";
paths = (
{
closed = 1;
nodes = (
"85 700 LINE",
"85 0 LINE",
"332 0 LINE SMOOTH",
"555 0 OFFCURVE",
"701 132 OFFCURVE",
"701 347 CURVE SMOOTH",
"701 563 OFFCURVE",
"555 700 OFFCURVE",
"332 700 CURVE SMOOTH"
);
},
{
closed = 1;
nodes = (
"199 93 LINE",
"199 607 LINE",
"332 607 LINE SMOOTH",
"496 607 OFFCURVE",
"584 507 OFFCURVE",
"584 347 CURVE SMOOTH",
"584 188 OFFCURVE",
"496 93 OFFCURVE",
"332 93 CURVE SMOOTH"
);
}
);
width = 743.5;
},
{
anchors = (
{
name = top;
position = "{331, 679}";
}
);
hints = (
{
place = "{103, 22}";
type = Stem;
},
{
place = "{661, 22}";
type = Stem;
},
{
horizontal = 1;
place = "{0, 21}";
target = up;
type = BottomGhost;
},
{
horizontal = 1;
place = "{685, -20}";
target = down;
type = TopGhost;
}
);
layerId = "6E968933-CD79-43C6-9231-80D77C940F4D";
paths = (
{
closed = 1;
nodes = (
"105 700 LINE",
"105 0 LINE",
"310 0 LINE",
"555 0 OFFCURVE",
"682 129 OFFCURVE",
"682 350 CURVE",
"682 571 OFFCURVE",
"555 700 OFFCURVE",
"310 700 CURVE"
);
},
{
closed = 1;
nodes = (
"127 20 LINE",
"127 681 LINE",
"310 681 LINE",
"545 681 OFFCURVE",
"660 554 OFFCURVE",
"660 350 CURVE",
"660 146 OFFCURVE",
"545 20 OFFCURVE",
"310 20 CURVE"
);
}
);
width = 734.38649;
},
{
anchors = (
{
name = top;
position = "{340, 702}";
}
);
hints = (
{
place = "{53, 176}";
type = Stem;
},
{
place = "{529, 179}";
type = Stem;
},
{
horizontal = 1;
place = "{0, 153}";
type = Stem;
},
{
horizontal = 1;
place = "{549, 151}";
type = Stem;
}
);
layerId = "BAF31694-0472-4296-B0EA-1654553C45D2";
paths = (
{
closed = 1;
nodes = (
"53 700 LINE",
"53 0 LINE",
"339 0 LINE SMOOTH",
"564 0 OFFCURVE",
"708 144 OFFCURVE",
"708 350 CURVE SMOOTH",
"708 558 OFFCURVE",
"564 700 OFFCURVE",
"339 700 CURVE SMOOTH"
);
},
{
closed = 1;
nodes = (
"230 153 LINE",
"230 549 LINE",
"328 549 LINE SMOOTH",
"454 549 OFFCURVE",
"529 476 OFFCURVE",
"529 350 CURVE SMOOTH",
"529 224 OFFCURVE",
"454 153 OFFCURVE",
"328 153 CURVE SMOOTH"
);
}
);
width = 734.62519;
}
);
leftMetricsKey = H;
rightMetricsKey = "=H*0.5";
unicode = 0044;
},
{
glyphname = Eth;
lastChange = "2021-08-13 16:01:27 +0000";
layers = (
{
hints = (
{
place = "{142, 115}";
type = Stem;
},
{
place = "{621, 117}";
type = Stem;
},
{
horizontal = 1;
place = "{0, 87}";
type = Stem;
},
{
horizontal = 1;
place = "{295, 105}";
type = Stem;
},
{
horizontal = 1;
place = "{608, 92}";
type = Stem;
}
);
layerId = "0CF0EA28-C756-4A9E-9D7C-CFEF350B4CFE";
paths = (
{
closed = 1;
nodes = (
"65 295 LINE",
"435 295 LINE",
"435 400 LINE",
"65 400 LINE"
);
},
{
closed = 1;
nodes = (
"142 700 LINE",
"142 0 LINE",
"370 0 LINE SMOOTH",
"593 0 OFFCURVE",
"738 132 OFFCURVE",
"738 347 CURVE SMOOTH",
"738 563 OFFCURVE",
"593 700 OFFCURVE",
"370 700 CURVE SMOOTH"
);
},
{
closed = 1;
nodes = (
"257 87 LINE",
"257 608 LINE",
"370 608 LINE SMOOTH",
"533 608 OFFCURVE",
"621 507 OFFCURVE",
"621 347 CURVE SMOOTH",
"621 188 OFFCURVE",
"533 86 OFFCURVE",
"370 87 CURVE SMOOTH"
);
}
);
width = 780.5;
},
{
hints = (
{
place = "{202, 22}";
type = Stem;
},
{
place = "{734, 22}";
type = Stem;
},
{
horizontal = 1;
place = "{0, 21}";
target = up;
type = BottomGhost;
},
{
horizontal = 1;
place = "{685, -20}";
target = down;
type = TopGhost;
}
);
layerId = "6E968933-CD79-43C6-9231-80D77C940F4D";
paths = (
{
closed = 1;
nodes = (
"85 340 LINE",
"453 340 LINE",
"453 360 LINE",
"85 360 LINE"
);
},
{
closed = 1;
nodes = (
"199 700 LINE",
"199 0 LINE",
"385 0 LINE",
"629 0 OFFCURVE",
"757 129 OFFCURVE",
"757 350 CURVE",
"757 571 OFFCURVE",
"629 700 OFFCURVE",
"385 700 CURVE"
);
},
{
closed = 1;
nodes = (
"221 19 LINE",
"221 681 LINE",
"385 681 LINE",
"619 681 OFFCURVE",
"735 554 OFFCURVE",
"735 350 CURVE",
"735 146 OFFCURVE",
"619 19 OFFCURVE",
"385 19 CURVE"
);
}
);
width = 809.39298;
},
{
hints = (
{
place = "{95, 177}";
type = Stem;
},
{
place = "{550, 179}";
type = Stem;
},
{
horizontal = 1;
place = "{0, 151}";
type = Stem;
},
{
horizontal = 1;
place = "{277, 146}";
type = Stem;
},
{
horizontal = 1;
place = "{549, 151}";
type = Stem;
}
);
layerId = "BAF31694-0472-4296-B0EA-1654553C45D2";
paths = (
{
closed = 1;
nodes = (
"33 277 LINE",
"422 277 LINE",
"422 423 LINE",
"33 423 LINE"
);
},
{
closed = 1;
nodes = (
"95 700 LINE",
"95 0 LINE",
"361 0 LINE SMOOTH",
"586 0 OFFCURVE",
"729 144 OFFCURVE",
"729 350 CURVE SMOOTH",
"729 558 OFFCURVE",
"586 700 OFFCURVE",
"361 700 CURVE SMOOTH"
);
},
{
closed = 1;
nodes = (
"271 151 LINE",
"271 550 LINE",
"350 550 LINE SMOOTH",
"475 550 OFFCURVE",
"550 476 OFFCURVE",
"550 350 CURVE SMOOTH",
"550 224 OFFCURVE",
"475 150 OFFCURVE",
"350 151 CURVE SMOOTH"
);
}
);
width = 755.63245;
}
);
leftMetricsKey = "=D-20";
rightMetricsKey = D;
unicode = 00D0;
},
{
glyphname = E;
lastChange = "2021-08-13 16:01:27 +0000";
layers = (
{
anchors = (
{
name = bottom;
position = "{312, 0}";
},
{
name = ogonek;
position = "{509, 0}";
},
{
name = top;
position = "{322, 701}";
}
);
hints = (
{
place = "{85, 114}";
type = Stem;
},
{
horizontal = 1;
place = "{0, 93}";
type = Stem;
},
{
horizontal = 1;
place = "{308, 93}";
type = Stem;
},
{
horizontal = 1;
place = "{607, 93}";
type = Stem;
}
);
layerId = "0CF0EA28-C756-4A9E-9D7C-CFEF350B4CFE";
paths = (
{
closed = 1;
nodes = (
"559 700 LINE",
"85 700 LINE",
"85 0 LINE",
"559 0 LINE",
"559 93 LINE",
"199 93 LINE",
"199 308 LINE",
"469 308 LINE",
"469 401 LINE",
"199 401 LINE",
"199 607 LINE",
"559 607 LINE"
);
}
);
width = 624;
},
{
anchors = (
{
name = bottom;
position = "{293, 0}";
},
{
name = ogonek;
position = "{489, 0}";
},
{
name = top;
position = "{322, 690}";
}
);
hints = (
{
place = "{116, 22}";
type = Stem;
},
{
horizontal = 1;
place = "{685, -20}";
target = down;
type = TopGhost;
},
{
horizontal = 1;
place = "{0, 21}";
target = up;
type = BottomGhost;
}
);
layerId = "6E968933-CD79-43C6-9231-80D77C940F4D";
paths = (
{
closed = 1;
nodes = (
"539 700 LINE",
"105 700 LINE",
"105 0 LINE",
"539 0 LINE",
"539 20 LINE",
"127 20 LINE",
"127 350 LINE",
"449 350 LINE",
"449 370 LINE",
"127 370 LINE",
"127 681 LINE",
"539 681 LINE"
);
}
);
width = 623.77;
},
{
anchors = (
{
name = bottom;
position = "{306, 1}";
},
{
name = ogonek;
position = "{528, 1}";
},
{
name = top;
position = "{310, 702}";
}
);
hints = (
{
place = "{53, 176}";
type = Stem;
},
{
horizontal = 1;
place = "{0, 141}";
type = Stem;
},
{
horizontal = 1;
place = "{286, 141}";
type = Stem;
},
{
horizontal = 1;
place = "{559, 141}";
type = Stem;
}
);
layerId = "BAF31694-0472-4296-B0EA-1654553C45D2";
paths = (
{
closed = 1;
nodes = (
"578 700 LINE",
"53 700 LINE",
"53 0 LINE",
"577.991 0 LINE",
"578 141 LINE",
"230 141 LINE",
"230 286 LINE",
"476 286 LINE",
"476 428 LINE",
"230 428 LINE",
"230 559 LINE",
"578 559 LINE"
);
}
);
width = 611.24962;
}
);
leftMetricsKey = H;
rightMetricsKey = "=H-20";
unicode = 0045;
},
{
glyphname = F;
lastChange = "2021-08-13 16:01:27 +0000";
layers = (
{
hints = (
{
place = "{85, 114}";
type = Stem;
},
{
horizontal = 1;
place = "{306, 93}";
type = Stem;
},
{
horizontal = 1;
place = "{607, 93}";
type = Stem;
},
{
horizontal = 1;
place = "{0, 21}";
target = up;
type = BottomGhost;
}
);
layerId = "0CF0EA28-C756-4A9E-9D7C-CFEF350B4CFE";
paths = (
{
closed = 1;
nodes = (
"85 0 LINE",
"199 0 LINE",
"199 306 LINE",
"487 306 LINE",
"487 399 LINE",
"199 400 LINE",
"199 607 LINE",
"574 607 LINE",
"574 700 LINE",
"85 700 LINE"
);
}
);
width = 617.29;
},
{
hints = (
{
place = "{116, 22}";
type = Stem;
},
{
horizontal = 1;
place = "{685, -20}";
target = down;
type = TopGhost;
},
{
horizontal = 1;
place = "{0, 21}";
target = up;
type = BottomGhost;
}
);
layerId = "6E968933-CD79-43C6-9231-80D77C940F4D";
paths = (
{
closed = 1;
nodes = (
"105 0 LINE",
"127 0 LINE",
"127 340 LINE",
"440 340 LINE",
"440 360 LINE",
"127 360 LINE",
"127 681 LINE",
"530 681 LINE",
"530 700 LINE",
"105 700 LINE"
);
}
);
width = 586.46086;
},
{
hints = (
{
place = "{53, 176}";
type = Stem;
},
{
horizontal = 1;
place = "{281, 136}";
type = Stem;
},
{
horizontal = 1;
place = "{559, 141}";
type = Stem;
},
{
horizontal = 1;
place = "{0, 21}";
target = up;
type = BottomGhost;
}
);
layerId = "BAF31694-0472-4296-B0EA-1654553C45D2";
paths = (
{
closed = 1;
nodes = (
"53 0 LINE",
"230 0 LINE",
"230 281 LINE",
"493 281 LINE",
"493 417 LINE",
"230 417 LINE",
"230 559 LINE",
"595 559 LINE",
"595 700 LINE",
"53 700 LINE"
);
}
);
width = 617.14195;
}
);
leftMetricsKey = H;
rightMetricsKey = "=E*0.666";
unicode = 0046;
},
{
glyphname = G;
lastChange = "2021-08-13 16:01:42 +0000";
layers = (
{
anchors = (
{
name = bottom;
position = "{391.5, 0}";
},
{
name = top;
position = "{391.5, 701}";
}
);
hints = (
{
place = "{42, 117}";
type = Stem;
},
{
place = "{599, 122}";
type = Stem;
},
{
horizontal = 1;
place = "{-6, 103}";
type = Stem;
},
{
horizontal = 1;
place = "{292, 91}";
type = Stem;
},
{
horizontal = 1;
place = "{604, 104}";
type = Stem;
}
);
layerId = "0CF0EA28-C756-4A9E-9D7C-CFEF350B4CFE";
paths = (
{
closed = 1;
nodes = (
"708.5 521 LINE",
"654.5 642 OFFCURVE",
"530.5 708 OFFCURVE",
"397.5 708 CURVE SMOOTH",
"201.5 708 OFFCURVE",
"42.5 560 OFFCURVE",
"42.5 351 CURVE SMOOTH",
"42.5 141 OFFCURVE",
"201.5 -6 OFFCURVE",
"397.5 -6 CURVE SMOOTH",
"553.5 -6 OFFCURVE",
"673.5 90 OFFCURVE",
"721.5 215 CURVE",
"721.5 383 LINE",
"401.5 383 LINE",
"401.5 292 LINE",
"599.5 292 LINE",
"599.5 220 LINE",
"564.5 144 OFFCURVE",
"495.5 97 OFFCURVE",
"397.5 97 CURVE SMOOTH",
"259.5 97 OFFCURVE",
"159.5 197 OFFCURVE",
"159.5 351 CURVE SMOOTH",
"159.5 505 OFFCURVE",
"259.5 604 OFFCURVE",
"397.5 604 CURVE SMOOTH",
"478.5 604 OFFCURVE",
"564.5 563 OFFCURVE",
"603.5 482 CURVE"
);
}
);
width = 772.5;
},
{
anchors = (
{
name = bottom;
position = "{403.5, 0}";
},
{
name = top;
position = "{403.5, 679}";
}
);
hints = (
{
place = "{64, 23}";
type = Stem;
},
{
horizontal = 1;
place = "{691, -20}";
target = down;
type = TopGhost;
},
{
horizontal = 1;
place = "{-8, 21}";
target = up;
type = BottomGhost;
}
);
layerId = "6E968933-CD79-43C6-9231-80D77C940F4D";
paths = (
{
closed = 1;
nodes = (
"695.5 508 LINE",
"644.5 628 OFFCURVE",
"537.5 706 OFFCURVE",
"389.5 706 CURVE SMOOTH",
"193.5 706 OFFCURVE",
"52.5 559 OFFCURVE",
"52.5 349 CURVE SMOOTH",
"52.5 139 OFFCURVE",
"193.5 -8 OFFCURVE",
"389.5 -8 CURVE SMOOTH",
"548.5 -8 OFFCURVE",
"671.5 90 OFFCURVE",
"711.5 239 CURVE",
"711.5 358 LINE",
"389.5 358 LINE",
"389.5 338 LINE",
"690.5 338 LINE",
"690.5 241 LINE",
"650.5 97 OFFCURVE",
"530.5 12 OFFCURVE",
"389.5 12 CURVE SMOOTH",
"214.5 12 OFFCURVE",
"75.5 140 OFFCURVE",
"75.5 349 CURVE SMOOTH",
"75.5 559 OFFCURVE",
"214.5 686 OFFCURVE",
"389.5 686 CURVE SMOOTH",
"529.5 686 OFFCURVE",
"633.5 608 OFFCURVE",
"676.5 501 CURVE"
);
}
);
width = 774.3526;
},
{
anchors = (
{
name = bottom;
position = "{374.5, 1}";
},
{
name = top;
position = "{374.5, 702}";
}
);
hints = (
{
place = "{18, 50}";
type = Stem;
},
{
place = "{263, 181}";
type = Stem;
},
{
horizontal = 1;
place = "{-5, 156}";
type = Stem;
},
{
horizontal = 1;
place = "{267, 128}";
type = Stem;
},
{
horizontal = 1;
place = "{545, 162}";
type = Stem;
}
);
layerId = "BAF31694-0472-4296-B0EA-1654553C45D2";
paths = (
{
closed = 1;
nodes = (
"700.5 509 LINE",
"656.5 633 OFFCURVE",
"537.5 708 OFFCURVE",
"382.5 708 CURVE SMOOTH",
"171.5 708 OFFCURVE",
"26.5 560 OFFCURVE",
"26.5 351 CURVE SMOOTH",
"26.5 142 OFFCURVE",
"172.5 -5 OFFCURVE",
"384.5 -5 CURVE SMOOTH",
"555.5 -5 OFFCURVE",
"664.5 96 OFFCURVE",
"712.5 198 CURVE",
"712.5 396 LINE",
"384.5 396 LINE",
"384.5 267 LINE",
"554.5 267 LINE",
"554.5 238 LINE",
"521.5 181 OFFCURVE",
"468.5 150 OFFCURVE",
"397.5 150 CURVE SMOOTH",
"276.5 150 OFFCURVE",
"205.5 224 OFFCURVE",
"205.5 351 CURVE SMOOTH",
"205.5 469 OFFCURVE",
"275.5 546 OFFCURVE",
"383.5 546 CURVE SMOOTH",
"444.5 546 OFFCURVE",
"499.5 519 OFFCURVE",
"525.5 470 CURVE"
);
}
);
width = 744.44109;
}
);
leftMetricsKey = O;
rightMetricsKey = "=O*1.2";
unicode = 0047;
},
{
glyphname = Gcommaaccent;
lastChange = "2021-08-13 16:04:09 +0000";
layers = (
{
anchors = (
{
name = _bottom;
position = "{386, 0}";
}
);
components = (
{
alignment = -1;
name = G;
}
);
hints = (
{
place = "{332, 117}";
type = Stem;
},
{
place = "{336, 113}";
type = Stem;
},
{
place = "{385, 64}";
type = Stem;
},
{
horizontal = 1;
place = "{-143, 96}";
type = Stem;
},
{
horizontal = 1;
place = "{-272, 21}";
target = up;
type = BottomGhost;
}
);
layerId = "0CF0EA28-C756-4A9E-9D7C-CFEF350B4CFE";
paths = (
{
closed = 1;
nodes = (
"332 -47 LINE",
"332 -143 LINE",
"385 -143 LINE",
"385 -165 LINE SMOOTH",
"385 -203.003 OFFCURVE",
"370 -222 OFFCURVE",
"336 -222 CURVE",
"336 -272 LINE",
"410 -272 OFFCURVE",
"449 -230 OFFCURVE",
"449 -146 CURVE SMOOTH",
"449 -117 OFFCURVE",
"444 -84 OFFCURVE",
"435 -47 CURVE"
);
}
);
width = 772.5;
},
{
anchors = (
{
name = _bottom;
position = "{396, -8}";
}
);
components = (
{
alignment = -1;
name = G;
}
);
hints = (
{
place = "{396, 24}";
type = Stem;
},
{
horizontal = 1;
place = "{-58, -20}";
target = down;
type = TopGhost;
},
{
horizontal = 1;
place = "{-177, 21}";
target = up;
type = BottomGhost;
}
);
layerId = "6E968933-CD79-43C6-9231-80D77C940F4D";
paths = (
{
closed = 1;
nodes = (
"376 -58 LINE",
"376 -97 LINE",
"408 -97 LINE",
"408 -105 LINE SMOOTH",
"408 -138 OFFCURVE",
"396 -158 OFFCURVE",
"364 -158 CURVE",
"364 -177 LINE",
"401 -177 OFFCURVE",
"430 -162 OFFCURVE",
"430 -91 CURVE SMOOTH",
"430 -81 OFFCURVE",
"429 -68 OFFCURVE",
"428 -58 CURVE"
);
}
);
width = 774.3466;
},
{
anchors = (
{
name = _bottom;
position = "{381, 1}";
}
);
components = (
{
alignment = -1;
name = G;
}
);
hints = (
{
place = "{312, 154}";
type = Stem;
},
{
place = "{356, 111}";
type = Stem;
},
{
place = "{-33, 73}";
type = Stem;
},
{
horizontal = 1;
place = "{-164, 125}";
type = Stem;
},
{
horizontal = 1;
place = "{-115, 21}";
target = up;
type = BottomGhost;
}
);
layerId = "BAF31694-0472-4296-B0EA-1654553C45D2";
paths = (
{
closed = 1;
nodes = (
"312 -38 LINE",
"312 -164 LINE",
"376 -164 LINE",
"376 -178 LINE SMOOTH",
"376 -224 OFFCURVE",
"358 -245 OFFCURVE",
"324 -245 CURVE",
"324 -312 LINE",
"421 -312 OFFCURVE",
"467 -248 OFFCURVE",
"467 -158 CURVE SMOOTH",
"467 -121 OFFCURVE",
"460 -81 OFFCURVE",
"446 -38 CURVE"
);
}
);
width = 744.43509;
}
);
leftMetricsKey = G;
rightMetricsKey = G;
unicode = 0122;
},
{
glyphname = H;
lastChange = "2021-08-13 16:01:22 +0000";
layers = (
{
guideLines = (
{
position = "{0, 699.66}";
}
);
hints = (
{
place = "{85, 114}";
type = Stem;
},
{
place = "{526, 114}";
type = Stem;
},
{
horizontal = 1;
place = "{306, 93}";
type = Stem;
},
{
horizontal = 1;
place = "{0, 21}";
target = up;
type = BottomGhost;
},
{
horizontal = 1;
place = "{700, -20}";
target = down;
type = TopGhost;
}
);
layerId = "0CF0EA28-C756-4A9E-9D7C-CFEF350B4CFE";
paths = (
{
closed = 1;
nodes = (
"85 0 LINE",
"199 0 LINE",
"199 700 LINE",
"85 700 LINE"
);
},
{
closed = 1;
nodes = (
"526 0 LINE",
"640 0 LINE",
"640 700 LINE",
"526 700 LINE"
);
},
{
closed = 1;
nodes = (
"179 306 LINE",
"553 306 LINE",
"553 399 LINE",
"179 399 LINE"
);
}
);
width = 725;
},
{
hints = (
{
place = "{114, 22}";
type = Stem;
},
{
place = "{559, 22}";
type = Stem;
},
{
horizontal = 1;
place = "{0, 21}";
target = up;
type = BottomGhost;
},
{
horizontal = 1;
place = "{700, -20}";
target = down;
type = TopGhost;
}
);
layerId = "6E968933-CD79-43C6-9231-80D77C940F4D";
paths = (
{
closed = 1;
nodes = (
"105 0 LINE",
"127 0 LINE",
"127 700 LINE",
"105 700 LINE"
);
},
{
closed = 1;
nodes = (
"563 0 LINE",
"585 0 LINE",
"585 700 LINE",
"563 700 LINE"
);
},
{
closed = 1;
nodes = (
"116 350 LINE",
"576 350 LINE",
"576 370 LINE",
"116 370 LINE"
);
}
);
width = 689.76596;
},
{
hints = (
{
place = "{53, 176}";
type = Stem;
},
{
place = "{490, 176}";
type = Stem;
},
{
horizontal = 1;
place = "{286, 141}";
type = Stem;
},
{
horizontal = 1;
place = "{0, 21}";
target = up;
type = BottomGhost;
},
{
horizontal = 1;
place = "{700, -20}";
target = down;
type = TopGhost;
}
);
layerId = "BAF31694-0472-4296-B0EA-1654553C45D2";
paths = (
{
closed = 1;
nodes = (
"53 0 LINE",
"230 0 LINE",
"230 700 LINE",
"53 700 LINE"
);
},
{
closed = 1;
nodes = (
"490 0 LINE",
"666 0 LINE",
"666 700 LINE",
"490 700 LINE"
);
},
{
closed = 1;
nodes = (
"210 286 LINE",
"514 286 LINE",
"514 428 LINE",
"210 428 LINE"
);
}
);
width = 719.24528;
}
);
unicode = 0048;
},
{
glyphname = I;
lastChange = "2021-08-13 16:01:28 +0000";
layers = (
{
anchors = (
{
name = ogonek;
position = "{199, 1}";
},
{
name = top;
position = "{142, 701}";
}
);
hints = (
{
place = "{85, 114}";
type = Stem;
},
{
horizontal = 1;
place = "{0, 21}";
target = up;
type = BottomGhost;
},
{
horizontal = 1;
place = "{700, -20}";
target = down;
type = TopGhost;
}
);
layerId = "0CF0EA28-C756-4A9E-9D7C-CFEF350B4CFE";
paths = (
{
closed = 1;
nodes = (
"85 0 LINE",
"199 0 LINE",
"199 700 LINE",
"85 700 LINE"
);
}
);
width = 284;
},
{
anchors = (
{
name = ogonek;
position = "{127, 0}";
},
{
name = top;
position = "{116, 679}";
}
);
hints = (
{
place = "{105, 22}";
type = Stem;
},
{
horizontal = 1;
place = "{0, 21}";
target = up;
type = BottomGhost;
},
{
horizontal = 1;
place = "{700, -20}";
target = down;
type = TopGhost;
}
);
layerId = "6E968933-CD79-43C6-9231-80D77C940F4D";
paths = (
{
closed = 1;
nodes = (
"105 0 LINE",
"127 0 LINE",
"127 700 LINE",
"105 700 LINE"
);
}
);
width = 231.76894;
},
{
anchors = (
{
name = ogonek;
position = "{230, 1}";
},
{
name = top;
position = "{142, 702}";
}
);
hints = (
{
place = "{53, 176}";
type = Stem;
},
{
horizontal = 1;
place = "{0, 21}";
target = up;
type = BottomGhost;
},
{
horizontal = 1;
place = "{700, -20}";
target = down;
type = TopGhost;
}
);
layerId = "BAF31694-0472-4296-B0EA-1654553C45D2";
paths = (
{
closed = 1;
nodes = (
"53 0 LINE",
"230 0 LINE",
"230 700 LINE",
"53 700 LINE"
);
}
);
width = 283.24906;
}
);
leftMetricsKey = H;
rightMetricsKey = H;
unicode = 0049;
},
{
glyphname = J;
lastChange = "2021-08-13 16:01:49 +0000";
layers = (
{
hints = (
{
place = "{343, 115}";
type = Stem;
},
{
horizontal = 1;
place = "{-7, 102}";
type = Stem;
},
{
horizontal = 1;
place = "{700, -20}";
target = down;
type = TopGhost;
}
);
layerId = "0CF0EA28-C756-4A9E-9D7C-CFEF350B4CFE";
paths = (
{
closed = 1;
nodes = (
"343.1 200 LINE SMOOTH",
"343.1 142 OFFCURVE",
"309.1 94 OFFCURVE",
"248.1 94 CURVE SMOOTH",
"198.1 94 OFFCURVE",
"170.1 122 OFFCURVE",
"156.1 164 CURVE",
"56.1 127 LINE",
"83.1 42 OFFCURVE",
"151.1 -7 OFFCURVE",
"248.1 -7 CURVE SMOOTH",
"368.1 -7 OFFCURVE",
"458.1 73 OFFCURVE",
"458.1 200 CURVE SMOOTH",
"458.1 700 LINE",
"343.1 700 LINE"
);
}
);
width = 538.85;
},
{
hints = (
{
place = "{359, 22}";
type = Stem;
},
{
horizontal = 1;
place = "{-7, 21}";
target = up;
type = BottomGhost;
},
{
horizontal = 1;
place = "{700, -20}";
target = down;
type = TopGhost;
}
);
layerId = "6E968933-CD79-43C6-9231-80D77C940F4D";
paths = (
{
closed = 1;
nodes = (
"366.3 155 LINE SMOOTH",
"366.3 97 OFFCURVE",
"335.3 13 OFFCURVE",
"231.3 13 CURVE SMOOTH",
"137.3 13 OFFCURVE",
"101.3 72 OFFCURVE",
"90.3 143 CURVE",
"69.3 136 LINE",
"84.3 47 OFFCURVE",
"138.3 -7 OFFCURVE",
"231.3 -7 CURVE SMOOTH",
"332.3 -7 OFFCURVE",
"388.3 72 OFFCURVE",
"388.3 155 CURVE SMOOTH",
"388.3 700 LINE",
"366.3 700 LINE"
);
}
);
width = 487.83106;
},
{
hints = (
{
place = "{334, 176}";
type = Stem;
},
{
horizontal = 1;
place = "{-6, 157}";
type = Stem;
},
{
horizontal = 1;
place = "{700, -20}";
target = down;
type = TopGhost;
}
);
layerId = "BAF31694-0472-4296-B0EA-1654553C45D2";
paths = (
{
closed = 1;
nodes = (
"333.98 228 LINE SMOOTH",
"333.98 177 OFFCURVE",
"305.98 150 OFFCURVE",
"265.98 150 CURVE SMOOTH",
"230.98 150 OFFCURVE",
"206.98 168 OFFCURVE",
"196.98 209 CURVE",
"34.98 173 LINE",
"59.98 55 OFFCURVE",
"146.98 -6 OFFCURVE",
"271.98 -6 CURVE SMOOTH",
"411.98 -6 OFFCURVE",
"509.98 76 OFFCURVE",
"509.98 228 CURVE SMOOTH",
"509.98 700 LINE",
"333.98 700 LINE"
);
}
);
width = 560.56943;
}
);
leftMetricsKey = "=H*0.66";
rightMetricsKey = U;
unicode = 004A;
},
{
glyphname = K;
lastChange = "2021-08-13 16:01:28 +0000";
layers = (
{
anchors = (
{
name = bottom;
position = "{327, 0}";
},
{
name = top;
position = "{327, 701}";
}
);
hints = (
{
place = "{85, 114}";
type = Stem;
},
{
horizontal = 1;
place = "{0, 21}";
target = up;
type = BottomGhost;
},
{
horizontal = 1;
place = "{700, -20}";
target = down;
type = TopGhost;
}
);
layerId = "0CF0EA28-C756-4A9E-9D7C-CFEF350B4CFE";
paths = (
{
closed = 1;
nodes = (
"85 0 LINE",
"199 0 LINE",
"199 700 LINE",
"85 700 LINE"
);
},
{
closed = 1;
nodes = (
"340 356 LINE",
"642 700 LINE",
"499 700 LINE",
"200 353 LINE",
"498 0 LINE",
"647 0 LINE"
);
},
{
closed = 1;
nodes = (
"179 306 LINE",
"323 306 LINE",
"323 399 LINE",
"179 399 LINE"
);
}
);
width = 659.75;
},
{
anchors = (
{
name = bottom;
position = "{276, 0}";
},
{
name = top;
position = "{276, 679}";
}
);
hints = (
{
place = "{105, 22}";
type = Stem;
},
{
horizontal = 1;
place = "{0, 21}";
target = up;
type = BottomGhost;
},
{
horizontal = 1;
place = "{700, -20}";
target = down;
type = TopGhost;
}
);
layerId = "6E968933-CD79-43C6-9231-80D77C940F4D";
paths = (
{
closed = 1;
nodes = (
"105 0 LINE",
"127 0 LINE",
"127 700 LINE",
"105 700 LINE"
);
},
{
closed = 1;
nodes = (
"171 361 LINE",
"527 700 LINE",
"497 700 LINE",
"141 360 LINE",
"497 0 LINE",
"527 0 LINE"
);
},
{
closed = 1;
nodes = (
"116 350 LINE",
"169 350 LINE",
"169 370 LINE",
"116 370 LINE"
);
}
);
width = 542.71848;
},
{
anchors = (
{
name = bottom;
position = "{343, 1}";
},
{
name = top;
position = "{343, 702}";
}
);
hints = (
{
place = "{53, 176}";
type = Stem;
},
{
horizontal = 1;
place = "{0, 21}";
target = up;
type = BottomGhost;
},
{
horizontal = 1;
place = "{700, -20}";
target = down;
type = TopGhost;
}
);
layerId = "BAF31694-0472-4296-B0EA-1654553C45D2";
paths = (
{
closed = 1;
nodes = (
"53 0 LINE",
"230 0 LINE",
"230 700 LINE",
"53 700 LINE"
);
},
{
closed = 1;
nodes = (
"427 361 LINE",
"697 700 LINE",
"491 700 LINE",
"227 354 LINE",
"492 0 LINE",
"708 0 LINE"
);
},
{
closed = 1;
nodes = (
"210 286 LINE",
"382 286 LINE",
"382 428 LINE",
"210 428 LINE"
);
}
);
width = 715.98382;
}
);
leftMetricsKey = H;
rightMetricsKey = "=H*0.15";
unicode = 004B;
},
{
glyphname = Kcommaaccent;
lastChange = "2021-08-13 16:01:28 +0000";
layers = (
{
anchors = (
{
name = _bottom;
position = "{317, 0}";
}
);
components = (
{
alignment = -1;
name = K;
}
);
hints = (
{
place = "{262, 117}";
type = Stem;
},
{
place = "{267, 112}";
type = Stem;
},
{
place = "{315, 64}";
type = Stem;
},
{
horizontal = 1;
place = "{-143, 96}";
type = Stem;
},
{
horizontal = 1;
place = "{-272, 21}";
target = up;
type = BottomGhost;
}
);
layerId = "0CF0EA28-C756-4A9E-9D7C-CFEF350B4CFE";
paths = (
{
closed = 1;
nodes = (
"262 -47 LINE",
"262 -143 LINE",
"315 -143 LINE",
"315 -165 LINE SMOOTH",
"315 -203.003 OFFCURVE",
"300 -222 OFFCURVE",
"267 -222 CURVE",
"267 -272 LINE",
"341 -272 OFFCURVE",
"379 -230 OFFCURVE",
"379 -146 CURVE SMOOTH",
"379 -117 OFFCURVE",
"375 -84 OFFCURVE",
"365 -47 CURVE"
);
}
);
width = 659.75;
},
{
anchors = (
{
name = _bottom;
position = "{243, 0}";
}
);
components = (
{
alignment = -1;
name = K;
}
);
hints = (
{
place = "{240, 24}";
type = Stem;
},
{
horizontal = 1;
place = "{-58, -20}";
target = down;
type = TopGhost;
},
{
horizontal = 1;
place = "{-177, 21}";
target = up;
type = BottomGhost;
}
);
layerId = "6E968933-CD79-43C6-9231-80D77C940F4D";
paths = (
{
closed = 1;
nodes = (
"218 -58 LINE",
"218 -97 LINE",
"249 -97 LINE",
"249 -105 LINE SMOOTH",
"249 -138 OFFCURVE",
"238 -158 OFFCURVE",
"206 -158 CURVE",
"206 -177 LINE",
"243 -177 OFFCURVE",
"272 -162 OFFCURVE",
"272 -91 CURVE SMOOTH",
"272 -81 OFFCURVE",
"271 -68 OFFCURVE",
"270 -58 CURVE"
);
}
);
width = 542.72298;
},
{
anchors = (
{
name = _bottom;
position = "{364, 1}";
}
);
components = (
{
alignment = -1;
name = K;
}
);
hints = (
{
place = "{111, 50}";
type = Stem;
},
{
place = "{297, 152}";
type = Stem;
},
{
place = "{359, 90}";
type = Stem;
},
{
horizontal = 1;
place = "{-164, 125}";
type = Stem;
},
{
horizontal = 1;
place = "{-312, 21}";
target = up;
type = BottomGhost;
}
);
layerId = "BAF31694-0472-4296-B0EA-1654553C45D2";
paths = (
{
closed = 1;
nodes = (
"295 -38 LINE",
"295 -164 LINE",
"359 -164 LINE",
"359 -178 LINE SMOOTH",
"359 -224 OFFCURVE",
"340 -245 OFFCURVE",
"307 -245 CURVE",
"307 -312 LINE",
"403 -312 OFFCURVE",
"449 -248 OFFCURVE",
"449 -158 CURVE SMOOTH",
"449 -121 OFFCURVE",
"443 -81 OFFCURVE",
"428 -38 CURVE"
);
}
);
width = 715.97632;
}
);
leftMetricsKey = H;
rightMetricsKey = K;
unicode = 0136;
},
{
glyphname = L;
lastChange = "2021-08-13 16:01:28 +0000";
layers = (
{
anchors = (
{
name = bottom;
position = "{258, 0}";
},
{
name = commaaccent;
position = "{258, 10}";
},
{
name = top;
position = "{232, 701}";
},
{
name = topright;
position = "{434, 701}";
}
);
hints = (
{
place = "{85, 114}";
type = Stem;
},
{
horizontal = 1;
place = "{0, 92}";
type = Stem;
},
{
horizontal = 1;
place = "{700, -20}";
target = down;
type = TopGhost;
}
);
layerId = "0CF0EA28-C756-4A9E-9D7C-CFEF350B4CFE";
paths = (
{
closed = 1;
nodes = (
"85 700 LINE",
"85 0 LINE",
"514 0 LINE",
"514 91.993 LINE",
"199 92 LINE",
"199 700 LINE"
);
}
);
width = 542.305;
},
{
anchors = (
{
name = bottom;
position = "{240, 0}";
},
{
name = commaaccent;
position = "{240, 10}";
},
{
name = top;
position = "{222, 679}";
},
{
name = topright;
position = "{396, 679}";
}
);
hints = (
{
place = "{103, 22}";
type = Stem;
},
{
horizontal = 1;
place = "{0, 21}";
target = up;
type = BottomGhost;
},
{
horizontal = 1;
place = "{700, -20}";
target = down;
type = TopGhost;
}
);
layerId = "6E968933-CD79-43C6-9231-80D77C940F4D";
paths = (
{
closed = 1;
nodes = (
"105 700 LINE",
"105 0 LINE",
"476 0 LINE",
"476 20 LINE",
"127 20 LINE",
"127 700 LINE"
);
}
);
width = 510.8915;
},
{
anchors = (
{
name = bottom;
position = "{251, 1}";
},
{
name = commaaccent;
position = "{251, 11}";
},
{
name = top;
position = "{220, 702}";
},
{
name = topright;
position = "{441, 702}";
}
);
hints = (
{
place = "{53, 176}";
type = Stem;
},
{
horizontal = 1;
place = "{0, 136}";
type = Stem;
},
{
horizontal = 1;
place = "{700, -20}";
target = down;
type = TopGhost;
}
);
layerId = "BAF31694-0472-4296-B0EA-1654553C45D2";
paths = (
{
closed = 1;
nodes = (
"53 700 LINE",
"53 0 LINE",
"532 0 LINE",
"532 136 LINE",
"230 136 LINE",
"230 700 LINE"
);
}
);
width = 549.73258;
}
);
leftMetricsKey = H;
rightMetricsKey = "=H*0.333";
unicode = 004C;
},
{
glyphname = Lcaron;
lastChange = "2021-08-13 16:01:28 +0000";
layers = (
{
anchors = (
{
name = _bottom;
position = "{352, 746}";
}
);
components = (
{
alignment = -1;
name = L;
}
);
hints = (
{
place = "{297, 117}";
type = Stem;
},
{
place = "{302, 112}";
type = Stem;
},
{
place = "{350, 64}";
type = Stem;
},
{
horizontal = 1;
place = "{603, 96}";
type = Stem;
},
{
horizontal = 1;
place = "{474, 21}";
target = up;
type = BottomGhost;
}
);
layerId = "0CF0EA28-C756-4A9E-9D7C-CFEF350B4CFE";
paths = (
{
closed = 1;
nodes = (
"297 699 LINE",
"297 603 LINE",
"350 603 LINE",
"350 582 LINE SMOOTH",
"350 543 OFFCURVE",
"335 524 OFFCURVE",
"302 524 CURVE",
"302 474 LINE",
"376 474 OFFCURVE",
"414 517 OFFCURVE",
"414 600 CURVE SMOOTH",
"414 629 OFFCURVE",
"410 662 OFFCURVE",
"400 699 CURVE"
);
}
);
width = 542.3;
},
{
anchors = (
{
name = _bottom;
position = "{261, 736}";
}
);
components = (
{
alignment = -1;
name = L;
}
);
hints = (
{
place = "{233, 61}";
type = Stem;
},
{
place = "{272, 23}";
type = Stem;
},
{
horizontal = 1;
place = "{555, 22}";
type = Stem;
},
{
horizontal = 1;
place = "{685, -20}";
target = down;
type = TopGhost;
}
);
layerId = "6E968933-CD79-43C6-9231-80D77C940F4D";
paths = (
{
closed = 1;
nodes = (
"233 700 LINE",
"233 646 LINE",
"272 646 LINE",
"272 618 LINE SMOOTH",
"272 589 OFFCURVE",
"262 573 OFFCURVE",
"227 573 CURVE",
"227 552 LINE",
"267 552 OFFCURVE",
"295 568 OFFCURVE",
"295 631 CURVE SMOOTH",
"295 649 OFFCURVE",
"294 671 OFFCURVE",
"290 700 CURVE"
);
}
);
width = 510.88787;
},
{
anchors = (
{
name = _bottom;
position = "{408, 739}";
}
);
components = (
{
alignment = -1;
name = L;
}
);
hints = (
{
place = "{126, 50}";
type = Stem;
},
{
place = "{341, 152}";
type = Stem;
},
{
place = "{402, 90}";
type = Stem;
},
{
horizontal = 1;
place = "{575, 124}";
type = Stem;
},
{
horizontal = 1;
place = "{426, 21}";
target = up;
type = BottomGhost;
}
);
layerId = "BAF31694-0472-4296-B0EA-1654553C45D2";
paths = (
{
closed = 1;
nodes = (
"338 700 LINE",
"338 575 LINE",
"402 575 LINE",
"402 560 LINE SMOOTH",
"402 515 OFFCURVE",
"384 494 OFFCURVE",
"350 494 CURVE",
"350 426 LINE",
"447 426 OFFCURVE",
"492 490 OFFCURVE",
"492 581 CURVE SMOOTH",
"492 617 OFFCURVE",
"486 658 OFFCURVE",
"472 700 CURVE"
);
}
);
width = 549.73009;
}
);
leftMetricsKey = L;
rightMetricsKey = L;
unicode = 013D;
},
{
glyphname = Lcommaaccent;
lastChange = "2021-08-13 16:01:28 +0000";
layers = (
{
anchors = (
{
name = _commaaccent;
position = "{248, 0}";
}
);
components = (
{
alignment = -1;
name = L;
}
);
hints = (
{
place = "{193, 117}";
type = Stem;
},
{
place = "{197, 113}";
type = Stem;
},
{
place = "{246, 64}";
type = Stem;
},
{
horizontal = 1;
place = "{-143, 96}";
type = Stem;
},
{
horizontal = 1;
place = "{-272, 21}";
target = up;
type = BottomGhost;
}
);
layerId = "0CF0EA28-C756-4A9E-9D7C-CFEF350B4CFE";
paths = (
{
closed = 1;
nodes = (
"193 -47 LINE",
"193 -143 LINE",
"246 -143 LINE",
"246 -165 LINE SMOOTH",
"246 -203.003 OFFCURVE",
"231 -222 OFFCURVE",
"197 -222 CURVE",
"197 -272 LINE",
"272 -272 OFFCURVE",
"310 -230 OFFCURVE",
"310 -146 CURVE SMOOTH",
"310 -117 OFFCURVE",
"306 -84 OFFCURVE",
"296 -47 CURVE"
);
}
);
width = 542.3;
},
{
anchors = (
{
name = _commaaccent;
position = "{231, 0}";
}
);
components = (
{
alignment = -1;
name = L;
}
);
hints = (
{
place = "{230, 24}";
type = Stem;
},
{
horizontal = 1;
place = "{-58, -20}";
target = down;
type = TopGhost;
},
{
horizontal = 1;
place = "{-177, 21}";
target = up;
type = BottomGhost;
}
);
layerId = "6E968933-CD79-43C6-9231-80D77C940F4D";
paths = (
{
closed = 1;
nodes = (
"207 -58 LINE",
"207 -97 LINE",
"238 -97 LINE",
"238 -105 LINE SMOOTH",
"238 -138 OFFCURVE",
"227 -158 OFFCURVE",
"195 -158 CURVE",
"195 -177 LINE",
"232 -177 OFFCURVE",
"261 -162 OFFCURVE",
"261 -91 CURVE SMOOTH",
"261 -81 OFFCURVE",
"260 -68 OFFCURVE",
"259 -58 CURVE"
);
}
);
width = 510.88787;
},
{
anchors = (
{
name = _commaaccent;
position = "{272, 6}";
}
);
components = (
{
alignment = -1;
name = L;
}
);
hints = (
{
place = "{203, 154}";
type = Stem;
},
{
place = "{246, 111}";
type = Stem;
},
{
place = "{-92, 73}";
type = Stem;
},
{
horizontal = 1;
place = "{-164, 125}";
type = Stem;
},
{
horizontal = 1;
place = "{-115, 21}";
target = up;
type = BottomGhost;
}
);
layerId = "BAF31694-0472-4296-B0EA-1654553C45D2";
paths = (
{
closed = 1;
nodes = (
"203 -38 LINE",
"203 -164 LINE",
"267 -164 LINE",
"267 -178 LINE SMOOTH",
"267 -224 OFFCURVE",
"249 -245 OFFCURVE",
"214 -245 CURVE",
"214 -312 LINE",
"312 -312 OFFCURVE",
"357 -248 OFFCURVE",
"357 -158 CURVE SMOOTH",
"357 -121 OFFCURVE",
"351 -81 OFFCURVE",
"336 -38 CURVE"
);
}
);
width = 549.72821;
}
);
leftMetricsKey = L;
rightMetricsKey = L;
unicode = 013B;
},
{
color = 4;
glyphname = Ldot;
lastChange = "2021-08-13 16:01:28 +0000";
layers = (
{
hints = (
{
place = "{85, 114}";
type = Stem;
},
{
place = "{302, 120}";
type = Stem;
},
{
horizontal = 1;
place = "{0, 92}";
type = Stem;
},
{
horizontal = 1;
place = "{317, 120}";
type = Stem;
},
{
horizontal = 1;
place = "{699, -20}";
target = down;
type = TopGhost;
}
);
layerId = "0CF0EA28-C756-4A9E-9D7C-CFEF350B4CFE";
paths = (
{
closed = 1;
nodes = (
"434 0 LINE",
"434 91.993 LINE",
"199 92 LINE",
"199 699 LINE",
"85 699 LINE",
"85 0 LINE"
);
},
{
closed = 1;
nodes = (
"395 317 OFFCURVE",
"422 343 OFFCURVE",
"422 377 CURVE SMOOTH",
"422 410 OFFCURVE",
"395 437 OFFCURVE",
"362 437 CURVE SMOOTH",
"328 437 OFFCURVE",
"302 410 OFFCURVE",
"302 377 CURVE SMOOTH",
"302 343 OFFCURVE",
"328 317 OFFCURVE",
"362 317 CURVE SMOOTH"
);
}
);
width = 462.3;
},
{
hints = (
{
place = "{109, 22}";
type = Stem;
},
{
place = "{305, 61}";
type = Stem;
},
{
horizontal = 1;
place = "{345, 61}";
type = Stem;
},
{
horizontal = 1;
place = "{0, 21}";
target = up;
type = BottomGhost;
},
{
horizontal = 1;
place = "{700, -20}";
target = down;
type = TopGhost;
}
);
layerId = "6E968933-CD79-43C6-9231-80D77C940F4D";
paths = (
{
closed = 1;
nodes = (
"396 0 LINE",
"396 20 LINE",
"127 20 LINE",
"127 700 LINE",
"105 700 LINE",
"105 0 LINE"
);
},
{
closed = 1;
nodes = (
"359 345 OFFCURVE",
"373 360 OFFCURVE",
"373 376 CURVE SMOOTH",
"373 392 OFFCURVE",
"359 406 OFFCURVE",
"342 406 CURVE SMOOTH",
"326 406 OFFCURVE",
"312 392 OFFCURVE",
"312 376 CURVE SMOOTH",
"312 360 OFFCURVE",
"326 345 OFFCURVE",
"342 345 CURVE SMOOTH"
);
}
);
width = 430.88787;
},
{
hints = (
{
place = "{53, 176}";
type = Stem;
},
{
place = "{306, 150}";
type = Stem;
},
{
horizontal = 1;
place = "{0, 136}";
type = Stem;
},
{
horizontal = 1;
place = "{320, 150}";
type = Stem;
},
{
horizontal = 1;
place = "{700, -20}";
target = down;
type = TopGhost;
}
);
layerId = "BAF31694-0472-4296-B0EA-1654553C45D2";
paths = (
{
closed = 1;
nodes = (
"452 0 LINE",
"452 136 LINE",
"230 136 LINE",
"230 700 LINE",
"53 700 LINE",
"53 0 LINE"
);
},
{
closed = 1;
nodes = (
"423 320 OFFCURVE",
"456 352 OFFCURVE",
"456 395 CURVE SMOOTH",
"456 437 OFFCURVE",
"423 470 OFFCURVE",
"380 470 CURVE SMOOTH",
"338 470 OFFCURVE",
"306 437 OFFCURVE",
"306 395 CURVE SMOOTH",
"306 352 OFFCURVE",
"338 320 OFFCURVE",
"380 320 CURVE SMOOTH"
);
}
);
width = 473.73028;
}
);
leftMetricsKey = L;
rightMetricsKey = L;
unicode = 013F;
},
{
glyphname = Lslash;
lastChange = "2021-08-13 16:01:28 +0000";
layers = (
{
hints = (
{
place = "{85, 192}";
type = Stem;
},
{
place = "{162, 115}";
type = Stem;
},
{
place = "{162, 207}";
type = Stem;
},
{
horizontal = 1;
place = "{0, 87}";
type = Stem;
},
{
horizontal = 1;
place = "{699, -20}";
target = down;
type = TopGhost;
}
);
layerId = "0CF0EA28-C756-4A9E-9D7C-CFEF350B4CFE";
paths = (
{
closed = 1;
nodes = (
"85 269 LINE",
"369 362 LINE",
"369 449 LINE",
"85 355 LINE"
);
},
{
closed = 1;
nodes = (
"162 699 LINE",
"162 0 LINE",
"511 0 LINE",
"511 87 LINE",
"277 87 LINE",
"277 699 LINE"
);
}
);
width = 539.3;
},
{
hints = (
{
place = "{196, 21}";
type = Stem;
},
{
horizontal = 1;
place = "{0, 21}";
target = up;
type = BottomGhost;
},
{
horizontal = 1;
place = "{700, -20}";
target = down;
type = TopGhost;
}
);
layerId = "6E968933-CD79-43C6-9231-80D77C940F4D";
paths = (
{
closed = 1;
nodes = (
"105 311 LINE",
"381 440 LINE",
"381 461 LINE",
"105 333 LINE"
);
},
{
closed = 1;
nodes = (
"199 700 LINE",
"199 0 LINE",
"490 0 LINE",
"490 19 LINE",
"221 19 LINE",
"221 700 LINE"
);
}
);
width = 524.89489;
},
{
hints = (
{
place = "{36, 82}";
type = Stem;
},
{
place = "{69, 49}";
type = Stem;
},
{
place = "{118, 216}";
type = Stem;
},
{
horizontal = 1;
place = "{0, 134}";
type = Stem;
},
{
horizontal = 1;
place = "{700, -20}";
target = down;
type = TopGhost;
}
);
layerId = "BAF31694-0472-4296-B0EA-1654553C45D2";
paths = (
{
closed = 1;
nodes = (
"53 251 LINE",
"376 345 LINE",
"376 495 LINE",
"53 400 LINE"
);
},
{
closed = 1;
nodes = (
"118 700 LINE",
"118 0 LINE",
"517 0 LINE",
"517 134 LINE",
"294 134 LINE",
"294 700 LINE"
);
}
);
width = 534.72783;
}
);
leftMetricsKey = L;
rightMetricsKey = L;
unicode = 0141;
},
{
glyphname = M;
lastChange = "2021-08-13 16:01:28 +0000";
layers = (
{
hints = (
{
place = "{85, 114}";
type = Stem;
},
{
place = "{703, 114}";
type = Stem;
},
{
horizontal = 1;
place = "{700, -20}";
target = down;
type = TopGhost;
},
{
horizontal = 1;
place = "{0, 21}";
target = up;
type = BottomGhost;
}
);
layerId = "0CF0EA28-C756-4A9E-9D7C-CFEF350B4CFE";
paths = (
{
closed = 1;
nodes = (
"199 479 LINE",
"412 0 LINE",
"491 0 LINE",
"703 479 LINE",
"703 0 LINE",
"817 0 LINE",
"817 700 LINE",
"695 700 LINE",
"452 150 LINE",
"208 700 LINE",
"85 700 LINE",
"85 0 LINE",
"199 0 LINE"
);
}
);
width = 902;
},
{
hints = (
{
place = "{105, 22}";
type = Stem;
},
{
place = "{712, 22}";
type = Stem;
},
{
horizontal = 1;
place = "{0, 21}";
target = up;
type = BottomGhost;
},
{
horizontal = 1;
place = "{700, -20}";
target = down;
type = TopGhost;
}
);
layerId = "6E968933-CD79-43C6-9231-80D77C940F4D";
paths = (
{
closed = 1;
nodes = (
"127 647 LINE",
"409 0 LINE",
"430 0 LINE",
"712 647 LINE",
"712 0 LINE",
"734 0 LINE",
"734 700 LINE",
"712 700 LINE",
"420 29 LINE",
"127 700 LINE",
"105 700 LINE",
"105 0 LINE",
"127 0 LINE"
);
}
);
width = 838.77298;
},
{
hints = (
{
place = "{53, 176}";
type = Stem;
},
{
place = "{678, 176}";
type = Stem;
},
{
horizontal = 1;
place = "{700, -20}";
target = down;
type = TopGhost;
},
{
horizontal = 1;
place = "{0, 21}";
target = up;
type = BottomGhost;
}
);
layerId = "BAF31694-0472-4296-B0EA-1654553C45D2";
paths = (
{
closed = 1;
nodes = (
"230 404 LINE",
"383 0 LINE",
"525 0 LINE",
"678 404 LINE",
"678 0 LINE",
"854 0 LINE",
"854 700 LINE",
"646 700 LINE",
"455 225 LINE",
"262 700 LINE",
"53 700 LINE",
"53 0 LINE",
"230 0 LINE"
);
}
);
width = 907.24925;
}
);
leftMetricsKey = H;
rightMetricsKey = H;
unicode = 004D;
},
{
glyphname = N;
lastChange = "2021-08-13 16:01:28 +0000";
layers = (
{
anchors = (
{
name = bottom;
position = "{371, 0}";
},
{
name = top;
position = "{371, 701}";
}
);
hints = (
{
place = "{85, 114}";
type = Stem;
},
{
place = "{542, 114}";
type = Stem;
},
{
horizontal = 1;
place = "{700, -20}";
target = down;
type = TopGhost;
},
{
horizontal = 1;
place = "{0, 21}";
target = up;
type = BottomGhost;
}
);
layerId = "0CF0EA28-C756-4A9E-9D7C-CFEF350B4CFE";
paths = (
{
closed = 1;
nodes = (
"542 700 LINE",
"542 179 LINE",
"199 700 LINE",
"85 700 LINE",
"85 0 LINE",
"199 0 LINE",
"199 523 LINE",
"542 0 LINE",
"656 0 LINE",
"656 700 LINE"
);
}
);
width = 741;
},
{
anchors = (
{
name = bottom;
position = "{345, 0}";
},
{
name = top;
position = "{345, 679}";
}
);
hints = (
{
place = "{105, 22}";
type = Stem;
},
{
place = "{562, 22}";
type = Stem;
},
{
horizontal = 1;
place = "{699, -20}";
target = down;
type = TopGhost;
},
{
horizontal = 1;
place = "{0, 21}";
target = up;
type = BottomGhost;
}
);
layerId = "6E968933-CD79-43C6-9231-80D77C940F4D";
paths = (
{
closed = 1;
nodes = (
"562 699 LINE",
"562 40 LINE",
"127 699 LINE",
"105 699 LINE",
"105 0 LINE",
"127 0 LINE",
"127 660 LINE",
"562 0 LINE",
"584 0 LINE",
"584 699 LINE"
);
}
);
width = 688.76894;
},
{
anchors = (
{
name = bottom;
position = "{370, 1}";
},
{
name = top;
position = "{370, 702}";
}
);
hints = (
{
place = "{53, 176}";
type = Stem;
},
{
place = "{510, 176}";
type = Stem;
},
{
horizontal = 1;
place = "{700, -20}";
target = down;
type = TopGhost;
},
{
horizontal = 1;
place = "{0, 21}";
target = up;
type = BottomGhost;
}
);
layerId = "BAF31694-0472-4296-B0EA-1654553C45D2";
paths = (
{
closed = 1;
nodes = (
"510 700 LINE",
"510 273 LINE",
"229 700 LINE",
"53 700 LINE",
"53 0 LINE",
"230 0 LINE",
"230 424 LINE",
"511 0 LINE",
"687 0 LINE",
"687 700 LINE"
);
}
);
width = 740.24906;
}
);
leftMetricsKey = H;
rightMetricsKey = H;
unicode = 004E;
},
{
glyphname = Ncommaaccent;
lastChange = "2021-08-13 16:01:28 +0000";
layers = (
{
anchors = (
{
name = _bottom;
position = "{361, 0}";
}
);
components = (
{
alignment = -1;
name = N;
}
);
hints = (
{
place = "{306, 117}";
type = Stem;
},
{
place = "{311, 112}";
type = Stem;
},
{
place = "{359, 64}";
type = Stem;
},
{
horizontal = 1;
place = "{-143, 96}";
type = Stem;
},
{
horizontal = 1;
place = "{-272, 21}";
target = up;
type = BottomGhost;
}
);
layerId = "0CF0EA28-C756-4A9E-9D7C-CFEF350B4CFE";
paths = (
{
closed = 1;
nodes = (
"306 -47 LINE",
"306 -143 LINE",
"359 -143 LINE",
"359 -165 LINE SMOOTH",
"359 -203.003 OFFCURVE",
"344 -222 OFFCURVE",
"311 -222 CURVE",
"311 -272 LINE",
"385 -272 OFFCURVE",
"423 -230 OFFCURVE",
"423 -146 CURVE SMOOTH",
"423 -117 OFFCURVE",
"419 -84 OFFCURVE",
"409 -47 CURVE"
);
}
);
width = 741;
},
{
anchors = (
{
name = _bottom;
position = "{324, 0}";
}
);
components = (
{
alignment = -1;
name = N;
}
);
hints = (
{
place = "{318, 24}";
type = Stem;
},
{
horizontal = 1;
place = "{-58, -20}";
target = down;
type = TopGhost;
},
{
horizontal = 1;
place = "{-177, 21}";
target = up;
type = BottomGhost;
}
);
layerId = "6E968933-CD79-43C6-9231-80D77C940F4D";
paths = (
{
closed = 1;
nodes = (
"297 -58 LINE",
"297 -97 LINE",
"329 -97 LINE",
"329 -105 LINE SMOOTH",
"329 -138 OFFCURVE",
"318 -158 OFFCURVE",
"286 -158 CURVE",
"286 -177 LINE",
"322 -177 OFFCURVE",
"352 -162 OFFCURVE",
"352 -91 CURVE SMOOTH",
"352 -81 OFFCURVE",
"350 -68 OFFCURVE",
"349 -58 CURVE"
);
}
);
width = 688.76894;
},
{
anchors = (
{
name = _bottom;
position = "{392, 1}";
}
);
components = (
{
alignment = -1;
name = N;
}
);
hints = (
{
place = "{322, 154}";
type = Stem;
},
{
place = "{366, 111}";
type = Stem;
},
{
place = "{-44, 73}";
type = Stem;
},
{
horizontal = 1;
place = "{-164, 125}";
type = Stem;
},
{
horizontal = 1;
place = "{-115, 21}";
target = up;
type = BottomGhost;
}
);
layerId = "BAF31694-0472-4296-B0EA-1654553C45D2";
paths = (
{
closed = 1;
nodes = (
"322 -38 LINE",
"322 -164 LINE",
"386 -164 LINE",
"386 -178 LINE SMOOTH",
"386 -224 OFFCURVE",
"368 -245 OFFCURVE",
"334 -245 CURVE",
"334 -312 LINE",
"431 -312 OFFCURVE",
"477 -248 OFFCURVE",
"477 -158 CURVE SMOOTH",
"477 -121 OFFCURVE",
"470 -81 OFFCURVE",
"455 -38 CURVE"
);
}
);
width = 740.24906;
}
);
leftMetricsKey = H;
rightMetricsKey = H;
unicode = 0145;
},
{
glyphname = O;
lastChange = "2021-08-13 16:01:28 +0000";
layers = (
{
anchors = (
{
name = top;
position = "{397.5, 701}";
}
);
hints = (
{
place = "{42, 117}";
type = Stem;
},
{
place = "{635, 117}";
type = Stem;
},
{
horizontal = 1;
place = "{-7, 99}";
type = Stem;
},
{
horizontal = 1;
place = "{608, 100}";
type = Stem;
}
);
layerId = "0CF0EA28-C756-4A9E-9D7C-CFEF350B4CFE";
paths = (
{
closed = 1;
nodes = (
"595.5 -7 OFFCURVE",
"752.5 141 OFFCURVE",
"752.5 351 CURVE SMOOTH",
"752.5 560 OFFCURVE",
"595.5 708 OFFCURVE",
"397.5 708 CURVE SMOOTH",
"201.5 708 OFFCURVE",
"42.5 560 OFFCURVE",
"42.5 351 CURVE SMOOTH",
"42.5 141 OFFCURVE",
"201.5 -7 OFFCURVE",
"397.5 -7 CURVE SMOOTH"
);
},
{
closed = 1;
nodes = (
"259.5 92 OFFCURVE",
"159.5 193 OFFCURVE",
"159.5 351 CURVE SMOOTH",
"159.5 510 OFFCURVE",
"259.5 608 OFFCURVE",
"397.5 608 CURVE SMOOTH",
"535.5 608 OFFCURVE",
"635.5 510 OFFCURVE",
"635.5 351 CURVE SMOOTH",
"635.5 193 OFFCURVE",
"535.5 92 OFFCURVE",
"397.5 92 CURVE SMOOTH"
);
}
);
width = 795;
},
{
anchors = (
{
name = top;
position = "{399.5, 679}";
}
);
hints = (
{
place = "{51, 23}";
type = Stem;
},
{
place = "{701, 23}";
type = Stem;
},
{
horizontal = 1;
place = "{691, -20}";
target = down;
type = TopGhost;
},
{
horizontal = 1;
place = "{-8, 21}";
target = up;
type = BottomGhost;
}
);
layerId = "6E968933-CD79-43C6-9231-80D77C940F4D";
paths = (
{
closed = 1;
nodes = (
"585.5 -8 OFFCURVE",
"725.5 139 OFFCURVE",
"725.5 349 CURVE",
"725.5 559 OFFCURVE",
"585.5 706 OFFCURVE",
"389.5 706 CURVE",
"193.5 706 OFFCURVE",
"52.5 559 OFFCURVE",
"52.5 349 CURVE",
"52.5 139 OFFCURVE",
"193.5 -8 OFFCURVE",
"389.5 -8 CURVE"
);
},
{
closed = 1;
nodes = (
"214.5 12 OFFCURVE",
"75.5 139 OFFCURVE",
"75.5 349 CURVE",
"75.5 559 OFFCURVE",
"214.5 686 OFFCURVE",
"389.5 686 CURVE",
"563.5 686 OFFCURVE",
"702.5 559 OFFCURVE",
"702.5 349 CURVE",
"702.5 139 OFFCURVE",
"563.5 12 OFFCURVE",
"389.5 12 CURVE"
);
}
);
width = 777.88298;
},
{
anchors = (
{
name = top;
position = "{386.5, 702}";
}
);
hints = (
{
place = "{26, 180}";
type = Stem;
},
{
place = "{568, 179}";
type = Stem;
},
{
horizontal = 1;
place = "{-7, 161}";
type = Stem;
},
{
horizontal = 1;
place = "{550, 160}";
type = Stem;
}
);
layerId = "BAF31694-0472-4296-B0EA-1654553C45D2";
paths = (
{
closed = 1;
nodes = (
"586.5 -7 OFFCURVE",
"746.5 142 OFFCURVE",
"746.5 352 CURVE SMOOTH",
"746.5 562 OFFCURVE",
"587.5 710 OFFCURVE",
"386.5 710 CURVE SMOOTH",
"188.5 710 OFFCURVE",
"26.5 562 OFFCURVE",
"26.5 352 CURVE SMOOTH",
"26.5 142 OFFCURVE",
"188.5 -7 OFFCURVE",
"386.5 -7 CURVE SMOOTH"
);
},
{
closed = 1;
nodes = (
"275.5 154 OFFCURVE",
"205.5 232 OFFCURVE",
"205.5 352 CURVE SMOOTH",
"205.5 473 OFFCURVE",
"275.5 550 OFFCURVE",
"386.5 550 CURVE SMOOTH",
"496.5 550 OFFCURVE",
"567.5 473 OFFCURVE",
"567.5 352 CURVE SMOOTH",
"567.5 232 OFFCURVE",
"496.5 154 OFFCURVE",
"386.5 154 CURVE SMOOTH"
);
}
);
width = 773.12255;
}
);
leftMetricsKey = "=H*0.5";
rightMetricsKey = "=H*0.5";
unicode = 004F;
},
{
glyphname = Oslash;
lastChange = "2021-08-13 16:06:47 +0000";
layers = (
{
components = (
{
alignment = -1;
name = O;
}
);
layerId = "0CF0EA28-C756-4A9E-9D7C-CFEF350B4CFE";
paths = (
{
closed = 1;
nodes = (
"150 156 LINE",
"241 109 LINE",
"654 561 LINE",
"563 608 LINE"
);
}
);
width = 795;
},
{
components = (
{
alignment = -1;
name = O;
}
);
layerId = "6E968933-CD79-43C6-9231-80D77C940F4D";
paths = (
{
closed = 1;
nodes = (
"148 104 LINE",
"164.285 92.65 LINE",
"628.921 595.504 LINE",
"614.505 608.987 LINE"
);
}
);
width = 777.88298;
},
{
components = (
{
alignment = -1;
name = O;
}
);
layerId = "BAF31694-0472-4296-B0EA-1654553C45D2";
paths = (
{
closed = 1;
nodes = (
"151 170 LINE",
"257 116 LINE",
"653 551 LINE",
"547 606 LINE"
);
}
);
width = 773.11755;
}
);
leftMetricsKey = O;
rightMetricsKey = O;
unicode = 00D8;
},
{
glyphname = OE;
lastChange = "2021-08-13 16:01:28 +0000";
layers = (
{
hints = (
{
place = "{42, 117}";
type = Stem;
},
{
place = "{635, 114}";
type = Stem;
},
{
horizontal = 1;
place = "{-7, 103}";
type = Stem;
},
{
horizontal = 1;
place = "{0, 89}";
type = Stem;
},
{
horizontal = 1;
place = "{309, 88}";
type = Stem;
},
{
horizontal = 1;
place = "{604, 104}";
type = Stem;
},
{
horizontal = 1;
place = "{611, 89}";
type = Stem;
}
);
layerId = "0CF0EA28-C756-4A9E-9D7C-CFEF350B4CFE";
paths = (
{
closed = 1;
nodes = (
"1019.5 611 LINE",
"1019.5 700 LINE",
"635.5 700 LINE",
"635.5 593 LINE",
"577.5 669 OFFCURVE",
"492.5 708 OFFCURVE",
"387.5 708 CURVE SMOOTH",
"202.5 708 OFFCURVE",
"42.5 562 OFFCURVE",
"42.5 351 CURVE SMOOTH",
"42.5 141 OFFCURVE",
"201.5 -7 OFFCURVE",
"388.5 -7 CURVE SMOOTH",
"492.5 -7 OFFCURVE",
"577.5 32 OFFCURVE",
"635.5 111 CURVE",
"635.5 0 LINE",
"1019.5 0 LINE",
"1019.5 89 LINE",
"749.5 89 LINE",
"749.5 309 LINE",
"989.5 309 LINE",
"989.5 397 LINE",
"749.5 398 LINE",
"749.5 611 LINE"
);
},
{
closed = 1;
nodes = (
"159.5 505 OFFCURVE",
"259.5 604 OFFCURVE",
"397.5 604 CURVE SMOOTH",
"535.5 604 OFFCURVE",
"635.5 505 OFFCURVE",
"635.5 351 CURVE SMOOTH",
"635.5 197 OFFCURVE",
"535.5 96 OFFCURVE",
"397.5 96 CURVE SMOOTH",
"259.5 96 OFFCURVE",
"159.5 197 OFFCURVE",
"159.5 351 CURVE SMOOTH"
);
}
);
width = 1084.5;
},
{
hints = (
{
place = "{64, 23}";
type = Stem;
},
{
place = "{701, 22}";
type = Stem;
},
{
horizontal = 1;
place = "{691, -20}";
target = down;
type = TopGhost;
},
{
horizontal = 1;
place = "{-8, 21}";
target = up;
type = BottomGhost;
}
);
layerId = "6E968933-CD79-43C6-9231-80D77C940F4D";
paths = (
{
closed = 1;
nodes = (
"1048.5 681 LINE",
"1048.5 700 LINE",
"703.5 700 LINE",
"703.5 462 LINE",
"670.5 610 OFFCURVE",
"542.5 706 OFFCURVE",
"388.5 706 CURVE",
"193.5 706 OFFCURVE",
"52.5 559 OFFCURVE",
"52.5 349 CURVE",
"52.5 139 OFFCURVE",
"193.5 -8 OFFCURVE",
"389.5 -8 CURVE",
"542.5 -8 OFFCURVE",
"670.5 88 OFFCURVE",
"703.5 236 CURVE",
"703.5 0 LINE",
"1048.5 0 LINE",
"1048.5 19 LINE",
"725.5 19 LINE",
"725.5 340 LINE",
"1018.5 340 LINE",
"1018.5 360 LINE",
"725.5 360 LINE",
"725.5 681 LINE"
);
},
{
closed = 1;
nodes = (
"75.5 559 OFFCURVE",
"214.5 686 OFFCURVE",
"389.5 686 CURVE",
"563.5 686 OFFCURVE",
"702.5 559 OFFCURVE",
"702.5 349 CURVE",
"702.5 140 OFFCURVE",
"563.5 12 OFFCURVE",
"389.5 12 CURVE",
"214.5 12 OFFCURVE",
"75.5 140 OFFCURVE",
"75.5 349 CURVE"
);
}
);
width = 1133.26745;
},
{
hints = (
{
place = "{26, 180}";
type = Stem;
},
{
place = "{568, 182}";
type = Stem;
},
{
horizontal = 1;
place = "{-10, 162}";
type = Stem;
},
{
horizontal = 1;
place = "{0, 140}";
type = Stem;
},
{
horizontal = 1;
place = "{288, 133}";
type = Stem;
},
{
horizontal = 1;
place = "{548, 162}";
type = Stem;
},
{
horizontal = 1;
place = "{561, 139}";
type = Stem;
}
);
layerId = "BAF31694-0472-4296-B0EA-1654553C45D2";
paths = (
{
closed = 1;
nodes = (
"1007.5 561 LINE",
"1007.5 700 LINE",
"573.5 700 LINE",
"573.5 633 LINE",
"523.5 684 OFFCURVE",
"450.5 710 OFFCURVE",
"372.5 710 CURVE SMOOTH",
"178.5 710 OFFCURVE",
"26.5 562 OFFCURVE",
"26.5 351 CURVE SMOOTH",
"26.5 139 OFFCURVE",
"177.5 -10 OFFCURVE",
"373.5 -10 CURVE SMOOTH",
"450.5 -8 OFFCURVE",
"523.5 16 OFFCURVE",
"573.5 68 CURVE",
"573.5 0 LINE",
"1007.5 0 LINE",
"1007.5 140 LINE",
"749.5 140 LINE",
"749.5 288 LINE",
"977.5 288 LINE",
"977.5 422 LINE",
"749.5 422 LINE",
"749.5 561 LINE"
);
},
{
closed = 1;
nodes = (
"205.5 471 OFFCURVE",
"275.5 548 OFFCURVE",
"386.5 548 CURVE SMOOTH",
"496.5 548 OFFCURVE",
"567.5 471 OFFCURVE",
"567.5 351 CURVE SMOOTH",
"567.5 230 OFFCURVE",
"496.5 152 OFFCURVE",
"386.5 152 CURVE SMOOTH",
"275.5 152 OFFCURVE",
"205.5 230 OFFCURVE",
"205.5 351 CURVE SMOOTH"
);
}
);
width = 1040.74736;
}
);
leftMetricsKey = O;
rightMetricsKey = E;
unicode = 0152;
},
{
glyphname = P;
lastChange = "2021-08-13 16:01:28 +0000";
layers = (
{
hints = (
{
place = "{85, 114}";
type = Stem;
},
{
place = "{484, 117}";
type = Stem;
},
{
horizontal = 1;
place = "{284, 93}";
type = Stem;
},
{
horizontal = 1;
place = "{607, 93}";
type = Stem;
},
{
horizontal = 1;
place = "{0, 21}";
target = up;
type = BottomGhost;
}
);
layerId = "0CF0EA28-C756-4A9E-9D7C-CFEF350B4CFE";
paths = (
{
closed = 1;
nodes = (
"199 377 LINE",
"199 607 LINE",
"355 607 LINE SMOOTH",
"444 607 OFFCURVE",
"484 564 OFFCURVE",
"484 491 CURVE SMOOTH",
"484 420 OFFCURVE",
"444 377 OFFCURVE",
"355 377 CURVE SMOOTH"
);
},
{
closed = 1;
nodes = (
"601 605 OFFCURVE",
"520 700 OFFCURVE",
"355 700 CURVE SMOOTH",
"85 700 LINE",
"85 0 LINE",
"199 0 LINE",
"199 284 LINE",
"355 284 LINE SMOOTH",
"536 284 OFFCURVE",
"601 392 OFFCURVE",
"601 491 CURVE SMOOTH"
);
}
);
width = 643.5;
},
{
hints = (
{
place = "{105, 22}";
type = Stem;
},
{
place = "{517, 22}";
type = Stem;
},
{
horizontal = 1;
place = "{314, 23}";
type = Stem;
},
{
horizontal = 1;
place = "{677, 23}";
type = Stem;
},
{
horizontal = 1;
place = "{0, 21}";
target = up;
type = BottomGhost;
}
);
layerId = "6E968933-CD79-43C6-9231-80D77C940F4D";
paths = (
{
closed = 1;
nodes = (
"127 337 LINE",
"127 678 LINE",
"314 678 LINE",
"464 678 OFFCURVE",
"517 614 OFFCURVE",
"517 506 CURVE SMOOTH",
"517 404 OFFCURVE",
"464 337 OFFCURVE",
"314 337 CURVE SMOOTH"
);
},
{
closed = 1;
nodes = (
"539 622 OFFCURVE",
"474 700 OFFCURVE",
"314 700 CURVE SMOOTH",
"105 700 LINE",
"105 0 LINE",
"127 0 LINE",
"127 315 LINE",
"314 315 LINE SMOOTH",
"461 315 OFFCURVE",
"539 378 OFFCURVE",
"539 506 CURVE SMOOTH"
);
}
);
width = 591.38266;
},
{
hints = (
{
place = "{53, 176}";
type = Stem;
},
{
place = "{444, 179}";
type = Stem;
},
{
horizontal = 1;
place = "{248, 140}";
type = Stem;
},
{
horizontal = 1;
place = "{558, 142}";
type = Stem;
},
{
horizontal = 1;
place = "{0, 21}";
target = up;
type = BottomGhost;
}
);
layerId = "BAF31694-0472-4296-B0EA-1654553C45D2";
paths = (
{
closed = 1;
nodes = (
"230 388 LINE",
"230 558 LINE",
"349 558 LINE SMOOTH",
"416 558 OFFCURVE",
"444 525 OFFCURVE",
"444 473 CURVE SMOOTH",
"444 421 OFFCURVE",
"416 388 OFFCURVE",
"349 388 CURVE SMOOTH"
);
},
{
closed = 1;
nodes = (
"623 603 OFFCURVE",
"536 700 OFFCURVE",
"364 700 CURVE SMOOTH",
"53 700 LINE",
"53 0 LINE",
"230 0 LINE",
"230 248 LINE",
"364 248 LINE SMOOTH",
"543 248 OFFCURVE",
"623 356 OFFCURVE",
"623 473 CURVE SMOOTH"
);
}
);
width = 649.62745;
}
);
leftMetricsKey = H;
rightMetricsKey = "=H*0.5";
unicode = 0050;
},
{
glyphname = Thorn;
lastChange = "2021-08-13 16:01:28 +0000";
layers = (
{
hints = (
{
place = "{85, 114}";
type = Stem;
},
{
place = "{454, 117}";
type = Stem;
},
{
horizontal = 1;
place = "{143, 89}";
type = Stem;
},
{
horizontal = 1;
place = "{469, 89}";
type = Stem;
},
{
horizontal = 1;
place = "{0, 21}";
target = up;
type = BottomGhost;
},
{
horizontal = 1;
place = "{700, -20}";
target = down;
type = TopGhost;
}
);
layerId = "0CF0EA28-C756-4A9E-9D7C-CFEF350B4CFE";
paths = (
{
closed = 1;
nodes = (
"199 232 LINE",
"199 469 LINE",
"325 469 LINE SMOOTH",
"414 469 OFFCURVE",
"454 422 OFFCURVE",
"454 350 CURVE SMOOTH",
"454 279 OFFCURVE",
"414 232 OFFCURVE",
"325 231.992 CURVE SMOOTH"
);
},
{
closed = 1;
nodes = (
"571 464 OFFCURVE",
"490 558 OFFCURVE",
"325 558 CURVE SMOOTH",
"198 558 LINE",
"198 700 LINE",
"85 700 LINE",
"85 0 LINE",
"199 0 LINE",
"199 143 LINE",
"325 143 LINE SMOOTH",
"506 143 OFFCURVE",
"571 251 OFFCURVE",
"571 350 CURVE SMOOTH"
);
}
);
width = 613.5;
},
{
hints = (
{
place = "{105, 22}";
type = Stem;
},
{
place = "{487, 22}";
type = Stem;
},
{
horizontal = 1;
place = "{158, 22}";
type = Stem;
},
{
horizontal = 1;
place = "{522, 21}";
type = Stem;
},
{
horizontal = 1;
place = "{700, -20}";
target = down;
type = TopGhost;
},
{
horizontal = 1;
place = "{0, 21}";
target = up;
type = BottomGhost;
}
);
layerId = "6E968933-CD79-43C6-9231-80D77C940F4D";
paths = (
{
closed = 1;
nodes = (
"127 180 LINE",
"127 522 LINE",
"284 522 LINE SMOOTH",
"434 522 OFFCURVE",
"487 458 OFFCURVE",
"487 350 CURVE SMOOTH",
"487 247 OFFCURVE",
"434 180 OFFCURVE",
"284 180 CURVE SMOOTH"
);
},
{
closed = 1;
nodes = (
"509 466 OFFCURVE",
"444 543 OFFCURVE",
"284 543 CURVE SMOOTH",
"127 543 LINE",
"127 700 LINE",
"105 700 LINE",
"105 0 LINE",
"127 0 LINE",
"127 158 LINE",
"284 158 LINE SMOOTH",
"431 158 OFFCURVE",
"509 221 OFFCURVE",
"509 350 CURVE SMOOTH"
);
}
);
width = 561.38766;
},
{
hints = (
{
place = "{53, 176}";
type = Stem;
},
{
place = "{414, 179}";
type = Stem;
},
{
horizontal = 1;
place = "{131, 133}";
type = Stem;
},
{
horizontal = 1;
place = "{437, 134}";
type = Stem;
},
{
horizontal = 1;
place = "{0, 21}";
target = up;
type = BottomGhost;
},
{
horizontal = 1;
place = "{700, -20}";
target = down;
type = TopGhost;
}
);
layerId = "BAF31694-0472-4296-B0EA-1654553C45D2";
paths = (
{
closed = 1;
nodes = (
"230 265 LINE",
"230 437 LINE",
"319 437 LINE SMOOTH",
"386 437 OFFCURVE",
"414 403 OFFCURVE",
"414 351 CURVE SMOOTH",
"414 299 OFFCURVE",
"386 264 OFFCURVE",
"319 264 CURVE SMOOTH"
);
},
{
closed = 1;
nodes = (
"593 477 OFFCURVE",
"506 572 OFFCURVE",
"334 572 CURVE SMOOTH",
"228 572 LINE",
"228 700 LINE",
"53 700 LINE",
"53 0 LINE",
"230 0 LINE",
"230 132 LINE",
"334 132 LINE SMOOTH",
"513 132 OFFCURVE",
"593 237 OFFCURVE",
"593 351 CURVE SMOOTH"
);
}
);
width = 619.63245;
}
);
leftMetricsKey = H;
rightMetricsKey = D;
unicode = 00DE;
},
{
glyphname = Q;
lastChange = "2021-08-13 16:01:28 +0000";
layers = (
{
components = (
{
alignment = -1;
name = O;
}
);
hints = (
{
place = "{383, 114}";
type = Stem;
},
{
horizontal = 1;
place = "{-100, 21}";
target = up;
type = BottomGhost;
},
{
horizontal = 1;
place = "{200, -20}";
target = down;
type = TopGhost;
}
);
layerId = "0CF0EA28-C756-4A9E-9D7C-CFEF350B4CFE";
paths = (
{
closed = 1;
nodes = (
"344 -100 LINE",
"458 -100 LINE",
"458 200 LINE",
"344 200 LINE"
);
}
);
width = 795;
},
{
components = (
{
alignment = -1;
name = O;
}
);
hints = (
{
place = "{386, 22}";
type = Stem;
},
{
horizontal = 1;
place = "{-100, 21}";
target = up;
type = BottomGhost;
},
{
horizontal = 1;
place = "{102, -20}";
target = down;
type = TopGhost;
}
);
layerId = "6E968933-CD79-43C6-9231-80D77C940F4D";
paths = (
{
closed = 1;
nodes = (
"385 -100 LINE",
"407 -100 LINE",
"407 102 LINE",
"385 102 LINE"
);
}
);
width = 777.88298;
},
{
components = (
{
alignment = -1;
name = O;
}
);
hints = (
{
place = "{348, 131}";
type = Stem;
},
{
horizontal = 1;
place = "{-85, 21}";
target = up;
type = BottomGhost;
},
{
horizontal = 1;
place = "{238, -20}";
target = down;
type = TopGhost;
}
);
layerId = "BAF31694-0472-4296-B0EA-1654553C45D2";
paths = (
{
closed = 1;
nodes = (
"323 -85 LINE",
"455 -85 LINE",
"455 238 LINE",
"323 238 LINE"
);
}
);
width = 773.11755;
}
);
leftMetricsKey = O;
rightMetricsKey = O;
unicode = 0051;
},
{
glyphname = R;
lastChange = "2021-08-13 16:01:28 +0000";
layers = (
{
anchors = (
{
name = bottom;
position = "{356, 0}";
},
{
name = top;
position = "{326, 701}";
}
);
hints = (
{
place = "{85, 114}";
type = Stem;
},
{
place = "{484, 117}";
type = Stem;
},
{
horizontal = 1;
place = "{280, 91}";
type = Stem;
},
{
horizontal = 1;
place = "{607, 93}";
type = Stem;
},
{
horizontal = 1;
place = "{0, 21}";
target = up;
type = BottomGhost;
}
);
layerId = "0CF0EA28-C756-4A9E-9D7C-CFEF350B4CFE";
paths = (
{
closed = 1;
nodes = (
"484 420 OFFCURVE",
"444 371 OFFCURVE",
"355 371 CURVE SMOOTH",
"199 371 LINE",
"199 607 LINE",
"355 607 LINE SMOOTH",
"444 607 OFFCURVE",
"484 561 OFFCURVE",
"484 490 CURVE SMOOTH"
);
},
{
closed = 1;
nodes = (
"85 700 LINE",
"85 0 LINE",
"199 0 LINE",
"199 279.999 LINE",
"355 279.999 LINE SMOOTH",
"536 279.999 OFFCURVE",
"601 391 OFFCURVE",
"601 490 CURVE SMOOTH",
"601 604 OFFCURVE",
"520 700 OFFCURVE",
"355 700 CURVE SMOOTH"
);
},
{
closed = 1;
nodes = (
"295 317 LINE",
"476 0 LINE",
"612 0 LINE",
"424 317 LINE"
);
}
);
width = 654.5;
},
{
anchors = (
{
name = bottom;
position = "{346, 0}";
},
{
name = top;
position = "{297, 679}";
}
);
hints = (
{
place = "{113, 22}";
type = Stem;
},
{
place = "{514, 22}";
type = Stem;
},
{
horizontal = 1;
place = "{678, 22}";
type = Stem;
},
{
horizontal = 1;
place = "{0, 21}";
target = up;
type = BottomGhost;
}
);
layerId = "6E968933-CD79-43C6-9231-80D77C940F4D";
paths = (
{
closed = 1;
nodes = (
"518 401 OFFCURVE",
"457 325 OFFCURVE",
"314 325 CURVE SMOOTH",
"127 325 LINE",
"127 679 LINE",
"312 679 LINE SMOOTH",
"462 679 OFFCURVE",
"518 610 OFFCURVE",
"518 503 CURVE SMOOTH"
);
},
{
closed = 1;
nodes = (
"105 700 LINE",
"105 0 LINE",
"127 0 LINE",
"127 305 LINE",
"314 305 LINE SMOOTH",
"461 305 OFFCURVE",
"541 377 OFFCURVE",
"541 503 CURVE SMOOTH",
"541 619 OFFCURVE",
"472 700 OFFCURVE",
"312 700 CURVE SMOOTH"
);
},
{
closed = 1;
nodes = (
"326 313 LINE",
"519 0 LINE",
"546 0 LINE",
"353 313 LINE"
);
}
);
width = 598.38138;
},
{
anchors = (
{
name = bottom;
position = "{344, 1}";
},
{
name = top;
position = "{331, 702}";
}
);
hints = (
{
place = "{36, 48}";
type = Stem;
},
{
place = "{223, 177}";
type = Stem;
},
{
horizontal = 1;
place = "{369, 168}";
type = Stem;
},
{
horizontal = 1;
place = "{553, 147}";
type = Stem;
},
{
horizontal = 1;
place = "{0, 21}";
target = up;
type = BottomGhost;
}
);
layerId = "BAF31694-0472-4296-B0EA-1654553C45D2";
paths = (
{
closed = 1;
nodes = (
"455 418 OFFCURVE",
"426 387 OFFCURVE",
"364 387 CURVE SMOOTH",
"230 387 LINE",
"230 554 LINE",
"364 554 LINE SMOOTH",
"426 554 OFFCURVE",
"455 521 OFFCURVE",
"455 471 CURVE SMOOTH"
);
},
{
closed = 1;
nodes = (
"53 700 LINE",
"53 0 LINE",
"230 0 LINE",
"230 263 LINE",
"375 263 LINE SMOOTH",
"554 263 OFFCURVE",
"634 366 OFFCURVE",
"634 479 CURVE SMOOTH",
"634 601 OFFCURVE",
"548 700 OFFCURVE",
"375 700 CURVE SMOOTH"
);
},
{
closed = 1;
nodes = (
"275 303 LINE",
"442 0 LINE",
"640 0 LINE",
"463 303 LINE"
);
}
);
width = 666.6266;
}
);
leftMetricsKey = H;
rightMetricsKey = "=H/2";
unicode = 0052;
},
{
glyphname = Rcommaaccent;
lastChange = "2021-08-13 16:01:28 +0000";
layers = (
{
anchors = (
{
name = _bottom;
position = "{356, 0}";
}
);
components = (
{
alignment = -1;
name = R;
}
);
hints = (
{
place = "{302, 116}";
type = Stem;
},
{
place = "{306, 112}";
type = Stem;
},
{
place = "{354, 64}";
type = Stem;
},
{
horizontal = 1;
place = "{-143, 96}";
type = Stem;
},
{
horizontal = 1;
place = "{-272, 21}";
target = up;
type = BottomGhost;
}
);
layerId = "0CF0EA28-C756-4A9E-9D7C-CFEF350B4CFE";
paths = (
{
closed = 1;
nodes = (
"302 -47 LINE",
"302 -143 LINE",
"354 -143 LINE",
"354 -165 LINE SMOOTH",
"354 -203.003 OFFCURVE",
"339 -222 OFFCURVE",
"306 -222 CURVE",
"306 -272 LINE",
"380 -272 OFFCURVE",
"418 -230 OFFCURVE",
"418 -146 CURVE SMOOTH",
"418 -117 OFFCURVE",
"414 -84 OFFCURVE",
"405 -47 CURVE"
);
}
);
width = 654.5;
},
{
anchors = (
{
name = _bottom;
position = "{313, 0}";
}
);
components = (
{
alignment = -1;
name = R;
}
);
hints = (
{
place = "{308, 24}";
type = Stem;
},
{
horizontal = 1;
place = "{-58, -20}";
target = down;
type = TopGhost;
},
{
horizontal = 1;
place = "{-177, 21}";
target = up;
type = BottomGhost;
}
);
layerId = "6E968933-CD79-43C6-9231-80D77C940F4D";
paths = (
{
closed = 1;
nodes = (
"287 -58 LINE",
"287 -97 LINE",
"319 -97 LINE",
"319 -105 LINE SMOOTH",
"319 -138 OFFCURVE",
"308 -158 OFFCURVE",
"276 -158 CURVE",
"276 -177 LINE",
"312 -177 OFFCURVE",
"342 -162 OFFCURVE",
"342 -91 CURVE SMOOTH",
"342 -81 OFFCURVE",
"341 -68 OFFCURVE",
"339 -58 CURVE"
);
}
);
width = 598.37638;
},
{
anchors = (
{
name = _bottom;
position = "{358, 1}";
}
);
components = (
{
alignment = -1;
name = R;
}
);
hints = (
{
place = "{289, 154}";
type = Stem;
},
{
place = "{332, 111}";
type = Stem;
},
{
place = "{-46, 73}";
type = Stem;
},
{
horizontal = 1;
place = "{-164, 125}";
type = Stem;
},
{
horizontal = 1;
place = "{-115, 21}";
target = up;
type = BottomGhost;
}
);
layerId = "BAF31694-0472-4296-B0EA-1654553C45D2";
paths = (
{
closed = 1;
nodes = (
"289 -38 LINE",
"289 -164 LINE",
"353 -164 LINE",
"353 -178 LINE SMOOTH",
"353 -224 OFFCURVE",
"335 -245 OFFCURVE",
"301 -245 CURVE",
"301 -312 LINE",
"398 -312 OFFCURVE",
"443 -248 OFFCURVE",
"443 -158 CURVE SMOOTH",
"443 -121 OFFCURVE",
"437 -81 OFFCURVE",
"423 -38 CURVE"
);
}
);
width = 666.6316;
}
);
leftMetricsKey = R;
rightMetricsKey = R;
unicode = 0156;
},
{
glyphname = S;
lastChange = "2021-08-13 16:01:28 +0000";
layers = (
{
anchors = (
{
name = bottom;
position = "{303, -7}";
},
{
name = top;
position = "{298, 709}";
}
);
hints = (
{
place = "{59, 116}";
type = Stem;
},
{
place = "{428, 115}";
type = Stem;
},
{
horizontal = 1;
place = "{-7, 97}";
type = Stem;
},
{
horizontal = 1;
place = "{611, 98}";
type = Stem;
}
);
layerId = "0CF0EA28-C756-4A9E-9D7C-CFEF350B4CFE";
paths = (
{
closed = 1;
nodes = (
"51 150 LINE",
"78 52 OFFCURVE",
"180 -7 OFFCURVE",
"303 -7 CURVE SMOOTH",
"458 -7 OFFCURVE",
"543 93 OFFCURVE",
"543 198 CURVE SMOOTH",
"543 454 OFFCURVE",
"175 355 OFFCURVE",
"175 513 CURVE SMOOTH",
"175 581 OFFCURVE",
"226 613 OFFCURVE",
"292 611 CURVE SMOOTH",
"358 609 OFFCURVE",
"406 572 OFFCURVE",
"419 528 CURVE",
"530 569 LINE",
"499 658 OFFCURVE",
"412 709 OFFCURVE",
"298 709 CURVE SMOOTH",
"156 709 OFFCURVE",
"59 632 OFFCURVE",
"59 509 CURVE SMOOTH",
"59 251 OFFCURVE",
"428 361 OFFCURVE",
"428 192 CURVE SMOOTH",
"428 133 OFFCURVE",
"383 89 OFFCURVE",
"303 89 CURVE SMOOTH",
"224 89 OFFCURVE",
"176 135 OFFCURVE",
"165 192 CURVE"
);
}
);
width = 594;
},
{
anchors = (
{
name = bottom;
position = "{277, 0}";
},
{
name = top;
position = "{277, 680}";
}
);
hints = (
{
place = "{73, 22}";
type = Stem;
},
{
place = "{479, 22}";
type = Stem;
},
{
horizontal = 1;
place = "{-7, 21}";
target = up;
type = BottomGhost;
},
{
horizontal = 1;
place = "{692, -20}";
target = down;
type = TopGhost;
}
);
layerId = "6E968933-CD79-43C6-9231-80D77C940F4D";
paths = (
{
closed = 1;
nodes = (
"63 139 LINE",
"86 61 OFFCURVE",
"160 -7 OFFCURVE",
"287 -7 CURVE SMOOTH",
"428 -7 OFFCURVE",
"496 85 OFFCURVE",
"496 170 CURVE SMOOTH",
"496 435 OFFCURVE",
"96 283 OFFCURVE",
"96 533 CURVE SMOOTH",
"96 628 OFFCURVE",
"181 687 OFFCURVE",
"281 687 CURVE SMOOTH",
"395 687 OFFCURVE",
"447 621 OFFCURVE",
"464 571 CURVE",
"484 579 LINE",
"462 642 OFFCURVE",
"401 707 OFFCURVE",
"281 707 CURVE SMOOTH",
"154 707 OFFCURVE",
"74 625 OFFCURVE",
"74 532 CURVE SMOOTH",
"74 263 OFFCURVE",
"474 415 OFFCURVE",
"474 170 CURVE SMOOTH",
"474 84 OFFCURVE",
"403 13 OFFCURVE",
"287 13 CURVE SMOOTH",
"153 13 OFFCURVE",
"102 89 OFFCURVE",
"84 147 CURVE"
);
}
);
width = 558.86626;
},
{
anchors = (
{
name = bottom;
position = "{303.8, -2}";
},
{
name = top;
position = "{301.8, 705}";
}
);
hints = (
{
place = "{38, 179}";
type = Stem;
},
{
place = "{389, 181}";
type = Stem;
},
{
horizontal = 1;
place = "{-6, 138}";
type = Stem;
},
{
horizontal = 1;
place = "{571, 138}";
type = Stem;
}
);
layerId = "BAF31694-0472-4296-B0EA-1654553C45D2";
paths = (
{
closed = 1;
nodes = (
"31.8 172 LINE",
"61.8 53 OFFCURVE",
"175.8 -6 OFFCURVE",
"311.8 -6 CURVE SMOOTH",
"475.8 -6 OFFCURVE",
"569.8 83 OFFCURVE",
"569.8 202 CURVE SMOOTH",
"569.8 434 OFFCURVE",
"216.8 391 OFFCURVE",
"216.8 508 CURVE SMOOTH",
"216.8 551 OFFCURVE",
"251.8 573 OFFCURVE",
"293.8 571 CURVE SMOOTH",
"335.8 570 OFFCURVE",
"370.8 543 OFFCURVE",
"377.8 505 CURVE",
"553.8 544 LINE",
"525.8 652 OFFCURVE",
"432.8 710 OFFCURVE",
"294.8 710 CURVE SMOOTH",
"147.8 710 OFFCURVE",
"37.8 635 OFFCURVE",
"37.8 503 CURVE SMOOTH",
"34.8 256 OFFCURVE",
"388.8 324 OFFCURVE",
"388.8 197 CURVE SMOOTH",
"388.8 156 OFFCURVE",
"354.8 132 OFFCURVE",
"307.8 132 CURVE SMOOTH",
"262.8 132 OFFCURVE",
"223.8 158 OFFCURVE",
"212.8 213 CURVE"
);
}
);
width = 601.75208;
}
);
leftMetricsKey = "=H*0.6";
rightMetricsKey = "=H*0.6";
unicode = 0053;
},
{
glyphname = Scommaaccent;
lastChange = "2021-08-13 16:01:28 +0000";
layers = (
{
anchors = (
{
name = _bottom;
position = "{295, 0}";
}
);
components = (
{
alignment = -1;
name = S;
}
);
hints = (
{
place = "{240, 117}";
type = Stem;
},
{
place = "{244, 113}";
type = Stem;
},
{
place = "{293, 64}";
type = Stem;
},
{
horizontal = 1;
place = "{-143, 96}";
type = Stem;
},
{
horizontal = 1;
place = "{-272, 21}";
target = up;
type = BottomGhost;
}
);
layerId = "0CF0EA28-C756-4A9E-9D7C-CFEF350B4CFE";
paths = (
{
closed = 1;
nodes = (
"240 -47 LINE",
"240 -143 LINE",
"293 -143 LINE",
"293 -165 LINE SMOOTH",
"293 -203 OFFCURVE",
"278 -222 OFFCURVE",
"244 -222 CURVE",
"244 -272 LINE",
"319 -272 OFFCURVE",
"357 -230 OFFCURVE",
"357 -146 CURVE SMOOTH",
"357 -117 OFFCURVE",
"353 -84 OFFCURVE",
"343 -47 CURVE"
);
}
);
width = 594;
},
{
anchors = (
{
name = _bottom;
position = "{291, -7}";
}
);
components = (
{
alignment = -1;
name = S;
}
);
hints = (
{
place = "{289, 24}";
type = Stem;
},
{
horizontal = 1;
place = "{-58, -20}";
target = down;
type = TopGhost;
},
{
horizontal = 1;
place = "{-177, 21}";
target = up;
type = BottomGhost;
}
);
layerId = "6E968933-CD79-43C6-9231-80D77C940F4D";
paths = (
{
closed = 1;
nodes = (
"266 -58 LINE",
"266 -97 LINE",
"298 -97 LINE",
"298 -105 LINE SMOOTH",
"298 -138 OFFCURVE",
"287 -158 OFFCURVE",
"255 -158 CURVE",
"255 -177 LINE",
"292 -177 OFFCURVE",
"321 -162 OFFCURVE",
"321 -91 CURVE SMOOTH",
"321 -81 OFFCURVE",
"320 -68 OFFCURVE",
"319 -58 CURVE"
);
}
);
width = 558.87426;
},
{
anchors = (
{
name = _bottom;
position = "{323, 1}";
}
);
components = (
{
alignment = -1;
name = S;
}
);
hints = (
{
place = "{253, 154}";
type = Stem;
},
{
place = "{296, 111}";
type = Stem;
},
{
place = "{-72, 73}";
type = Stem;
},
{
horizontal = 1;
place = "{-164, 125}";
type = Stem;
},
{
horizontal = 1;
place = "{-115, 21}";
target = up;
type = BottomGhost;
}
);
layerId = "BAF31694-0472-4296-B0EA-1654553C45D2";
paths = (
{
closed = 1;
nodes = (
"253 -38 LINE",
"253 -164 LINE",
"317 -164 LINE",
"317 -178 LINE SMOOTH",
"317 -224 OFFCURVE",
"299 -245 OFFCURVE",
"265 -245 CURVE",
"265 -312 LINE",
"362 -312 OFFCURVE",
"408 -248 OFFCURVE",
"408 -158 CURVE SMOOTH",
"408 -121 OFFCURVE",
"401 -81 OFFCURVE",
"387 -38 CURVE"
);
}
);
width = 601.75208;
}
);
leftMetricsKey = S;
rightMetricsKey = S;
unicode = 0218;
},
{
glyphname = Schwa;
lastChange = "2021-08-13 16:01:28 +0000";
layers = (
{
anchors = (
{
name = top;
position = "{381, 709}";
}
);
hints = (
{
place = "{51, 119}";
type = Stem;
},
{
place = "{592, 124}";
type = Stem;
},
{
horizontal = 1;
place = "{-7, 103}";
type = Stem;
},
{
horizontal = 1;
place = "{286, 107}";
type = Stem;
},
{
horizontal = 1;
place = "{604, 104}";
type = Stem;
}
);
layerId = "0CF0EA28-C756-4A9E-9D7C-CFEF350B4CFE";
paths = (
{
closed = 1;
nodes = (
"592 307 LINE SMOOTH",
"592 176 OFFCURVE",
"501 96 OFFCURVE",
"382 96 CURVE SMOOTH",
"259 96 OFFCURVE",
"174 172 OFFCURVE",
"170 286 CURVE",
"613 286 LINE",
"613 393 LINE",
"55 393 LINE",
"52 369 OFFCURVE",
"51 346 OFFCURVE",
"51 325 CURVE SMOOTH",
"51 113 OFFCURVE",
"187 -7 OFFCURVE",
"382 -7 CURVE SMOOTH",
"583 -7 OFFCURVE",
"716 140 OFFCURVE",
"716 351 CURVE SMOOTH",
"716 562 OFFCURVE",
"579 708 OFFCURVE",
"381 708 CURVE SMOOTH",
"223 708 OFFCURVE",
"107 623 OFFCURVE",
"59 488 CURVE",
"191 488 LINE",
"222 561 OFFCURVE",
"289 604 OFFCURVE",
"381 604 CURVE SMOOTH",
"506 604 OFFCURVE",
"592 511 OFFCURVE",
"592 372 CURVE SMOOTH"
);
}
);
width = 767;
},
{
anchors = (
{
name = top;
position = "{382, 706}";
}
);
hints = (
{
place = "{68, 24}";
type = Stem;
},
{
place = "{686, 24}";
type = Stem;
},
{
horizontal = 1;
place = "{-8, 21}";
target = up;
type = BottomGhost;
},
{
horizontal = 1;
place = "{691, -20}";
target = down;
type = TopGhost;
}
);
layerId = "6E968933-CD79-43C6-9231-80D77C940F4D";
paths = (
{
closed = 1;
nodes = (
"686 345 LINE SMOOTH",
"686 130 OFFCURVE",
"550 12 OFFCURVE",
"376 12 CURVE SMOOTH",
"191 12 OFFCURVE",
"75 142 OFFCURVE",
"87 338 CURVE",
"693 338 LINE",
"693 357 LINE",
"65 357 LINE",
"64 342 OFFCURVE",
"63 327 OFFCURVE",
"63 312 CURVE SMOOTH",
"63 110 OFFCURVE",
"193 -8 OFFCURVE",
"376 -8 CURVE SMOOTH",
"575 -8 OFFCURVE",
"710 134 OFFCURVE",
"710 349 CURVE SMOOTH",
"710 559 OFFCURVE",
"576 706 OFFCURVE",
"382 706 CURVE SMOOTH",
"223 706 OFFCURVE",
"96 610 OFFCURVE",
"63 463 CURVE",
"86 463 LINE",
"119 604 OFFCURVE",
"242 686 OFFCURVE",
"382 686 CURVE SMOOTH",
"553 686 OFFCURVE",
"686 560 OFFCURVE",
"686 351 CURVE SMOOTH"
);
}
);
width = 772.87234;
},
{
anchors = (
{
name = top;
position = "{375.8, 714}";
}
);
hints = (
{
place = "{22, 51}";
type = Stem;
},
{
place = "{542, 183}";
type = Stem;
},
{
horizontal = 1;
place = "{-8, 162}";
type = Stem;
},
{
horizontal = 1;
place = "{284, 116}";
type = Stem;
},
{
horizontal = 1;
place = "{556, 158}";
type = Stem;
}
);
layerId = "BAF31694-0472-4296-B0EA-1654553C45D2";
paths = (
{
closed = 1;
nodes = (
"541.8 309 LINE SMOOTH",
"541.8 210 OFFCURVE",
"463.8 153 OFFCURVE",
"373.8 153 CURVE SMOOTH",
"283.8 153 OFFCURVE",
"216.8 206 OFFCURVE",
"212.8 284 CURVE",
"564.8 284 LINE",
"564.8 400 LINE",
"35.8 400 LINE",
"33.8 380 OFFCURVE",
"31.8 358 OFFCURVE",
"31.8 339 CURVE SMOOTH",
"31.8 122 OFFCURVE",
"169.8 -8 OFFCURVE",
"376.8 -8 CURVE SMOOTH",
"585.8 -8 OFFCURVE",
"724.8 136 OFFCURVE",
"724.8 353 CURVE SMOOTH",
"724.8 572 OFFCURVE",
"583.8 714 OFFCURVE",
"375.8 714 CURVE SMOOTH",
"204.8 714 OFFCURVE",
"80.8 612 OFFCURVE",
"42.8 468 CURVE",
"232.8 468 LINE",
"253.8 523 OFFCURVE",
"309.8 556 OFFCURVE",
"378.8 556 CURVE SMOOTH",
"468.8 556 OFFCURVE",
"541.8 494 OFFCURVE",
"541.8 385 CURVE SMOOTH"
);
}
);
width = 756.75151;
}
);
leftMetricsKey = S;
rightMetricsKey = S;
unicode = 018F;
},
{
glyphname = T;
lastChange = "2021-08-13 16:01:28 +0000";
layers = (
{
anchors = (
{
name = bottom;
position = "{313.5, 0}";
},
{
name = top;
position = "{315.5, 701}";
}
);
hints = (
{
place = "{258, 114}";
type = Stem;
},
{
horizontal = 1;
place = "{607, 93}";
type = Stem;
},
{
horizontal = 1;
place = "{0, 21}";
target = up;
type = BottomGhost;
}
);
layerId = "0CF0EA28-C756-4A9E-9D7C-CFEF350B4CFE";
paths = (
{
closed = 1;
nodes = (
"42.5 607 LINE",
"258.5 607 LINE",
"258.5 0 LINE",
"372.5 0 LINE",
"372.5 607 LINE",
"587.5 607 LINE",
"587.5 700 LINE",
"42.5 700 LINE"
);
}
);
width = 630;
},
{
anchors = (
{
name = bottom;
position = "{296.5, 0}";
},
{
name = top;
position = "{299.5, 679}";
}
);
hints = (
{
place = "{294, 22}";
type = Stem;
},
{
horizontal = 1;
place = "{685, -20}";
target = down;
type = TopGhost;
},
{
horizontal = 1;
place = "{0, 21}";
target = up;
type = BottomGhost;
}
);
layerId = "6E968933-CD79-43C6-9231-80D77C940F4D";
paths = (
{
closed = 1;
nodes = (
"52.5 681 LINE",
"287.5 681 LINE",
"287.5 0 LINE",
"309.5 0 LINE",
"309.5 681 LINE",
"543.5 681 LINE",
"543.5 700 LINE",
"52.5 700 LINE"
);
}
);
width = 595.88968;
},
{
anchors = (
{
name = bottom;
position = "{327.5, 1}";
},
{
name = top;
position = "{327.5, 702}";
}
);
hints = (
{
place = "{242, 176}";
type = Stem;
},
{
horizontal = 1;
place = "{559, 141}";
type = Stem;
},
{
horizontal = 1;
place = "{0, 21}";
target = up;
type = BottomGhost;
}
);
layerId = "BAF31694-0472-4296-B0EA-1654553C45D2";
paths = (
{
closed = 1;
nodes = (
"26.5 559 LINE",
"242.5 559 LINE",
"242.5 0 LINE",
"418.5 0 LINE",
"418.5 559 LINE",
"635.5 559 LINE",
"635.5 700 LINE",
"26.5 700 LINE"
);
}
);
width = 662.12142;
}
);
leftMetricsKey = "=H/2";
rightMetricsKey = "=H/2";
unicode = 0054;
},
{
glyphname = Tcommaaccent;
lastChange = "2021-08-13 16:01:28 +0000";
layers = (
{
components = (
{
alignment = -1;
name = T;
}
);
hints = (
{
place = "{264, 116}";
type = Stem;
},
{
place = "{268, 112}";
type = Stem;
},
{
place = "{317, 63}";
type = Stem;
},
{
horizontal = 1;
place = "{-143, 96}";
type = Stem;
},
{
horizontal = 1;
place = "{-272, 21}";
target = up;
type = BottomGhost;
}
);
layerId = "0CF0EA28-C756-4A9E-9D7C-CFEF350B4CFE";
paths = (
{
closed = 1;
nodes = (
"264 -47 LINE",
"264 -143 LINE",
"317 -143 LINE",
"317 -165 LINE SMOOTH",
"317 -203.003 OFFCURVE",
"301 -222 OFFCURVE",
"268 -222 CURVE",
"268 -272 LINE",
"342 -272 OFFCURVE",
"380 -230 OFFCURVE",
"380 -146 CURVE SMOOTH",
"380 -117 OFFCURVE",
"376 -84 OFFCURVE",
"367 -47 CURVE"
);
}
);
width = 630;
},
{
components = (
{
alignment = -1;
name = T;
}
);
hints = (
{
place = "{298, 24}";
type = Stem;
},
{
horizontal = 1;
place = "{-58, -20}";
target = down;
type = TopGhost;
},
{
horizontal = 1;
place = "{-177, 21}";
target = up;
type = BottomGhost;
}
);
layerId = "6E968933-CD79-43C6-9231-80D77C940F4D";
paths = (
{
closed = 1;
nodes = (
"276 -58 LINE",
"276 -97 LINE",
"308 -97 LINE",
"308 -105 LINE SMOOTH",
"308 -138 OFFCURVE",
"297 -158 OFFCURVE",
"265 -158 CURVE",
"265 -177 LINE",
"301 -177 OFFCURVE",
"331 -162 OFFCURVE",
"331 -91 CURVE SMOOTH",
"331 -81 OFFCURVE",
"330 -68 OFFCURVE",
"328 -58 CURVE"
);
}
);
width = 595.89468;
},
{
components = (
{
alignment = -1;
name = T;
}
);
hints = (
{
place = "{112, 49}";
type = Stem;
},
{
place = "{263, 152}";
type = Stem;
},
{
place = "{325, 89}";
type = Stem;
},
{
horizontal = 1;
place = "{-164, 125}";
type = Stem;
},
{
horizontal = 1;
place = "{-312, 21}";
target = up;
type = BottomGhost;
}
);
layerId = "BAF31694-0472-4296-B0EA-1654553C45D2";
paths = (
{
closed = 1;
nodes = (
"261 -38 LINE",
"261 -164 LINE",
"325 -164 LINE",
"325 -178 LINE SMOOTH",
"325 -224 OFFCURVE",
"306 -245 OFFCURVE",
"273 -245 CURVE",
"273 -312 LINE",
"369 -312 OFFCURVE",
"415 -248 OFFCURVE",
"415 -158 CURVE SMOOTH",
"415 -121 OFFCURVE",
"409 -81 OFFCURVE",
"394 -38 CURVE"
);
}
);
width = 662.11642;
}
);
leftMetricsKey = T;
rightMetricsKey = T;
unicode = 021A;
},
{
glyphname = U;
lastChange = "2021-08-13 16:01:28 +0000";
layers = (
{
anchors = (
{
name = ogonek;
position = "{434.75, 0}";
},
{
name = top;
position = "{361.75, 701}";
}
);
hints = (
{
place = "{80, 114}";
type = Stem;
},
{
place = "{529, 114}";
type = Stem;
},
{
horizontal = 1;
place = "{-7, 100}";
type = Stem;
},
{
horizontal = 1;
place = "{700, -20}";
target = down;
type = TopGhost;
}
);
layerId = "0CF0EA28-C756-4A9E-9D7C-CFEF350B4CFE";
paths = (
{
closed = 1;
nodes = (
"80.75 255 LINE SMOOTH",
"80.75 77 OFFCURVE",
"214.75 -7 OFFCURVE",
"360.75 -7 CURVE SMOOTH",
"505.75 -7 OFFCURVE",
"643.75 77 OFFCURVE",
"643.75 255 CURVE SMOOTH",
"643.75 700 LINE",
"529.75 700 LINE",
"529.75 253 LINE SMOOTH",
"529.75 144 OFFCURVE",
"458.75 93 OFFCURVE",
"361.75 93 CURVE SMOOTH",
"265.75 93 OFFCURVE",
"194.75 144 OFFCURVE",
"194.75 253 CURVE SMOOTH",
"194.75 700 LINE",
"80.75 700 LINE"
);
}
);
width = 724.5;
},
{
anchors = (
{
name = ogonek;
position = "{408.75, 0}";
},
{
name = top;
position = "{344.75, 679}";
}
);
hints = (
{
place = "{108, 22}";
type = Stem;
},
{
place = "{556, 22}";
type = Stem;
},
{
horizontal = 1;
place = "{-7, 21}";
target = up;
type = BottomGhost;
},
{
horizontal = 1;
place = "{700, -20}";
target = down;
type = TopGhost;
}
);
layerId = "6E968933-CD79-43C6-9231-80D77C940F4D";
paths = (
{
closed = 1;
nodes = (
"99.75 265 LINE SMOOTH",
"99.75 73 OFFCURVE",
"209.75 -7 OFFCURVE",
"347.75 -7 CURVE SMOOTH",
"485.75 -7 OFFCURVE",
"590.75 73 OFFCURVE",
"590.75 265 CURVE SMOOTH",
"590.75 700 LINE",
"568.75 700 LINE",
"568.75 265 LINE SMOOTH",
"568.75 80 OFFCURVE",
"469.75 13 OFFCURVE",
"347.75 13 CURVE SMOOTH",
"224.75 13 OFFCURVE",
"121.75 80 OFFCURVE",
"121.75 265 CURVE SMOOTH",
"121.75 700 LINE",
"99.75 700 LINE"
);
}
);
width = 690.27746;
},
{
anchors = (
{
name = ogonek;
position = "{438.35, 2}";
},
{
name = top;
position = "{355.35, 702}";
}
);
hints = (
{
place = "{50, 176}";
type = Stem;
},
{
place = "{486, 176}";
type = Stem;
},
{
horizontal = 1;
place = "{-7, 163}";
type = Stem;
},
{
horizontal = 1;
place = "{700, -20}";
target = down;
type = TopGhost;
}
);
layerId = "BAF31694-0472-4296-B0EA-1654553C45D2";
paths = (
{
closed = 1;
nodes = (
"50.35 284 LINE SMOOTH",
"50.35 90 OFFCURVE",
"187.35 -7 OFFCURVE",
"351.35 -7 CURVE SMOOTH",
"514.35 -7 OFFCURVE",
"661.35 90 OFFCURVE",
"661.35 284 CURVE SMOOTH",
"661.35 700 LINE",
"485.35 700 LINE",
"485.35 284 LINE SMOOTH",
"485.35 203 OFFCURVE",
"434.35 156 OFFCURVE",
"354.35 156 CURVE SMOOTH",
"275.35 156 OFFCURVE",
"225.35 203 OFFCURVE",
"225.35 284 CURVE SMOOTH",
"225.35 700 LINE",
"50.35 700 LINE"
);
}
);
width = 711.94033;
}
);
leftMetricsKey = "=H*0.95";
rightMetricsKey = "=H*0.95";
unicode = 0055;
},
{
glyphname = V;
lastChange = "2021-08-13 16:01:28 +0000";
layers = (
{
hints = (
{
horizontal = 1;
place = "{0, 21}";
target = up;
type = BottomGhost;
},
{
horizontal = 1;
place = "{700, -20}";
target = down;
type = TopGhost;
}
);
layerId = "0CF0EA28-C756-4A9E-9D7C-CFEF350B4CFE";
paths = (
{
closed = 1;
nodes = (
"356.333 117 LINE",
"150.333 700 LINE",
"28.333 700 LINE",
"290.333 0 LINE",
"422.333 0 LINE",
"683.333 700 LINE",
"563.333 700 LINE"
);
}
);
width = 711.66;
},
{
hints = (
{
horizontal = 1;
place = "{700, -20}";
target = down;
type = TopGhost;
},
{
horizontal = 1;
place = "{0, 21}";
target = up;
type = BottomGhost;
}
);
layerId = "6E968933-CD79-43C6-9231-80D77C940F4D";
paths = (
{
closed = 1;
nodes = (
"315 32 LINE",
"60 700 LINE",
"35 700 LINE",
"304 0 LINE",
"326 0 LINE",
"596 700 LINE",
"572 700 LINE"
);
}
);
width = 630.92496;
},
{
hints = (
{
horizontal = 1;
place = "{0, 21}";
target = up;
type = BottomGhost;
},
{
horizontal = 1;
place = "{700, -20}";
target = down;
type = TopGhost;
}
);
layerId = "BAF31694-0472-4296-B0EA-1654553C45D2";
paths = (
{
closed = 1;
nodes = (
"376.667 176 LINE",
"205.667 700 LINE",
"17.667 700 LINE",
"265.667 0 LINE",
"486.667 0 LINE",
"734.667 700 LINE",
"548.667 700 LINE"
);
}
);
width = 752.41988;
}
);
leftMetricsKey = "=H/3";
rightMetricsKey = "=H/3";
unicode = 0056;
},
{
glyphname = W;
lastChange = "2021-08-13 16:01:28 +0000";
layers = (
{
hints = (
{
horizontal = 1;
place = "{700, -20}";
target = down;
type = TopGhost;
}
);
layerId = "0CF0EA28-C756-4A9E-9D7C-CFEF350B4CFE";
paths = (
{
closed = 1;
nodes = (
"508.33 529 LINE",
"654.33 0 LINE",
"783.33 0 LINE",
"989.33 700 LINE",
"867.33 700 LINE",
"722.33 132 LINE",
"577.33 700 LINE",
"449.33 700 LINE",
"293.33 130 LINE",
"149.33 700 LINE",
"28.33 700 LINE",
"225.33 0 LINE",
"353.33 0 LINE"
);
}
);
width = 1017.66;
},
{
hints = (
{
horizontal = 1;
place = "{700, -20}";
target = down;
type = TopGhost;
},
{
horizontal = 1;
place = "{0, 21}";
target = up;
type = BottomGhost;
}
);
layerId = "6E968933-CD79-43C6-9231-80D77C940F4D";
paths = (
{
closed = 1;
nodes = (
"452 664 LINE",
"660 0 LINE",
"682 0 LINE",
"872 700 LINE",
"847 700 LINE",
"671 40 LINE",
"464 700 LINE",
"440 700 LINE",
"235 42 LINE",
"59 700 LINE",
"35 700 LINE",
"224 0 LINE",
"244 0 LINE"
);
}
);
width = 906.92298;
},
{
hints = (
{
horizontal = 1;
place = "{700, -20}";
target = down;
type = TopGhost;
}
);
layerId = "BAF31694-0472-4296-B0EA-1654553C45D2";
paths = (
{
closed = 1;
nodes = (
"520.67 453 LINE",
"629.67 0 LINE",
"843.67 0 LINE",
"1024.67 700 LINE",
"834.67 700 LINE",
"735.67 206 LINE",
"619.67 700 LINE",
"425.67 700 LINE",
"304.67 205 LINE",
"206.67 700 LINE",
"17.67 700 LINE",
"194.67 0 LINE",
"407.67 0 LINE"
);
}
);
width = 1042.4167;
}
);
leftMetricsKey = V;
rightMetricsKey = V;
unicode = 0057;
},
{
glyphname = X;
lastChange = "2021-08-13 16:01:28 +0000";
layers = (
{
hints = (
{
horizontal = 1;
place = "{700, -20}";
target = down;
type = TopGhost;
},
{
horizontal = 1;
place = "{0, 21}";
target = up;
type = BottomGhost;
}
);
layerId = "0CF0EA28-C756-4A9E-9D7C-CFEF350B4CFE";
paths = (
{
closed = 1;
nodes = (
"487.61 0 LINE",
"615.61 0 LINE",
"183.61 700 LINE",
"56.61 700 LINE"
);
},
{
closed = 1;
nodes = (
"291.61 380 LINE",
"57.61 0 LINE",
"183.61 0 LINE",
"352.61 292 LINE"
);
},
{
closed = 1;
nodes = (
"381.61 319 LINE",
"616.61 700 LINE",
"489.61 700 LINE",
"320.61 408 LINE"
);
}
);
width = 673.22;
},
{
hints = (
{
horizontal = 1;
place = "{700, -20}";
target = down;
type = TopGhost;
},
{
horizontal = 1;
place = "{0, 21}";
target = up;
type = BottomGhost;
}
);
layerId = "6E968933-CD79-43C6-9231-80D77C940F4D";
paths = (
{
closed = 1;
nodes = (
"486.93 0 LINE",
"511.93 0 LINE",
"94.93 700 LINE",
"69.93 700 LINE"
);
},
{
closed = 1;
nodes = (
"283.93 369 LINE",
"69.93 0 LINE",
"94.93 0 LINE",
"300.93 358 LINE"
);
},
{
closed = 1;
nodes = (
"299.93 345 LINE",
"511.93 700 LINE",
"486.93 700 LINE",
"282.93 356 LINE"
);
}
);
width = 581.71086;
},
{
hints = (
{
horizontal = 1;
place = "{700, -20}";
target = down;
type = TopGhost;
},
{
horizontal = 1;
place = "{0, 21}";
target = up;
type = BottomGhost;
}
);
layerId = "BAF31694-0472-4296-B0EA-1654553C45D2";
paths = (
{
closed = 1;
nodes = (
"507.298 0 LINE",
"713.298 0 LINE",
"241.298 700 LINE",
"35.298 700 LINE"
);
},
{
closed = 1;
nodes = (
"294.298 398 LINE",
"41.298 0 LINE",
"241.298 0 LINE",
"395.298 262 LINE"
);
},
{
closed = 1;
nodes = (
"450.298 302 LINE",
"703.298 700 LINE",
"503.298 700 LINE",
"349.298 438 LINE"
);
}
);
width = 748.76002;
}
);
leftMetricsKey = "=H*0.666";
rightMetricsKey = "=H*0.666";
unicode = 0058;
},
{
glyphname = Y;
lastChange = "2021-08-13 16:01:28 +0000";
layers = (
{
anchors = (
{
name = top;
position = "{316.33, 701}";
}
);
hints = (
{
place = "{259, 114}";
type = Stem;
},
{
horizontal = 1;
place = "{700, -20}";
target = down;
type = TopGhost;
},
{
horizontal = 1;
place = "{0, 21}";
target = up;
type = BottomGhost;
}
);
layerId = "0CF0EA28-C756-4A9E-9D7C-CFEF350B4CFE";
paths = (
{
closed = 1;
nodes = (
"317.33 356 LINE",
"155.33 700 LINE",
"28.33 700 LINE",
"259.33 253 LINE",
"259.33 0 LINE",
"373.33 0 LINE",
"373.33 254 LINE",
"603.33 700 LINE",
"477.33 700 LINE"
);
}
);
width = 631.66;
},
{
anchors = (
{
name = top;
position = "{266, 679}";
}
);
hints = (
{
place = "{255, 22}";
type = Stem;
},
{
horizontal = 1;
place = "{700, -20}";
target = down;
type = TopGhost;
},
{
horizontal = 1;
place = "{0, 21}";
target = up;
type = BottomGhost;
}
);
layerId = "6E968933-CD79-43C6-9231-80D77C940F4D";
paths = (
{
closed = 1;
nodes = (
"265 316 LINE",
"61 700 LINE",
"35 700 LINE",
"255 293 LINE",
"255 0 LINE",
"277 0 LINE",
"277 293 LINE",
"495 700 LINE",
"469 700 LINE"
);
}
);
width = 529.92489;
},
{
anchors = (
{
name = top;
position = "{350.67, 702}";
}
);
hints = (
{
place = "{263, 176}";
type = Stem;
},
{
horizontal = 1;
place = "{700, -20}";
target = down;
type = TopGhost;
},
{
horizontal = 1;
place = "{0, 21}";
target = up;
type = BottomGhost;
}
);
layerId = "BAF31694-0472-4296-B0EA-1654553C45D2";
paths = (
{
closed = 1;
nodes = (
"351.67 411 LINE",
"217.67 700 LINE",
"17.67 700 LINE",
"261.67 230 LINE",
"261.67 0 LINE",
"438.67 0 LINE",
"438.67 230 LINE",
"682.67 700 LINE",
"484.67 700 LINE"
);
}
);
width = 700.42151;
}
);
leftMetricsKey = V;
rightMetricsKey = V;
unicode = 0059;
},
{
glyphname = Z;
lastChange = "2021-08-13 16:01:28 +0000";
layers = (
{
anchors = (
{
name = top;
position = "{285.61, 701}";
}
);
hints = (
{
horizontal = 1;
place = "{0, 99}";
type = Stem;
},
{
horizontal = 1;
place = "{601, 100}";
type = Stem;
}
);
layerId = "0CF0EA28-C756-4A9E-9D7C-CFEF350B4CFE";
paths = (
{
closed = 1;
nodes = (
"554.61 700 LINE",
"56.61 700 LINE",
"56.61 601 LINE",
"418.61 601 LINE",
"56.61 89 LINE",
"56.61 0 LINE",
"554.61 0 LINE",
"554.61 99 LINE",
"191.61 99 LINE",
"554.61 611 LINE"
);
}
);
width = 611.22;
},
{
anchors = (
{
name = top;
position = "{279.93, 679}";
}
);
hints = (
{
horizontal = 1;
place = "{678, 22}";
type = Stem;
},
{
horizontal = 1;
place = "{0, 21}";
target = up;
type = BottomGhost;
}
);
layerId = "6E968933-CD79-43C6-9231-80D77C940F4D";
paths = (
{
closed = 1;
nodes = (
"517.93 700 LINE",
"81.93 700 LINE",
"81.93 678 LINE",
"493.93 678 LINE",
"69.93 20 LINE",
"69.93 0 LINE",
"527.93 0 LINE",
"527.93 21 LINE",
"93.93 21 LINE",
"517.93 679 LINE"
);
}
);
width = 597.70235;
},
{
anchors = (
{
name = top;
position = "{284.298, 702}";
}
);
hints = (
{
horizontal = 1;
place = "{0, 144}";
type = Stem;
},
{
horizontal = 1;
place = "{557, 144}";
type = Stem;
}
);
layerId = "BAF31694-0472-4296-B0EA-1654553C45D2";
paths = (
{
closed = 1;
nodes = (
"574.298 700 LINE",
"35.298 700 LINE",
"35.298 557 LINE",
"371.298 557 LINE",
"35.298 134 LINE",
"35.298 0 LINE",
"574.298 0 LINE",
"574.298 144 LINE",
"235.298 144 LINE",
"574.298 566 LINE"
);
}
);
width = 609.76741;
}
);
leftMetricsKey = "=H*0.666";
rightMetricsKey = "=H*0.666";
unicode = 005A;
},
{
glyphname = a;
lastChange = "2021-08-13 16:01:28 +0000";
layers = (
{
anchors = (
{
name = ogonek;
position = "{475.277, 0}";
},
{
name = top;
position = "{274.277, 510}";
}
);
guideLines = (
{
position = "{-0.376, 81.65}";
showMeasurement = 1;
},
{
position = "{-0.376, 419.86}";
},
{
position = "{-0.376, 299}";
},
{
position = "{-0.376, 207}";
}
);
hints = (
{
place = "{48, 117}";
type = Stem;
},
{
place = "{359, 116}";
type = Stem;
},
{
horizontal = 1;
place = "{-9, 99}";
type = Stem;
},
{
horizontal = 1;
place = "{411, 98}";
type = Stem;
}
);
layerId = "0CF0EA28-C756-4A9E-9D7C-CFEF350B4CFE";
paths = (
{
closed = 1;
nodes = (
"475.277 0 LINE",
"475.277 293 LINE SMOOTH",
"475.277 439 OFFCURVE",
"397.277 510 OFFCURVE",
"274.277 510 CURVE SMOOTH",
"168.277 510 OFFCURVE",
"87.277 454 OFFCURVE",
"62.277 367 CURVE",
"163.277 331 LINE",
"177.277 383 OFFCURVE",
"216.277 411 OFFCURVE",
"268.277 411 CURVE SMOOTH",
"335.277 411 OFFCURVE",
"359.277 382 OFFCURVE",
"359.277 349 CURVE SMOOTH",
"359.277 313 OFFCURVE",
"326.277 305 OFFCURVE",
"266.277 298 CURVE SMOOTH",
"163.277 286 OFFCURVE",
"47.277 257 OFFCURVE",
"47.277 138 CURVE SMOOTH",
"47.277 48 OFFCURVE",
"115.277 -9 OFFCURVE",
"219.277 -9 CURVE SMOOTH",
"288.277 -9 OFFCURVE",
"331.277 22 OFFCURVE",
"361.277 61 CURVE",
"368.277 0 LINE"
);
},
{
closed = 1;
nodes = (
"359.277 217 LINE SMOOTH",
"359.277 130 OFFCURVE",
"302.277 90 OFFCURVE",
"240.277 90 CURVE SMOOTH",
"192.277 90 OFFCURVE",
"164.277 109 OFFCURVE",
"164.277 143 CURVE SMOOTH",
"164.277 178 OFFCURVE",
"183.277 195 OFFCURVE",
"249.277 204 CURVE",
"359.277 219 LINE"
);
}
);
width = 544.124;
},
{
anchors = (
{
name = ogonek;
position = "{447.401, 0}";
},
{
name = top;
position = "{265.401, 505}";
}
);
hints = (
{
place = "{66, 22}";
type = Stem;
},
{
horizontal = 1;
place = "{-6, 21}";
target = up;
type = BottomGhost;
},
{
horizontal = 1;
place = "{497, -20}";
target = down;
type = TopGhost;
}
);
layerId = "6E968933-CD79-43C6-9231-80D77C940F4D";
paths = (
{
closed = 1;
nodes = (
"447.401 0 LINE",
"447.401 315 LINE SMOOTH",
"447.401 450 OFFCURVE",
"359.401 508 OFFCURVE",
"266.401 508 CURVE SMOOTH",
"168.401 508 OFFCURVE",
"98.401 448 OFFCURVE",
"75.401 368 CURVE",
"95.401 361 LINE",
"115.401 436 OFFCURVE",
"186.401 488 OFFCURVE",
"266.401 488 CURVE SMOOTH",
"373.401 488 OFFCURVE",
"425.401 405 OFFCURVE",
"425.401 327 CURVE SMOOTH",
"425.401 288 OFFCURVE",
"404.401 292 OFFCURVE",
"250.401 276 CURVE SMOOTH",
"131.401 264 OFFCURVE",
"58.401 214 OFFCURVE",
"58.401 127 CURVE SMOOTH",
"58.401 38 OFFCURVE",
"126.401 -6 OFFCURVE",
"228.401 -6 CURVE SMOOTH",
"331.401 -6 OFFCURVE",
"401.401 47 OFFCURVE",
"425.401 139 CURVE",
"425.401 0 LINE"
);
},
{
closed = 1;
nodes = (
"424.401 235 LINE SMOOTH",
"424.401 100 OFFCURVE",
"351.401 14 OFFCURVE",
"229.401 14 CURVE SMOOTH",
"139.401 14 OFFCURVE",
"80.401 49 OFFCURVE",
"80.401 127 CURVE SMOOTH",
"80.401 203 OFFCURVE",
"146.401 245 OFFCURVE",
"249.401 256 CURVE SMOOTH",
"424.401 274 LINE"
);
}
);
width = 532.27447;
},
{
anchors = (
{
name = ogonek;
position = "{499.479, 0}";
},
{
name = top;
position = "{267.479, 499}";
}
);
hints = (
{
place = "{20, 50}";
type = Stem;
},
{
place = "{152, 49}";
type = Stem;
},
{
horizontal = 1;
place = "{167, 170}";
type = Stem;
},
{
horizontal = 1;
place = "{366, 143}";
type = Stem;
}
);
layerId = "BAF31694-0472-4296-B0EA-1654553C45D2";
paths = (
{
closed = 1;
nodes = (
"499.479 0 LINE",
"499.479 292 LINE SMOOTH",
"499.479 434 OFFCURVE",
"413.479 509 OFFCURVE",
"267.479 509 CURVE SMOOTH",
"164.479 509 OFFCURVE",
"78.479 458 OFFCURVE",
"48.479 370 CURVE",
"201.479 318 LINE",
"210.479 348 OFFCURVE",
"235.479 365 OFFCURVE",
"265.479 365 CURVE SMOOTH",
"303.479 365 OFFCURVE",
"322.479 349 OFFCURVE",
"322.479 329 CURVE SMOOTH",
"322.479 309 OFFCURVE",
"298.479 303 OFFCURVE",
"247.479 296 CURVE SMOOTH",
"117.479 278 OFFCURVE",
"29.479 235 OFFCURVE",
"29.479 138 CURVE SMOOTH",
"29.479 44 OFFCURVE",
"100.479 -9 OFFCURVE",
"197.479 -9 CURVE SMOOTH",
"255.479 -9 OFFCURVE",
"299.479 17 OFFCURVE",
"329.479 52 CURVE",
"339.479 0 LINE"
);
},
{
closed = 1;
nodes = (
"322.479 203 LINE SMOOTH",
"321.479 153 OFFCURVE",
"291.479 122 OFFCURVE",
"252.479 122 CURVE SMOOTH",
"224.479 122 OFFCURVE",
"204.479 135 OFFCURVE",
"204.479 157 CURVE SMOOTH",
"204.479 180 OFFCURVE",
"220.479 193 OFFCURVE",
"260.479 199 CURVE",
"322.479 209 LINE"
);
}
);
width = 542.60448;
}
);
leftMetricsKey = "=l*0.618";
rightMetricsKey = "=l*0.9";
unicode = 0061;
},
{
glyphname = ae;
lastChange = "2021-08-13 16:04:24 +0000";
layers = (
{
guideLines = (
{
position = "{-0.37, 426.08}";
}
);
hints = (
{
place = "{48, 117}";
type = Stem;
},
{
place = "{727, 119}";
type = Stem;
},
{
horizontal = 1;
place = "{-9, 97}";
type = Stem;
},
{
horizontal = 1;
place = "{207, 92}";
type = Stem;
},
{
horizontal = 1;
place = "{411, 97}";
type = Stem;
},
{
horizontal = 1;
place = "{413, 96}";
type = Stem;
},
{
horizontal = 1;
place = "{-9, 99}";
type = Stem;
}
);
layerId = "0CF0EA28-C756-4A9E-9D7C-CFEF350B4CFE";
paths = (
{
closed = 1;
nodes = (
"163.28 331 LINE",
"177.28 383 OFFCURVE",
"216.28 411 OFFCURVE",
"268.28 411 CURVE SMOOTH",
"335.28 411 OFFCURVE",
"359.28 381 OFFCURVE",
"359.28 348 CURVE SMOOTH",
"359.28 315 OFFCURVE",
"326.28 305 OFFCURVE",
"266.28 298 CURVE SMOOTH",
"163.28 286 OFFCURVE",
"47.28 257 OFFCURVE",
"47.28 138 CURVE SMOOTH",
"47.28 48 OFFCURVE",
"115.28 -9 OFFCURVE",
"219.28 -9 CURVE SMOOTH",
"288.28 -9 OFFCURVE",
"384.28 13 OFFCURVE",
"425.28 110 CURVE",
"447.28 143 LINE",
"475.28 256 LINE",
"475.28 293 LINE SMOOTH",
"475.28 439 OFFCURVE",
"397.28 510 OFFCURVE",
"274.28 510 CURVE SMOOTH",
"168.28 510 OFFCURVE",
"87.28 454 OFFCURVE",
"62.28 367 CURVE"
);
},
{
closed = 1;
nodes = (
"164.28 178 OFFCURVE",
"183.28 195 OFFCURVE",
"249.28 204 CURVE",
"359.28 219 LINE",
"359.28 217 LINE SMOOTH",
"359.28 130 OFFCURVE",
"302.28 90 OFFCURVE",
"240.28 90 CURVE SMOOTH",
"192.28 90 OFFCURVE",
"164.28 109 OFFCURVE",
"164.28 143 CURVE SMOOTH"
);
},
{
closed = 1;
nodes = (
"719.28 -8 OFFCURVE",
"796.28 42 OFFCURVE",
"835.28 119 CURVE",
"731.28 157 LINE",
"709.28 112 OFFCURVE",
"670.28 88 OFFCURVE",
"605.28 88 CURVE SMOOTH",
"535.28 88 OFFCURVE",
"483.28 132 OFFCURVE",
"476.28 207 CURVE",
"841.28 207 LINE",
"844.28 228 OFFCURVE",
"845.28 245 OFFCURVE",
"845.28 262 CURVE SMOOTH",
"845.28 410 OFFCURVE",
"747.28 509 OFFCURVE",
"604.28 509 CURVE SMOOTH",
"455.28 509 OFFCURVE",
"358.28 408 OFFCURVE",
"358.28 251 CURVE SMOOTH",
"358.28 94 OFFCURVE",
"463.28 -8 OFFCURVE",
"607.28 -8 CURVE SMOOTH"
);
},
{
closed = 1;
nodes = (
"477.28 299 LINE",
"490.28 368 OFFCURVE",
"537.28 413 OFFCURVE",
"599.28 413 CURVE SMOOTH",
"671.28 413 OFFCURVE",
"723.28 371 OFFCURVE",
"726.28 299 CURVE"
);
}
);
width = 891.18;
},
{
hints = (
{
place = "{61, 22}";
type = Stem;
},
{
place = "{430, 23}";
type = Stem;
},
{
place = "{859, 22}";
type = Stem;
},
{
horizontal = 1;
place = "{497, -20}";
target = down;
type = TopGhost;
},
{
horizontal = 1;
place = "{-6, 21}";
target = up;
type = BottomGhost;
}
);
layerId = "6E968933-CD79-43C6-9231-80D77C940F4D";
paths = (
{
closed = 1;
nodes = (
"98.4 366 LINE",
"122.4 442 OFFCURVE",
"186.4 488 OFFCURVE",
"269.4 488 CURVE SMOOTH",
"378.4 488 OFFCURVE",
"428.4 406 OFFCURVE",
"428.4 327 CURVE SMOOTH",
"428.4 288 OFFCURVE",
"407.4 290 OFFCURVE",
"252.4 274 CURVE SMOOTH",
"134.4 262 OFFCURVE",
"58.4 214 OFFCURVE",
"58.4 127 CURVE SMOOTH",
"58.4 38 OFFCURVE",
"129.4 -6 OFFCURVE",
"231.4 -6 CURVE SMOOTH",
"326.4 -6 OFFCURVE",
"423.4 49 OFFCURVE",
"442.4 175 CURVE",
"442.4 194 LINE",
"451.4 251 LINE",
"451.4 315 LINE SMOOTH",
"451.4 449 OFFCURVE",
"363.4 508 OFFCURVE",
"269.4 508 CURVE SMOOTH",
"171.4 508 OFFCURVE",
"104.4 450 OFFCURVE",
"78.4 373 CURVE"
);
},
{
closed = 1;
nodes = (
"80.4 204 OFFCURVE",
"148.4 245 OFFCURVE",
"252.4 256 CURVE SMOOTH",
"428.4 274 LINE",
"428.4 235 LINE SMOOTH",
"428.4 100 OFFCURVE",
"354.4 14 OFFCURVE",
"232.4 14 CURVE SMOOTH",
"142.4 14 OFFCURVE",
"80.4 49 OFFCURVE",
"80.4 127 CURVE SMOOTH"
);
},
{
closed = 1;
nodes = (
"775.4 -6 OFFCURVE",
"849.4 49 OFFCURVE",
"882.4 130 CURVE",
"862.4 137 LINE",
"831.4 59 OFFCURVE",
"760.4 14 OFFCURVE",
"663.4 14 CURVE SMOOTH",
"551.4 14 OFFCURVE",
"454.4 86 OFFCURVE",
"451.4 251 CURVE",
"888.4 251 LINE",
"889.4 268 OFFCURVE",
"888.4 282 OFFCURVE",
"888.4 292 CURVE SMOOTH",
"888.4 399 OFFCURVE",
"815.4 508 OFFCURVE",
"663.4 508 CURVE SMOOTH",
"523.4 508 OFFCURVE",
"430.4 413 OFFCURVE",
"430.4 256 CURVE SMOOTH",
"430.4 95 OFFCURVE",
"524.4 -6 OFFCURVE",
"663.4 -6 CURVE SMOOTH"
);
},
{
closed = 1;
nodes = (
"451.4 271 LINE",
"456.4 422 OFFCURVE",
"556.4 488 OFFCURVE",
"662.4 488 CURVE SMOOTH",
"776.4 488 OFFCURVE",
"876.4 412 OFFCURVE",
"866.4 271 CURVE"
);
}
);
width = 945.41957;
},
{
hints = (
{
place = "{20, 50}";
type = Stem;
},
{
place = "{309, 51}";
type = Stem;
},
{
horizontal = 1;
place = "{-4, 41}";
type = Stem;
},
{
horizontal = 1;
place = "{84, 141}";
type = Stem;
},
{
horizontal = 1;
place = "{291, 106}";
type = Stem;
},
{
horizontal = 1;
place = "{365, 143}";
type = Stem;
},
{
horizontal = 1;
place = "{-9, 134}";
type = Stem;
}
);
layerId = "BAF31694-0472-4296-B0EA-1654553C45D2";
paths = (
{
closed = 1;
nodes = (
"201.48 318 LINE",
"210.48 348 OFFCURVE",
"235.48 364 OFFCURVE",
"265.48 364 CURVE SMOOTH",
"303.48 364 OFFCURVE",
"322.48 349 OFFCURVE",
"322.48 328 CURVE SMOOTH",
"322.48 309 OFFCURVE",
"298.48 303 OFFCURVE",
"247.48 296 CURVE SMOOTH",
"117.48 278 OFFCURVE",
"29.48 235 OFFCURVE",
"29.48 138 CURVE SMOOTH",
"29.48 44 OFFCURVE",
"100.48 -9 OFFCURVE",
"197.48 -9 CURVE SMOOTH",
"288.48 -9 OFFCURVE",
"372.48 6 OFFCURVE",
"426.48 93 CURVE",
"445.48 117 LINE",
"499.48 263 LINE",
"499.48 292 LINE SMOOTH",
"499.48 434 OFFCURVE",
"413.48 509 OFFCURVE",
"267.48 509 CURVE SMOOTH",
"164.48 509 OFFCURVE",
"78.48 458 OFFCURVE",
"48.48 370 CURVE"
);
},
{
closed = 1;
nodes = (
"206.48 180 OFFCURVE",
"220.48 193 OFFCURVE",
"260.48 199 CURVE",
"322.48 207 LINE",
"322.48 203 LINE SMOOTH",
"321.48 153 OFFCURVE",
"290.48 125 OFFCURVE",
"252.48 125 CURVE SMOOTH",
"225.48 125 OFFCURVE",
"206.48 138 OFFCURVE",
"206.48 159 CURVE SMOOTH"
);
},
{
closed = 1;
nodes = (
"691.48 -6 OFFCURVE",
"781.48 50 OFFCURVE",
"819.48 143 CURVE",
"651.48 181 LINE",
"636.48 151 OFFCURVE",
"613.48 136 OFFCURVE",
"574.48 136 CURVE SMOOTH",
"536.48 136 OFFCURVE",
"505.48 161 OFFCURVE",
"497.48 205 CURVE",
"820.48 205 LINE",
"823.48 226 OFFCURVE",
"825.48 244 OFFCURVE",
"825.48 258 CURVE SMOOTH",
"825.48 411 OFFCURVE",
"722.48 508 OFFCURVE",
"573.48 508 CURVE SMOOTH",
"423.48 508 OFFCURVE",
"320.48 409 OFFCURVE",
"320.48 251 CURVE SMOOTH",
"320.48 92 OFFCURVE",
"426.48 -7 OFFCURVE",
"575.48 -7 CURVE SMOOTH"
);
},
{
closed = 1;
nodes = (
"507.48 308 LINE",
"518.48 343 OFFCURVE",
"545.48 366 OFFCURVE",
"580.48 366 CURVE SMOOTH",
"617.48 366 OFFCURVE",
"647.48 345 OFFCURVE",
"653.48 308 CURVE"
);
}
);
width = 854.23179;
}
);
leftMetricsKey = a;
rightMetricsKey = e;
unicode = 00E6;
},
{
glyphname = b;
lastChange = "2021-08-13 16:04:24 +0000";
layers = (
{
hints = (
{
place = "{77, 114}";
type = Stem;
},
{
place = "{467, 116}";
type = Stem;
},
{
horizontal = 1;
place = "{-8, 98}";
type = Stem;
},
{
horizontal = 1;
place = "{410, 98}";
type = Stem;
},
{
horizontal = 1;
place = "{720, -20}";
target = down;
type = TopGhost;
}
);
layerId = "0CF0EA28-C756-4A9E-9D7C-CFEF350B4CFE";
rightMetricsKey = "=l*0.5";
paths = (
{
closed = 1;
nodes = (
"190.5 423 LINE",
"190.5 720 LINE",
"76.5 720 LINE",
"76.5 0 LINE",
"180.5 0 LINE",
"188.5 62 LINE",
"223.5 23 OFFCURVE",
"279.5 -8 OFFCURVE",
"354.5 -8 CURVE SMOOTH",
"487.5 -8 OFFCURVE",
"582.5 98 OFFCURVE",
"582.5 253 CURVE SMOOTH",
"582.5 407 OFFCURVE",
"488.5 509 OFFCURVE",
"354.5 509 CURVE SMOOTH",
"274.5 509 OFFCURVE",
"211.5 471 OFFCURVE",
"178.5 426 CURVE"
);
},
{
closed = 1;
nodes = (
"466.5 150 OFFCURVE",
"405.5 90 OFFCURVE",
"332.5 90 CURVE SMOOTH",
"259.5 90 OFFCURVE",
"190.5 148 OFFCURVE",
"190.5 251 CURVE SMOOTH",
"190.5 353 OFFCURVE",
"259.5 410 OFFCURVE",
"332.5 410 CURVE SMOOTH",
"405.5 410 OFFCURVE",
"466.5 355 OFFCURVE",
"466.5 253 CURVE SMOOTH"
);
}
);
width = 620.745;
},
{
hints = (
{
place = "{93, 22}";
type = Stem;
},
{
place = "{549, 22}";
type = Stem;
},
{
horizontal = 1;
place = "{-6, 21}";
target = up;
type = BottomGhost;
},
{
horizontal = 1;
place = "{720, -20}";
target = down;
type = TopGhost;
}
);
layerId = "6E968933-CD79-43C6-9231-80D77C940F4D";
paths = (
{
closed = 1;
nodes = (
"116.5 357 LINE",
"116.5 720 LINE",
"94.5 720 LINE",
"94.5 0 LINE",
"116.5 0 LINE",
"116.5 145 LINE",
"145.5 61 OFFCURVE",
"216.5 -7 OFFCURVE",
"331.5 -7 CURVE SMOOTH",
"475.5 -7 OFFCURVE",
"572.5 91 OFFCURVE",
"572.5 251 CURVE SMOOTH",
"572.5 410 OFFCURVE",
"475.5 508 OFFCURVE",
"331.5 508 CURVE SMOOTH",
"212.5 508 OFFCURVE",
"143.5 441 OFFCURVE",
"115.5 353 CURVE"
);
},
{
closed = 1;
nodes = (
"550.5 103 OFFCURVE",
"466.5 13 OFFCURVE",
"331.5 13 CURVE SMOOTH",
"202.5 13 OFFCURVE",
"116.5 108 OFFCURVE",
"116.5 251 CURVE SMOOTH",
"116.5 394 OFFCURVE",
"202.5 488 OFFCURVE",
"331.5 488 CURVE SMOOTH",
"466.5 488 OFFCURVE",
"550.5 398 OFFCURVE",
"550.5 251 CURVE SMOOTH"
);
}
);
width = 619.78245;
},
{
hints = (
{
place = "{49, 176}";
type = Stem;
},
{
place = "{399, 179}";
type = Stem;
},
{
horizontal = 1;
place = "{-7, 153}";
type = Stem;
},
{
horizontal = 1;
place = "{355, 153}";
type = Stem;
},
{
horizontal = 1;
place = "{720, -20}";
target = down;
type = TopGhost;
}
);
layerId = "BAF31694-0472-4296-B0EA-1654553C45D2";
paths = (
{
closed = 1;
nodes = (
"223.7 422 LINE",
"223.7 720 LINE",
"47.7 720 LINE",
"47.7 0 LINE",
"207.7 0 LINE",
"216.7 53 LINE",
"249.7 19 OFFCURVE",
"298.7 -7 OFFCURVE",
"357.7 -7 CURVE SMOOTH",
"481.7 -7 OFFCURVE",
"576.7 93 OFFCURVE",
"576.7 251 CURVE SMOOTH",
"576.7 410 OFFCURVE",
"482.7 508 OFFCURVE",
"357.7 508 CURVE SMOOTH",
"283.7 508 OFFCURVE",
"227.7 468 OFFCURVE",
"199.7 422 CURVE"
);
},
{
closed = 1;
nodes = (
"398.7 184 OFFCURVE",
"359.7 146 OFFCURVE",
"312.7 146 CURVE SMOOTH",
"265.7 146 OFFCURVE",
"223.7 183 OFFCURVE",
"223.7 251 CURVE SMOOTH",
"223.7 318 OFFCURVE",
"265.7 355 OFFCURVE",
"312.7 355 CURVE SMOOTH",
"359.7 355 OFFCURVE",
"398.7 319 OFFCURVE",
"398.7 251 CURVE SMOOTH"
);
}
);
width = 600.71005;
}
);
leftMetricsKey = l;
unicode = 0062;
},
{
glyphname = c;
lastChange = "2021-08-13 16:02:57 +0000";
layers = (
{
anchors = (
{
name = bottom;
position = "{285.9, 5}";
},
{
name = top;
position = "{285.9, 496}";
}
);
hints = (
{
place = "{46, 117}";
type = Stem;
},
{
horizontal = 1;
place = "{-8, 98}";
type = Stem;
},
{
horizontal = 1;
place = "{410, 98}";
type = Stem;
}
);
layerId = "0CF0EA28-C756-4A9E-9D7C-CFEF350B4CFE";
paths = (
{
closed = 1;
nodes = (
"397.9 -8 OFFCURVE",
"479.9 44 OFFCURVE",
"519.9 123 CURVE",
"412.9 162 LINE",
"390.9 113 OFFCURVE",
"347.9 90 OFFCURVE",
"291.9 90 CURVE SMOOTH",
"219.9 90 OFFCURVE",
"162.9 153 OFFCURVE",
"162.9 251 CURVE SMOOTH",
"162.9 348 OFFCURVE",
"219.9 410 OFFCURVE",
"291.9 410 CURVE SMOOTH",
"348.9 410 OFFCURVE",
"391.9 383 OFFCURVE",
"409.9 337 CURVE",
"518.9 376 LINE",
"479.9 461 OFFCURVE",
"399.9 509 OFFCURVE",
"291.9 509 CURVE SMOOTH",
"147.9 509 OFFCURVE",
"45.9 407 OFFCURVE",
"45.9 251 CURVE SMOOTH",
"45.9 94 OFFCURVE",
"147.9 -8 OFFCURVE",
"291.9 -8 CURVE SMOOTH"
);
}
);
width = 574.984;
},
{
anchors = (
{
name = bottom;
position = "{294.7, 1}";
},
{
name = top;
position = "{294.7, 501}";
}
);
hints = (
{
place = "{64, 22}";
type = Stem;
},
{
horizontal = 1;
place = "{497, -20}";
target = down;
type = TopGhost;
},
{
horizontal = 1;
place = "{-6, 21}";
target = up;
type = BottomGhost;
}
);
layerId = "6E968933-CD79-43C6-9231-80D77C940F4D";
paths = (
{
closed = 1;
nodes = (
"409.7 -6 OFFCURVE",
"486.7 48 OFFCURVE",
"516.7 129 CURVE",
"498.7 136 LINE",
"470.7 58 OFFCURVE",
"394.7 14 OFFCURVE",
"297.7 14 CURVE SMOOTH",
"183.7 14 OFFCURVE",
"78.7 86 OFFCURVE",
"78.7 251 CURVE SMOOTH",
"78.7 415 OFFCURVE",
"183.7 488 OFFCURVE",
"297.7 488 CURVE SMOOTH",
"394.7 488 OFFCURVE",
"469.7 443 OFFCURVE",
"497.7 366 CURVE",
"516.7 372 LINE",
"486.7 453 OFFCURVE",
"409.7 508 OFFCURVE",
"297.7 508 CURVE SMOOTH",
"158.7 508 OFFCURVE",
"56.7 412 OFFCURVE",
"56.7 251 CURVE SMOOTH",
"56.7 90 OFFCURVE",
"158.7 -6 OFFCURVE",
"297.7 -6 CURVE SMOOTH"
);
}
);
width = 584.59579;
},
{
anchors = (
{
name = bottom;
position = "{274.62, 11}";
},
{
name = top;
position = "{274.62, 490}";
}
);
hints = (
{
place = "{29, 177}";
type = Stem;
},
{
horizontal = 1;
place = "{-7, 150}";
type = Stem;
},
{
horizontal = 1;
place = "{357, 150}";
type = Stem;
}
);
layerId = "BAF31694-0472-4296-B0EA-1654553C45D2";
paths = (
{
closed = 1;
nodes = (
"393.62 -6 OFFCURVE",
"483.62 56 OFFCURVE",
"518.62 157 CURVE",
"354.62 197 LINE",
"340.62 162 OFFCURVE",
"313.62 144 OFFCURVE",
"282.62 144 CURVE SMOOTH",
"241.62 144 OFFCURVE",
"205.62 182 OFFCURVE",
"205.62 251 CURVE SMOOTH",
"205.62 318 OFFCURVE",
"241.62 357 OFFCURVE",
"282.62 357 CURVE SMOOTH",
"313.62 357 OFFCURVE",
"341.62 337 OFFCURVE",
"353.62 304 CURVE",
"518.62 343 LINE",
"483.62 448 OFFCURVE",
"395.62 508 OFFCURVE",
"281.62 508 CURVE SMOOTH",
"133.62 508 OFFCURVE",
"28.62 409 OFFCURVE",
"28.62 251 CURVE SMOOTH",
"28.62 92 OFFCURVE",
"133.62 -7 OFFCURVE",
"281.62 -7 CURVE SMOOTH"
);
}
);
width = 553.12;
}
);
leftMetricsKey = o;
rightMetricsKey = "=o*1.2";
unicode = 0063;
},
{
glyphname = d;
lastChange = "2021-08-13 16:03:00 +0000";
layers = (
{
anchors = (
{
name = topright;
position = "{553.25, 664}";
}
);
hints = (
{
place = "{38, 116}";
type = Stem;
},
{
place = "{431, 114}";
type = Stem;
},
{
horizontal = 1;
place = "{-8, 98}";
type = Stem;
},
{
horizontal = 1;
place = "{410, 98}";
type = Stem;
},
{
horizontal = 1;
place = "{720, -20}";
target = down;
type = TopGhost;
}
);
layerId = "0CF0EA28-C756-4A9E-9D7C-CFEF350B4CFE";
paths = (
{
closed = 1;
nodes = (
"431.25 439 LINE",
"395.25 477 OFFCURVE",
"336.25 509 OFFCURVE",
"266.25 509 CURVE SMOOTH",
"133.25 509 OFFCURVE",
"38.25 407 OFFCURVE",
"38.25 253 CURVE SMOOTH",
"38.25 98 OFFCURVE",
"133.25 -8 OFFCURVE",
"266.25 -8 CURVE SMOOTH",
"341.25 -8 OFFCURVE",
"397.25 23 OFFCURVE",
"433.25 62 CURVE",
"441.25 0 LINE",
"545.25 0 LINE",
"545.25 720 LINE",
"431.25 720 LINE"
);
},
{
closed = 1;
nodes = (
"154.25 355 OFFCURVE",
"215.25 410 OFFCURVE",
"288.25 410 CURVE SMOOTH",
"361.25 410 OFFCURVE",
"431.25 353 OFFCURVE",
"431.25 251 CURVE SMOOTH",
"431.25 148 OFFCURVE",
"361.25 90 OFFCURVE",
"288.25 90 CURVE SMOOTH",
"215.25 90 OFFCURVE",
"154.25 150 OFFCURVE",
"154.25 253 CURVE SMOOTH"
);
}
);
width = 621.75;
},
{
anchors = (
{
name = topright;
position = "{513.25, 719}";
}
);
hints = (
{
place = "{47, 22}";
type = Stem;
},
{
place = "{503, 22}";
type = Stem;
},
{
horizontal = 1;
place = "{-6, 21}";
target = up;
type = BottomGhost;
},
{
horizontal = 1;
place = "{721, -20}";
target = down;
type = TopGhost;
}
);
layerId = "6E968933-CD79-43C6-9231-80D77C940F4D";
paths = (
{
closed = 1;
nodes = (
"503.25 357 LINE",
"473.25 441 OFFCURVE",
"403.25 508 OFFCURVE",
"288.25 508 CURVE SMOOTH",
"145.25 508 OFFCURVE",
"47.25 410 OFFCURVE",
"47.25 251 CURVE SMOOTH",
"47.25 91 OFFCURVE",
"145.25 -7 OFFCURVE",
"288.25 -7 CURVE SMOOTH",
"405.25 -7 OFFCURVE",
"475.25 58 OFFCURVE",
"503.25 144 CURVE",
"503.25 0 LINE",
"525.25 0 LINE",
"525.25 721 LINE",
"503.25 721 LINE"
);
},
{
closed = 1;
nodes = (
"69.25 398 OFFCURVE",
"153.25 488 OFFCURVE",
"289.25 488 CURVE SMOOTH",
"418.25 488 OFFCURVE",
"503.25 394 OFFCURVE",
"503.25 251 CURVE SMOOTH",
"503.25 108 OFFCURVE",
"418.25 13 OFFCURVE",
"289.25 13 CURVE SMOOTH",
"153.25 13 OFFCURVE",
"69.25 103 OFFCURVE",
"69.25 251 CURVE SMOOTH"
);
}
);
width = 619.55277;
},
{
anchors = (
{
name = topright;
position = "{531.85, 646}";
}
);
hints = (
{
place = "{24, 179}";
type = Stem;
},
{
place = "{377, 176}";
type = Stem;
},
{
horizontal = 1;
place = "{-7, 153}";
type = Stem;
},
{
horizontal = 1;
place = "{355, 153}";
type = Stem;
},
{
horizontal = 1;
place = "{720, -20}";
target = down;
type = TopGhost;
}
);
layerId = "BAF31694-0472-4296-B0EA-1654553C45D2";
paths = (
{
closed = 1;
nodes = (
"376.85 454 LINE",
"345.85 484 OFFCURVE",
"299.85 508 OFFCURVE",
"242.85 508 CURVE SMOOTH",
"117.85 508 OFFCURVE",
"23.85 410 OFFCURVE",
"23.85 251 CURVE SMOOTH",
"23.85 93 OFFCURVE",
"118.85 -7 OFFCURVE",
"242.85 -7 CURVE SMOOTH",
"304.85 -7 OFFCURVE",
"350.85 19 OFFCURVE",
"382.85 53 CURVE",
"392.85 0 LINE",
"552.847 0 LINE",
"552.85 720 LINE",
"376.85 720 LINE"
);
},
{
closed = 1;
nodes = (
"201.85 319 OFFCURVE",
"240.85 355 OFFCURVE",
"287.85 355 CURVE SMOOTH",
"334.85 355 OFFCURVE",
"376.85 318 OFFCURVE",
"376.85 251 CURVE SMOOTH",
"376.85 183 OFFCURVE",
"334.85 146 OFFCURVE",
"287.85 146 CURVE SMOOTH",
"240.85 146 OFFCURVE",
"201.85 184 OFFCURVE",
"201.85 251 CURVE SMOOTH"
);
}
);
width = 600.77217;
}
);
leftMetricsKey = "=l*0.5";
rightMetricsKey = l;
unicode = 0064;
},
{
glyphname = eth;
lastChange = "2021-08-13 16:03:00 +0000";
layers = (
{
hints = (
{
place = "{46, 117}";
type = Stem;
},
{
place = "{442, 117}";
type = Stem;
},
{
horizontal = 1;
place = "{-8, 96}";
type = Stem;
},
{
horizontal = 1;
place = "{413, 96}";
type = Stem;
}
);
layerId = "0CF0EA28-C756-4A9E-9D7C-CFEF350B4CFE";
paths = (
{
closed = 1;
nodes = (
"247.9 586 LINE",
"247.9 521 LINE",
"515.9 609 LINE",
"515.9 674 LINE"
);
},
{
closed = 1;
nodes = (
"155.9 509 OFFCURVE",
"45.9 408 OFFCURVE",
"45.9 251 CURVE SMOOTH",
"45.9 94 OFFCURVE",
"154.9 -8 OFFCURVE",
"298.9 -8 CURVE SMOOTH",
"445.9 -8 OFFCURVE",
"558.9 92 OFFCURVE",
"558.9 287 CURVE SMOOTH",
"558.9 434 OFFCURVE",
"488.9 563 OFFCURVE",
"363.9 669 CURVE",
"243.9 669 LINE",
"328.9 599 OFFCURVE",
"384.9 536 OFFCURVE",
"418.9 471 CURVE",
"383.9 496 OFFCURVE",
"344.9 509 OFFCURVE",
"291.9 509 CURVE SMOOTH"
);
},
{
closed = 1;
nodes = (
"225.9 88 OFFCURVE",
"162.9 143 OFFCURVE",
"162.9 251 CURVE SMOOTH",
"162.9 359 OFFCURVE",
"227.9 413 OFFCURVE",
"299.9 413 CURVE SMOOTH",
"373.9 413 OFFCURVE",
"441.9 359 OFFCURVE",
"441.9 251 CURVE SMOOTH",
"441.9 143 OFFCURVE",
"370.9 88 OFFCURVE",
"298.9 88 CURVE SMOOTH"
);
}
);
width = 604.8;
},
{
hints = (
{
place = "{56, 22}";
type = Stem;
},
{
place = "{522, 22}";
type = Stem;
},
{
horizontal = 1;
place = "{-6, 21}";
target = up;
type = BottomGhost;
}
);
layerId = "6E968933-CD79-43C6-9231-80D77C940F4D";
paths = (
{
closed = 1;
nodes = (
"235.7 585 LINE",
"235.7 565 LINE",
"518.7 668 LINE",
"518.7 688 LINE"
);
},
{
closed = 1;
nodes = (
"152.7 513 OFFCURVE",
"56.7 413 OFFCURVE",
"56.7 265 CURVE SMOOTH",
"56.7 105 OFFCURVE",
"148.7 -7 OFFCURVE",
"301.7 -7 CURVE SMOOTH",
"445.7 -7 OFFCURVE",
"545.7 88 OFFCURVE",
"545.7 285 CURVE SMOOTH",
"545.7 445 OFFCURVE",
"479.7 567 OFFCURVE",
"322.7 686 CURVE",
"297.7 686 LINE",
"446.7 569 OFFCURVE",
"504.7 469 OFFCURVE",
"526.7 340 CURVE",
"489.7 455 OFFCURVE",
"398.7 513 OFFCURVE",
"301.7 513 CURVE SMOOTH"
);
},
{
closed = 1;
nodes = (
"171.7 13 OFFCURVE",
"79.7 106 OFFCURVE",
"79.7 265 CURVE SMOOTH",
"79.7 411 OFFCURVE",
"174.7 493 OFFCURVE",
"301.7 493 CURVE SMOOTH",
"422.7 493 OFFCURVE",
"523.7 407 OFFCURVE",
"523.7 251 CURVE SMOOTH",
"523.7 100 OFFCURVE",
"425.7 13 OFFCURVE",
"301.7 13 CURVE SMOOTH"
);
}
);
width = 602.27511;
},
{
hints = (
{
place = "{20, 50}";
type = Stem;
},
{
place = "{197, 179}";
type = Stem;
},
{
horizontal = 1;
place = "{187, 170}";
type = Stem;
},
{
horizontal = 1;
place = "{172, 151}";
type = Stem;
}
);
layerId = "BAF31694-0472-4296-B0EA-1654553C45D2";
paths = (
{
closed = 1;
nodes = (
"231.62 581 LINE",
"231.62 500 LINE",
"493.62 579 LINE",
"493.62 660 LINE"
);
},
{
closed = 1;
nodes = (
"139.62 506 OFFCURVE",
"28.62 409 OFFCURVE",
"28.62 252 CURVE SMOOTH",
"28.62 94 OFFCURVE",
"148.62 -6 OFFCURVE",
"294.62 -6 CURVE SMOOTH",
"439.62 -6 OFFCURVE",
"556.62 93 OFFCURVE",
"556.62 283 CURVE SMOOTH",
"556.62 423 OFFCURVE",
"484.62 558 OFFCURVE",
"379.62 657 CURVE",
"208.62 657 LINE",
"268.62 606 OFFCURVE",
"319.62 547 OFFCURVE",
"352.62 489 CURVE",
"330.62 500 OFFCURVE",
"307.62 506 OFFCURVE",
"278.62 506 CURVE SMOOTH"
);
},
{
closed = 1;
nodes = (
"251.62 144 OFFCURVE",
"207.62 177 OFFCURVE",
"207.62 251 CURVE SMOOTH",
"207.62 324 OFFCURVE",
"250.62 356 OFFCURVE",
"292.62 356 CURVE SMOOTH",
"334.62 356 OFFCURVE",
"377.62 324 OFFCURVE",
"377.62 251 CURVE SMOOTH",
"377.62 177 OFFCURVE",
"335.62 144 OFFCURVE",
"294.62 144 CURVE SMOOTH"
);
}
);
width = 585.37198;
}
);
leftMetricsKey = o;
rightMetricsKey = o;
unicode = 00F0;
},
{
glyphname = dcaron;
lastChange = "2021-08-13 16:04:25 +0000";
layers = (
{
components = (
{
alignment = -1;
name = d;
transform = "{1, 0, 0, 1, -0.01, 0}";
}
);
hints = (
{
place = "{588, 117}";
type = Stem;
},
{
place = "{592, 113}";
type = Stem;
},
{
place = "{635, 70}";
type = Stem;
},
{
horizontal = 1;
place = "{572, 97}";
type = Stem;
},
{
horizontal = 1;
place = "{459, 21}";
target = up;
type = BottomGhost;
}
);
layerId = "0CF0EA28-C756-4A9E-9D7C-CFEF350B4CFE";
paths = (
{
closed = 1;
nodes = (
"587.99 669 LINE",
"587.99 572 LINE",
"634.99 572 LINE",
"634.99 559 LINE SMOOTH",
"634.99 529 OFFCURVE",
"621.99 514 OFFCURVE",
"590.99 514 CURVE",
"590.99 459 LINE",
"666.99 459 OFFCURVE",
"704.99 498 OFFCURVE",
"704.99 575 CURVE SMOOTH",
"704.99 602 OFFCURVE",
"699.99 633 OFFCURVE",
"690.99 669 CURVE"
);
}
);
width = 781.49;
},
{
components = (
{
alignment = -1;
name = d;
transform = "{1, 0, 0, 1, -0.01, 0}";
}
);
hints = (
{
place = "{572, 57}";
type = Stem;
},
{
place = "{606, 24}";
type = Stem;
},
{
horizontal = 1;
place = "{672, -20}";
target = down;
type = TopGhost;
},
{
horizontal = 1;
place = "{547, 21}";
target = up;
type = BottomGhost;
}
);
layerId = "6E968933-CD79-43C6-9231-80D77C940F4D";
paths = (
{
closed = 1;
nodes = (
"571.99 686 LINE",
"571.99 635 LINE",
"606.99 635 LINE",
"606.99 609 LINE SMOOTH",
"606.99 582 OFFCURVE",
"597.99 568 OFFCURVE",
"564.99 568 CURVE",
"564.99 547 LINE",
"603.99 547 OFFCURVE",
"629.99 562 OFFCURVE",
"629.99 621 CURVE SMOOTH",
"629.99 638 OFFCURVE",
"628.99 659 OFFCURVE",
"625.99 686 CURVE"
);
}
);
width = 724.28957;
},
{
components = (
{
alignment = -1;
name = d;
transform = "{1, 0, 0, 1, 0.003, 0}";
}
);
hints = (
{
place = "{250, 50}";
type = Stem;
},
{
place = "{568, 157}";
type = Stem;
},
{
place = "{595, 130}";
type = Stem;
},
{
horizontal = 1;
place = "{528, 129}";
type = Stem;
},
{
horizontal = 1;
place = "{401, 21}";
target = up;
type = BottomGhost;
}
);
layerId = "BAF31694-0472-4296-B0EA-1654553C45D2";
paths = (
{
closed = 1;
nodes = (
"566 657 LINE",
"566 528 LINE",
"621 528 LINE",
"621 521 LINE SMOOTH",
"619 494 OFFCURVE",
"604 480 OFFCURVE",
"576 480 CURVE",
"576 401 LINE",
"677 401 OFFCURVE",
"724 460 OFFCURVE",
"724 544 CURVE SMOOTH",
"724 576 OFFCURVE",
"718 614 OFFCURVE",
"703 657 CURVE"
);
}
);
width = 771.91642;
}
);
leftMetricsKey = d;
rightMetricsKey = d;
unicode = 010F;
},
{
glyphname = dcroat;
lastChange = "2021-08-13 16:03:59 +0000";
layers = (
{
components = (
{
alignment = -1;
name = d;
transform = "{1, 0, 0, 1, -0.01, 0}";
}
);
hints = (
{
horizontal = 1;
place = "{525, 69}";
type = Stem;
}
);
layerId = "0CF0EA28-C756-4A9E-9D7C-CFEF350B4CFE";
paths = (
{
closed = 1;
nodes = (
"366.99 525 LINE",
"607.99 525 LINE",
"607.99 594 LINE",
"366.99 594 LINE"
);
}
);
width = 684.49;
},
{
components = (
{
alignment = -1;
name = d;
transform = "{1, 0, 0, 1, -0.01, 0}";
}
);
hints = (
{
horizontal = 1;
place = "{589, 21}";
target = up;
type = BottomGhost;
},
{
horizontal = 1;
place = "{607, -20}";
target = down;
type = TopGhost;
}
);
layerId = "6E968933-CD79-43C6-9231-80D77C940F4D";
paths = (
{
closed = 1;
nodes = (
"312.99 600 LINE",
"583.99 600 LINE",
"583.99 619 LINE",
"312.99 619 LINE"
);
}
);
width = 678.29106;
},
{
components = (
{
alignment = -1;
name = d;
transform = "{1, 0, 0, 1, 0.003, 0}";
}
);
hints = (
{
horizontal = 1;
place = "{507, 93}";
type = Stem;
}
);
layerId = "BAF31694-0472-4296-B0EA-1654553C45D2";
paths = (
{
closed = 1;
nodes = (
"309 507 LINE",
"598 507 LINE",
"598 600 LINE",
"309 600 LINE"
);
}
);
width = 645.92415;
}
);
leftMetricsKey = d;
rightMetricsKey = d;
unicode = 0111;
},
{
glyphname = e;
lastChange = "2021-08-13 16:02:40 +0000";
layers = (
{
anchors = (
{
name = bottom;
position = "{293.9, 5}";
},
{
name = ogonek;
position = "{379.9, 5}";
},
{
name = right;
position = "{3081.9, 238}";
},
{
name = top;
position = "{293.9, 496}";
}
);
hints = (
{
place = "{414, 119}";
type = Stem;
},
{
horizontal = 1;
place = "{-8, 96}";
type = Stem;
},
{
horizontal = 1;
place = "{207, 92}";
type = Stem;
},
{
horizontal = 1;
place = "{413, 96}";
type = Stem;
}
);
layerId = "0CF0EA28-C756-4A9E-9D7C-CFEF350B4CFE";
paths = (
{
closed = 1;
nodes = (
"406.9 -8 OFFCURVE",
"483.9 42 OFFCURVE",
"522.9 119 CURVE",
"418.9 157 LINE",
"396.9 112 OFFCURVE",
"357.9 88 OFFCURVE",
"291.9 88 CURVE SMOOTH",
"222.9 88 OFFCURVE",
"170.9 132 OFFCURVE",
"163.9 207 CURVE",
"527.9 207 LINE",
"531.9 228 OFFCURVE",
"532.9 245 OFFCURVE",
"532.9 262 CURVE SMOOTH",
"532.9 410 OFFCURVE",
"434.9 509 OFFCURVE",
"291.9 509 CURVE SMOOTH",
"142.9 509 OFFCURVE",
"45.9 408 OFFCURVE",
"45.9 251 CURVE SMOOTH",
"45.9 94 OFFCURVE",
"150.9 -8 OFFCURVE",
"294.9 -8 CURVE SMOOTH"
);
},
{
closed = 1;
nodes = (
"164.9 299 LINE",
"176.9 368 OFFCURVE",
"224.9 413 OFFCURVE",
"286.9 413 CURVE SMOOTH",
"357.9 413 OFFCURVE",
"410.9 371 OFFCURVE",
"413.9 299 CURVE"
);
}
);
width = 578.8;
},
{
anchors = (
{
name = bottom;
position = "{292.7, 1}";
},
{
name = ogonek;
position = "{334.7, -3}";
},
{
name = right;
position = "{3186.7, 243}";
},
{
name = top;
position = "{292.7, 501}";
}
);
hints = (
{
place = "{59, 22}";
type = Stem;
},
{
place = "{492, 22}";
type = Stem;
},
{
horizontal = 1;
place = "{497, -20}";
target = down;
type = TopGhost;
},
{
horizontal = 1;
place = "{-6, 21}";
target = up;
type = BottomGhost;
}
);
layerId = "6E968933-CD79-43C6-9231-80D77C940F4D";
paths = (
{
closed = 1;
nodes = (
"401.7 -6 OFFCURVE",
"476.7 49 OFFCURVE",
"508.7 130 CURVE",
"489.7 137 LINE",
"457.7 59 OFFCURVE",
"386.7 14 OFFCURVE",
"289.7 14 CURVE SMOOTH",
"178.7 14 OFFCURVE",
"80.7 86 OFFCURVE",
"78.7 251 CURVE",
"515.7 251 LINE",
"516.7 268 OFFCURVE",
"515.7 282 OFFCURVE",
"515.7 292 CURVE SMOOTH",
"515.7 399 OFFCURVE",
"442.7 508 OFFCURVE",
"289.7 508 CURVE SMOOTH",
"150.7 508 OFFCURVE",
"56.7 413 OFFCURVE",
"56.7 256 CURVE SMOOTH",
"56.7 95 OFFCURVE",
"150.7 -6 OFFCURVE",
"289.7 -6 CURVE SMOOTH"
);
},
{
closed = 1;
nodes = (
"78.7 271 LINE",
"83.7 422 OFFCURVE",
"182.7 488 OFFCURVE",
"289.7 488 CURVE SMOOTH",
"403.7 488 OFFCURVE",
"503.7 412 OFFCURVE",
"493.7 271 CURVE"
);
}
);
width = 572.72702;
},
{
anchors = (
{
name = bottom;
position = "{282.62, 8}";
},
{
name = ogonek;
position = "{364.62, 7}";
},
{
name = right;
position = "{2969.62, 236}";
},
{
name = top;
position = "{282.62, 494}";
}
);
hints = (
{
place = "{176, 51}";
type = Stem;
},
{
horizontal = 1;
place = "{-7, 142}";
type = Stem;
},
{
horizontal = 1;
place = "{205, 104}";
type = Stem;
},
{
horizontal = 1;
place = "{370, 138}";
type = Stem;
}
);
layerId = "BAF31694-0472-4296-B0EA-1654553C45D2";
paths = (
{
closed = 1;
nodes = (
"399.62 -6 OFFCURVE",
"488.62 50 OFFCURVE",
"527.62 143 CURVE",
"359.62 181 LINE",
"343.62 151 OFFCURVE",
"321.62 135 OFFCURVE",
"282.62 135 CURVE SMOOTH",
"243.62 135 OFFCURVE",
"212.62 161 OFFCURVE",
"203.62 205 CURVE",
"528.62 205 LINE",
"531.62 226 OFFCURVE",
"532.62 244 OFFCURVE",
"532.62 258 CURVE SMOOTH",
"532.62 411 OFFCURVE",
"429.62 508 OFFCURVE",
"281.62 508 CURVE SMOOTH",
"130.62 508 OFFCURVE",
"28.62 409 OFFCURVE",
"28.62 251 CURVE SMOOTH",
"28.62 92 OFFCURVE",
"134.62 -7 OFFCURVE",
"282.62 -7 CURVE SMOOTH"
);
},
{
closed = 1;
nodes = (
"205.62 308 LINE",
"216.62 346 OFFCURVE",
"243.62 370 OFFCURVE",
"279.62 370 CURVE SMOOTH",
"318.62 371 OFFCURVE",
"347.62 347 OFFCURVE",
"353.62 308 CURVE"
);
}
);
width = 561.37104;
}
);
leftMetricsKey = o;
rightMetricsKey = o;
unicode = 0065;
},
{
glyphname = f;
lastChange = "2021-08-13 16:02:42 +0000";
layers = (
{
hints = (
{
place = "{94, 115}";
type = Stem;
},
{
place = "{94, 199}";
type = Stem;
},
{
horizontal = 1;
place = "{400, 99}";
type = Stem;
},
{
horizontal = 1;
place = "{0, 21}";
target = up;
type = BottomGhost;
}
);
layerId = "0CF0EA28-C756-4A9E-9D7C-CFEF350B4CFE";
paths = (
{
closed = 1;
nodes = (
"94.425 0 LINE",
"209.425 0 LINE",
"209.425 553 LINE SMOOTH",
"209.425 606 OFFCURVE",
"230.425 632 OFFCURVE",
"293.425 626 CURVE",
"293.425 720 LINE",
"156.425 730 OFFCURVE",
"94.425 670 OFFCURVE",
"94.425 553 CURVE SMOOTH"
);
},
{
closed = 1;
nodes = (
"34.425 400 LINE",
"300.425 400 LINE",
"300.425 500 LINE",
"34.425 500 LINE"
);
}
);
width = 334.85;
},
{
hints = (
{
place = "{128, 22}";
type = Stem;
},
{
horizontal = 1;
place = "{472, 25}";
type = Stem;
},
{
horizontal = 1;
place = "{498, 198}";
type = Stem;
},
{
horizontal = 1;
place = "{0, 21}";
target = up;
type = BottomGhost;
}
);
layerId = "6E968933-CD79-43C6-9231-80D77C940F4D";
paths = (
{
closed = 1;
nodes = (
"128.525 0 LINE",
"150.525 0 LINE",
"150.525 569 LINE SMOOTH",
"150.525 657 OFFCURVE",
"183.525 706 OFFCURVE",
"292.525 698 CURVE",
"292.525 720 LINE",
"169.525 730 OFFCURVE",
"128.525 667 OFFCURVE",
"128.525 569 CURVE SMOOTH"
);
},
{
closed = 1;
nodes = (
"42.525 478 LINE",
"292.525 478 LINE",
"292.525 500 LINE",
"42.525 500 LINE"
);
}
);
width = 334.96222;
},
{
hints = (
{
place = "{40, 49}";
type = Stem;
},
{
place = "{76, 212}";
type = Stem;
},
{
horizontal = 1;
place = "{352, 148}";
type = Stem;
},
{
horizontal = 1;
place = "{0, 21}";
target = up;
type = BottomGhost;
}
);
layerId = "BAF31694-0472-4296-B0EA-1654553C45D2";
paths = (
{
closed = 1;
nodes = (
"75.465 0 LINE",
"251.465 0 LINE",
"251.465 513 LINE SMOOTH",
"251.465 560 OFFCURVE",
"277.465 581 OFFCURVE",
"327.465 573 CURVE",
"327.465 720 LINE",
"179.465 736 OFFCURVE",
"75.465 682 OFFCURVE",
"75.465 529 CURVE SMOOTH"
);
},
{
closed = 1;
nodes = (
"21.465 352 LINE",
"330.465 352 LINE",
"330.465 500 LINE",
"21.465 500 LINE"
);
}
);
width = 352.02557;
}
);
leftMetricsKey = "=l*0.45";
rightMetricsKey = "=l*0.45";
unicode = 0066;
},
{
glyphname = g;
lastChange = "2021-08-13 16:02:43 +0000";
layers = (
{
anchors = (
{
name = top;
position = "{311.9, 496}";
}
);
hints = (
{
place = "{46, 117}";
type = Stem;
},
{
place = "{438, 115}";
type = Stem;
},
{
horizontal = 1;
place = "{-200, 96}";
type = Stem;
},
{
horizontal = 1;
place = "{-8, 98}";
type = Stem;
},
{
horizontal = 1;
place = "{410, 98}";
type = Stem;
}
);
layerId = "0CF0EA28-C756-4A9E-9D7C-CFEF350B4CFE";
paths = (
{
closed = 1;
nodes = (
"439.9 439 LINE",
"405.9 477 OFFCURVE",
"348.9 509 OFFCURVE",
"274.9 509 CURVE SMOOTH",
"141.9 509 OFFCURVE",
"45.9 407 OFFCURVE",
"45.9 253 CURVE SMOOTH",
"45.9 98 OFFCURVE",
"141.9 -8 OFFCURVE",
"274.9 -8 CURVE",
"355.9 -8 OFFCURVE",
"416.9 34 OFFCURVE",
"448.9 76 CURVE",
"437.9 76 LINE",
"437.9 75 LINE SMOOTH",
"437.9 -52 OFFCURVE",
"319.9 -97 OFFCURVE",
"181.9 -104 CURVE",
"198.9 -200 LINE",
"400.9 -196 OFFCURVE",
"552.9 -100 OFFCURVE",
"552.9 75 CURVE SMOOTH",
"552.9 500 LINE",
"447.9 500 LINE"
);
},
{
closed = 1;
nodes = (
"162.9 355 OFFCURVE",
"223.9 410 OFFCURVE",
"295.9 410 CURVE SMOOTH",
"368.9 410 OFFCURVE",
"437.9 353 OFFCURVE",
"437.9 251 CURVE SMOOTH",
"437.9 148 OFFCURVE",
"368.9 90 OFFCURVE",
"295.9 90 CURVE SMOOTH",
"223.9 90 OFFCURVE",
"162.9 150 OFFCURVE",
"162.9 253 CURVE SMOOTH"
);
}
);
width = 629.4;
},
{
anchors = (
{
name = top;
position = "{304.7, 501}";
}
);
hints = (
{
place = "{52, 22}";
type = Stem;
},
{
place = "{503, 22}";
type = Stem;
},
{
horizontal = 1;
place = "{-187, 210}";
type = Stem;
},
{
horizontal = 1;
place = "{497, -20}";
target = down;
type = TopGhost;
}
);
layerId = "6E968933-CD79-43C6-9231-80D77C940F4D";
paths = (
{
closed = 1;
nodes = (
"513.7 359 LINE",
"484.7 441 OFFCURVE",
"409.7 508 OFFCURVE",
"294.7 508 CURVE SMOOTH",
"150.7 508 OFFCURVE",
"56.7 410 OFFCURVE",
"56.7 251 CURVE SMOOTH",
"56.7 91 OFFCURVE",
"150.7 -7 OFFCURVE",
"294.7 -7 CURVE",
"410.7 -5 OFFCURVE",
"486.7 61 OFFCURVE",
"514.7 147 CURVE",
"512.7 147 LINE",
"512.7 120 LINE SMOOTH",
"512.7 -104 OFFCURVE",
"372.7 -174 OFFCURVE",
"197.7 -181 CURVE",
"200.7 -200 LINE",
"382.7 -194 OFFCURVE",
"535.7 -120 OFFCURVE",
"535.7 120 CURVE SMOOTH",
"535.7 500 LINE",
"513.7 500 LINE"
);
},
{
closed = 1;
nodes = (
"79.7 398 OFFCURVE",
"159.7 488 OFFCURVE",
"295.7 488 CURVE SMOOTH",
"423.7 488 OFFCURVE",
"512.7 394 OFFCURVE",
"512.7 251 CURVE SMOOTH",
"512.7 108 OFFCURVE",
"423.7 13 OFFCURVE",
"295.7 13 CURVE SMOOTH",
"159.7 13 OFFCURVE",
"79.7 103 OFFCURVE",
"79.7 251 CURVE SMOOTH"
);
}
);
width = 630.0034;
},
{
anchors = (
{
name = top;
position = "{308.62, 490}";
}
);
hints = (
{
place = "{29, 179}";
type = Stem;
},
{
place = "{382, 176}";
type = Stem;
},
{
horizontal = 1;
place = "{-201, 136}";
type = Stem;
},
{
horizontal = 1;
place = "{-7, 153}";
type = Stem;
},
{
horizontal = 1;
place = "{355, 153}";
type = Stem;
}
);
layerId = "BAF31694-0472-4296-B0EA-1654553C45D2";
paths = (
{
closed = 1;
nodes = (
"387.62 451 LINE",
"356.62 484 OFFCURVE",
"308.62 508 OFFCURVE",
"247.62 508 CURVE SMOOTH",
"123.62 508 OFFCURVE",
"28.62 410 OFFCURVE",
"28.62 251 CURVE SMOOTH",
"28.62 93 OFFCURVE",
"123.62 -7 OFFCURVE",
"247.62 -7 CURVE",
"322.62 -7 OFFCURVE",
"378.62 30 OFFCURVE",
"407.62 77 CURVE",
"381.62 61 LINE",
"381.62 59 LINE SMOOTH",
"381.62 -42 OFFCURVE",
"273.62 -60 OFFCURVE",
"167.62 -65 CURVE",
"194.62 -201 LINE",
"403.62 -196 OFFCURVE",
"557.62 -113 OFFCURVE",
"557.62 71 CURVE SMOOTH",
"557.62 500 LINE",
"397.62 500 LINE"
);
},
{
closed = 1;
nodes = (
"207.62 319 OFFCURVE",
"245.62 355 OFFCURVE",
"292.62 355 CURVE SMOOTH",
"339.62 355 OFFCURVE",
"381.62 318 OFFCURVE",
"381.62 251 CURVE SMOOTH",
"381.62 183 OFFCURVE",
"339.62 146 OFFCURVE",
"292.62 146 CURVE SMOOTH",
"245.62 146 OFFCURVE",
"207.62 184 OFFCURVE",
"207.62 251 CURVE SMOOTH"
);
}
);
width = 605.54142;
}
);
leftMetricsKey = o;
rightMetricsKey = l;
unicode = 0067;
},
{
glyphname = gcommaaccent;
lastChange = "2021-08-13 16:03:57 +0000";
layers = (
{
components = (
{
alignment = -1;
name = g;
}
);
hints = (
{
place = "{218, 70}";
type = Stem;
},
{
place = "{218, 116}";
type = Stem;
},
{
place = "{218, 112}";
type = Stem;
},
{
horizontal = 1;
place = "{531, 97}";
type = Stem;
},
{
horizontal = 1;
place = "{741, -20}";
target = down;
type = TopGhost;
}
);
layerId = "0CF0EA28-C756-4A9E-9D7C-CFEF350B4CFE";
paths = (
{
closed = 1;
nodes = (
"333 531 LINE",
"333 628 LINE",
"287 628 LINE",
"287 641 LINE SMOOTH",
"287 671 OFFCURVE",
"300 686 OFFCURVE",
"330 686 CURVE",
"330 741 LINE",
"256 741 OFFCURVE",
"218 702 OFFCURVE",
"218 625 CURVE SMOOTH",
"218 599 OFFCURVE",
"221 568 OFFCURVE",
"230 531 CURVE"
);
}
);
width = 629.4;
},
{
components = (
{
alignment = -1;
name = g;
}
);
hints = (
{
place = "{287, 24}";
type = Stem;
},
{
place = "{293, 58}";
type = Stem;
},
{
horizontal = 1;
place = "{537, 21}";
target = up;
type = BottomGhost;
},
{
horizontal = 1;
place = "{688, -20}";
target = down;
type = TopGhost;
}
);
layerId = "6E968933-CD79-43C6-9231-80D77C940F4D";
paths = (
{
closed = 1;
nodes = (
"344 549 LINE",
"344 600 LINE",
"309 600 LINE",
"309 626 LINE SMOOTH",
"309 653 OFFCURVE",
"318 667 OFFCURVE",
"351 667 CURVE",
"351 688 LINE",
"312 688 OFFCURVE",
"286 673 OFFCURVE",
"286 614 CURVE SMOOTH",
"286 597 OFFCURVE",
"287 576 OFFCURVE",
"290 549 CURVE"
);
}
);
width = 630.00319;
},
{
components = (
{
alignment = -1;
name = g;
}
);
hints = (
{
place = "{93, 30}";
type = Stem;
},
{
place = "{216, 157}";
type = Stem;
},
{
place = "{216, 148}";
type = Stem;
},
{
horizontal = 1;
place = "{513, 129}";
type = Stem;
},
{
horizontal = 1;
place = "{769, -20}";
target = down;
type = TopGhost;
}
);
layerId = "BAF31694-0472-4296-B0EA-1654553C45D2";
paths = (
{
closed = 1;
nodes = (
"373 513 LINE",
"373 642 LINE",
"319 642 LINE",
"321 657 LINE SMOOTH",
"325 680 OFFCURVE",
"339 691 OFFCURVE",
"363 691 CURVE",
"363 769 LINE",
"263 769 OFFCURVE",
"216 710 OFFCURVE",
"216 626 CURVE SMOOTH",
"216 595 OFFCURVE",
"222 557 OFFCURVE",
"236 513 CURVE"
);
}
);
width = 605.54142;
}
);
leftMetricsKey = g;
rightMetricsKey = g;
unicode = 0123;
},
{
glyphname = h;
lastChange = "2021-08-13 16:02:10 +0000";
layers = (
{
hints = (
{
place = "{77, 114}";
type = Stem;
},
{
place = "{411, 113}";
type = Stem;
},
{
horizontal = 1;
place = "{410, 98}";
type = Stem;
},
{
horizontal = 1;
place = "{720, -20}";
target = down;
type = TopGhost;
},
{
horizontal = 1;
place = "{0, 21}";
target = up;
type = BottomGhost;
}
);
layerId = "0CF0EA28-C756-4A9E-9D7C-CFEF350B4CFE";
paths = (
{
closed = 1;
nodes = (
"76.5 0 LINE",
"190.5 0 LINE",
"190.5 720 LINE",
"76.5 720 LINE"
);
},
{
closed = 1;
nodes = (
"409.5 0 LINE",
"522.5 0 LINE",
"522.5 294 LINE SMOOTH",
"522.5 435 OFFCURVE",
"444.5 509 OFFCURVE",
"331.5 509 CURVE SMOOTH",
"243.5 509 OFFCURVE",
"172.5 462 OFFCURVE",
"150.5 390 CURVE",
"178.5 277 LINE",
"190.5 278 LINE",
"190.5 365 OFFCURVE",
"232.5 410 OFFCURVE",
"302.5 410 CURVE SMOOTH",
"372.5 410 OFFCURVE",
"409.5 366 OFFCURVE",
"409.5 279 CURVE SMOOTH"
);
}
);
width = 591.35;
},
{
hints = (
{
place = "{102, 22}";
type = Stem;
},
{
horizontal = 1;
place = "{720, -20}";
target = down;
type = TopGhost;
},
{
horizontal = 1;
place = "{0, 21}";
target = up;
type = BottomGhost;
}
);
layerId = "6E968933-CD79-43C6-9231-80D77C940F4D";
paths = (
{
closed = 1;
nodes = (
"94.5 0 LINE",
"116.5 0 LINE",
"116.5 720 LINE",
"94.5 720 LINE"
);
},
{
closed = 1;
nodes = (
"482.5 0 LINE",
"503.5 0 LINE",
"503.5 283 LINE SMOOTH",
"503.5 438 OFFCURVE",
"417.5 508 OFFCURVE",
"307.5 508 CURVE SMOOTH",
"198.5 508 OFFCURVE",
"113.5 446 OFFCURVE",
"107.5 314 CURVE",
"114.5 257 LINE",
"116.5 257 LINE",
"116.5 411 OFFCURVE",
"194.5 489 OFFCURVE",
"306.5 489 CURVE SMOOTH",
"415.5 489 OFFCURVE",
"482.5 416 OFFCURVE",
"482.5 284 CURVE SMOOTH"
);
}
);
width = 588.36979;
},
{
hints = (
{
place = "{33, 48}";
type = Stem;
},
{
place = "{191, 176}";
type = Stem;
},
{
horizontal = 1;
place = "{373, 169}";
type = Stem;
},
{
horizontal = 1;
place = "{720, -20}";
target = down;
type = TopGhost;
},
{
horizontal = 1;
place = "{0, 21}";
target = up;
type = BottomGhost;
}
);
layerId = "BAF31694-0472-4296-B0EA-1654553C45D2";
paths = (
{
closed = 1;
nodes = (
"47.7 0 LINE",
"223.7 0 LINE",
"223.7 720 LINE",
"47.7 720 LINE"
);
},
{
closed = 1;
nodes = (
"371.7 0 LINE",
"546.7 0 LINE",
"546.7 291 LINE SMOOTH",
"546.7 426 OFFCURVE",
"473.7 506 OFFCURVE",
"356.7 506 CURVE SMOOTH",
"265.7 506 OFFCURVE",
"202.7 449 OFFCURVE",
"178.7 386 CURVE",
"197.7 268 LINE",
"223.7 270 LINE",
"223.7 328 OFFCURVE",
"251.7 359 OFFCURVE",
"298.7 359 CURVE SMOOTH",
"345.7 359 OFFCURVE",
"371.7 328 OFFCURVE",
"371.7 271 CURVE SMOOTH"
);
}
);
width = 589.82717;
}
);
leftMetricsKey = l;
rightMetricsKey = n;
unicode = 0068;
},
{
glyphname = i;
lastChange = "2021-08-13 16:02:10 +0000";
layers = (
{
anchors = (
{
name = ogonek;
position = "{196.5, 6}";
}
);
hints = (
{
place = "{76, 142}";
type = Stem;
},
{
place = "{90, 114}";
type = Stem;
},
{
horizontal = 1;
place = "{579, 140}";
type = Stem;
},
{
horizontal = 1;
place = "{0, 21}";
target = up;
type = BottomGhost;
}
);
layerId = "0CF0EA28-C756-4A9E-9D7C-CFEF350B4CFE";
paths = (
{
closed = 1;
nodes = (
"89.5 0 LINE",
"203.5 0 LINE",
"203.5 500 LINE",
"89.5 500 LINE"
);
},
{
closed = 1;
nodes = (
"186.5 579 OFFCURVE",
"217.5 610 OFFCURVE",
"217.5 649 CURVE SMOOTH",
"217.5 689 OFFCURVE",
"186.5 720 OFFCURVE",
"147.5 720 CURVE SMOOTH",
"107.5 720 OFFCURVE",
"76.5 689 OFFCURVE",
"76.5 649 CURVE SMOOTH",
"76.5 610 OFFCURVE",
"107.5 579 OFFCURVE",
"147.5 579 CURVE SMOOTH"
);
}
);
width = 294;
},
{
anchors = (
{
name = ogonek;
position = "{126.5, 1}";
}
);
hints = (
{
place = "{95, 44}";
type = Stem;
},
{
place = "{116, 23}";
type = Stem;
},
{
horizontal = 1;
place = "{666, -20}";
target = down;
type = TopGhost;
},
{
horizontal = 1;
place = "{0, 21}";
target = up;
type = BottomGhost;
}
);
layerId = "6E968933-CD79-43C6-9231-80D77C940F4D";
paths = (
{
closed = 1;
nodes = (
"105.5 0 LINE",
"127.5 0 LINE",
"127.5 500 LINE",
"105.5 500 LINE"
);
},
{
closed = 1;
nodes = (
"128.5 636 OFFCURVE",
"138.5 644 OFFCURVE",
"138.5 658 CURVE SMOOTH",
"138.5 673 OFFCURVE",
"128.5 681 OFFCURVE",
"116.5 681 CURVE SMOOTH",
"104.5 681 OFFCURVE",
"94.5 673 OFFCURVE",
"94.5 658 CURVE SMOOTH",
"94.5 644 OFFCURVE",
"104.5 636 OFFCURVE",
"116.5 636 CURVE SMOOTH"
);
}
);
width = 232.80319;
},
{
anchors = (
{
name = ogonek;
position = "{223.7, 11}";
}
);
hints = (
{
place = "{48, 204}";
type = Stem;
},
{
place = "{62, 176}";
type = Stem;
},
{
horizontal = 1;
place = "{538, 183}";
type = Stem;
},
{
horizontal = 1;
place = "{0, 21}";
target = up;
type = BottomGhost;
}
);
layerId = "BAF31694-0472-4296-B0EA-1654553C45D2";
paths = (
{
closed = 1;
nodes = (
"60.7 0 LINE",
"237.7 0 LINE",
"237.7 500 LINE",
"60.7 500 LINE"
);
},
{
closed = 1;
nodes = (
"210.7 538 OFFCURVE",
"251.7 578 OFFCURVE",
"251.7 629 CURVE SMOOTH",
"251.7 681 OFFCURVE",
"210.7 721 OFFCURVE",
"149.7 721 CURVE SMOOTH",
"88.7 721 OFFCURVE",
"47.7 681 OFFCURVE",
"47.7 629 CURVE SMOOTH",
"47.7 578 OFFCURVE",
"88.7 538 OFFCURVE",
"149.7 538 CURVE SMOOTH"
);
}
);
width = 299.61896;
}
);
leftMetricsKey = l;
rightMetricsKey = l;
unicode = 0069;
},
{
glyphname = idotless;
lastChange = "2021-08-13 16:01:28 +0000";
layers = (
{
anchors = (
{
name = ogonek;
position = "{227.5, 14}";
},
{
name = top;
position = "{133.5, 496}";
}
);
hints = (
{
place = "{77, 114}";
type = Stem;
},
{
horizontal = 1;
place = "{0, 21}";
target = up;
type = BottomGhost;
},
{
horizontal = 1;
place = "{501, -20}";
target = down;
type = TopGhost;
}
);
layerId = "0CF0EA28-C756-4A9E-9D7C-CFEF350B4CFE";
paths = (
{
closed = 1;
nodes = (
"76.5 0 LINE",
"190.5 0 LINE",
"190.5 501 LINE",
"76.5 501 LINE"
);
}
);
width = 267;
},
{
anchors = (
{
name = ogonek;
position = "{169.5, 10}";
},
{
name = top;
position = "{105.5, 501}";
}
);
hints = (
{
place = "{95, 22}";
type = Stem;
},
{
horizontal = 1;
place = "{0, 21}";
target = up;
type = BottomGhost;
},
{
horizontal = 1;
place = "{501, -20}";
target = down;
type = TopGhost;
}
);
layerId = "6E968933-CD79-43C6-9231-80D77C940F4D";
paths = (
{
closed = 1;
nodes = (
"94.5 0 LINE",
"116.5 0 LINE",
"116.5 501 LINE",
"94.5 501 LINE"
);
}
);
width = 210.80404;
},
{
anchors = (
{
name = ogonek;
position = "{247.7, 20}";
},
{
name = top;
position = "{135.7, 490}";
}
);
hints = (
{
place = "{49, 176}";
type = Stem;
},
{
horizontal = 1;
place = "{0, 21}";
target = up;
type = BottomGhost;
},
{
horizontal = 1;
place = "{501, -20}";
target = down;
type = TopGhost;
}
);
layerId = "BAF31694-0472-4296-B0EA-1654553C45D2";
paths = (
{
closed = 1;
nodes = (
"47.7 0 LINE",
"223.7 0 LINE",
"223.7 501 LINE",
"47.7 501 LINE"
);
}
);
width = 271.61925;
}
);
leftMetricsKey = l;
rightMetricsKey = l;
unicode = 0131;
},
{
glyphname = j;
lastChange = "2021-08-13 16:02:10 +0000";
layers = (
{
hints = (
{
place = "{81, 142}";
type = Stem;
},
{
place = "{95, 114}";
type = Stem;
},
{
horizontal = 1;
place = "{579, 140}";
type = Stem;
}
);
layerId = "0CF0EA28-C756-4A9E-9D7C-CFEF350B4CFE";
leftMetricsKey = "=l*-0.3";
paths = (
{
closed = 1;
nodes = (
"95.05 496 LINE",
"209.05 496 LINE",
"209.05 32 LINE SMOOTH",
"209.05 -124 OFFCURVE",
"102.05 -197 OFFCURVE",
"-5.95 -200 CURVE",
"-22.95 -103 LINE",
"54.05 -96 OFFCURVE",
"94.05 -47 OFFCURVE",
"94.05 33 CURVE SMOOTH"
);
},
{
closed = 1;
nodes = (
"192.05 579 OFFCURVE",
"223.05 610 OFFCURVE",
"223.05 649 CURVE SMOOTH",
"223.05 689 OFFCURVE",
"192.05 720 OFFCURVE",
"152.05 720 CURVE SMOOTH",
"112.05 720 OFFCURVE",
"81.05 689 OFFCURVE",
"81.05 649 CURVE SMOOTH",
"81.05 610 OFFCURVE",
"112.05 579 OFFCURVE",
"152.05 579 CURVE SMOOTH"
);
}
);
width = 299.555;
},
{
hints = (
{
place = "{106, 44}";
type = Stem;
},
{
place = "{124, 23}";
type = Stem;
},
{
horizontal = 1;
place = "{666, -20}";
target = down;
type = TopGhost;
}
);
layerId = "6E968933-CD79-43C6-9231-80D77C940F4D";
paths = (
{
closed = 1;
nodes = (
"113 501 LINE",
"135 501 LINE",
"135 -21 LINE SMOOTH",
"135 -138 OFFCURVE",
"67 -194 OFFCURVE",
"-16 -200 CURVE",
"-19 -180 LINE",
"59 -173 OFFCURVE",
"113 -116 OFFCURVE",
"113 -21 CURVE SMOOTH"
);
},
{
closed = 1;
nodes = (
"139 636 OFFCURVE",
"149 644 OFFCURVE",
"149 658 CURVE SMOOTH",
"149 673 OFFCURVE",
"139 681 OFFCURVE",
"127 681 CURVE SMOOTH",
"115 681 OFFCURVE",
"105 673 OFFCURVE",
"105 658 CURVE SMOOTH",
"105 644 OFFCURVE",
"115 636 OFFCURVE",
"127 636 CURVE SMOOTH"
);
}
);
width = 243.30181;
},
{
hints = (
{
place = "{69, 204}";
type = Stem;
},
{
place = "{83, 176}";
type = Stem;
},
{
horizontal = 1;
place = "{538, 183}";
type = Stem;
}
);
layerId = "BAF31694-0472-4296-B0EA-1654553C45D2";
paths = (
{
closed = 1;
nodes = (
"82 498 LINE",
"259 498 LINE",
"259 46 LINE SMOOTH",
"259 -127 OFFCURVE",
"125 -196 OFFCURVE",
"0 -200 CURVE",
"-25 -52 LINE",
"42 -44 OFFCURVE",
"82 -7 OFFCURVE",
"82 47 CURVE SMOOTH"
);
},
{
closed = 1;
nodes = (
"232 538 OFFCURVE",
"273 578 OFFCURVE",
"273 629 CURVE SMOOTH",
"273 681 OFFCURVE",
"232 721 OFFCURVE",
"171 721 CURVE SMOOTH",
"110 721 OFFCURVE",
"69 681 OFFCURVE",
"69 629 CURVE SMOOTH",
"69 578 OFFCURVE",
"110 538 OFFCURVE",
"171 538 CURVE SMOOTH"
);
}
);
width = 320.91656;
}
);
leftMetricsKey = "l*-0.3";
rightMetricsKey = l;
unicode = 006A;
},
{
glyphname = k;
lastChange = "2021-08-13 16:02:10 +0000";
layers = (
{
anchors = (
{
name = bottom;
position = "{262.5, 5}";
}
);
hints = (
{
place = "{77, 114}";
type = Stem;
},
{
horizontal = 1;
place = "{0, 21}";
target = up;
type = BottomGhost;
},
{
horizontal = 1;
place = "{720, -20}";
target = down;
type = TopGhost;
}
);
layerId = "0CF0EA28-C756-4A9E-9D7C-CFEF350B4CFE";
paths = (
{
closed = 1;
nodes = (
"76.5 0 LINE",
"190.5 0 LINE",
"190.5 720 LINE",
"76.5 720 LINE"
);
},
{
closed = 1;
nodes = (
"323.5 250 LINE",
"554.5 500 LINE",
"398.5 500 LINE",
"188.5 248 LINE",
"402.5 0 LINE",
"554.5 0 LINE"
);
},
{
closed = 1;
nodes = (
"98.5 203 LINE",
"293.5 203 LINE",
"293.5 296 LINE",
"98.5 296 LINE"
);
}
);
width = 569.8;
},
{
anchors = (
{
name = bottom;
position = "{207.5, 1}";
}
);
hints = (
{
place = "{95, 22}";
type = Stem;
},
{
horizontal = 1;
place = "{0, 21}";
target = up;
type = BottomGhost;
},
{
horizontal = 1;
place = "{688, -20}";
target = down;
type = TopGhost;
}
);
layerId = "6E968933-CD79-43C6-9231-80D77C940F4D";
paths = (
{
closed = 1;
nodes = (
"94.5 0 LINE",
"116.5 0 LINE",
"116.5 687 LINE",
"94.5 687 LINE"
);
},
{
closed = 1;
nodes = (
"194.5 253 LINE",
"441.5 500 LINE",
"411.5 500 LINE",
"167.5 253 LINE",
"415.5 0 LINE",
"444.5 0 LINE"
);
},
{
closed = 1;
nodes = (
"104.5 244 LINE",
"183.5 244 LINE",
"183.5 265 LINE",
"104.5 265 LINE"
);
}
);
width = 463.34643;
},
{
anchors = (
{
name = bottom;
position = "{279.7, 11}";
}
);
hints = (
{
place = "{49, 176}";
type = Stem;
},
{
horizontal = 1;
place = "{0, 21}";
target = up;
type = BottomGhost;
},
{
horizontal = 1;
place = "{720, -20}";
target = down;
type = TopGhost;
}
);
layerId = "BAF31694-0472-4296-B0EA-1654553C45D2";
paths = (
{
closed = 1;
nodes = (
"47.7 0 LINE",
"223.7 0 LINE",
"223.7 720 LINE",
"47.7 720 LINE"
);
},
{
closed = 1;
nodes = (
"389.7 250 LINE",
"595.7 500 LINE",
"380.7 500 LINE",
"198.7 254 LINE",
"381.7 0 LINE",
"597.7 0 LINE"
);
},
{
closed = 1;
nodes = (
"142.7 181 LINE",
"327.7 181 LINE",
"327.7 322 LINE",
"142.7 322 LINE"
);
}
);
width = 607.28321;
}
);
leftMetricsKey = l;
rightMetricsKey = "=l*0.2";
unicode = 006B;
},
{
glyphname = kcommaaccent;
lastChange = "2021-08-13 16:02:10 +0000";
layers = (
{
components = (
{
alignment = -1;
name = k;
}
);
hints = (
{
place = "{199, 116}";
type = Stem;
},
{
place = "{203, 112}";
type = Stem;
},
{
horizontal = 1;
place = "{-126, 96}";
type = Stem;
},
{
horizontal = 1;
place = "{-240, 21}";
target = up;
type = BottomGhost;
}
);
layerId = "0CF0EA28-C756-4A9E-9D7C-CFEF350B4CFE";
paths = (
{
closed = 1;
nodes = (
"199 -31 LINE",
"199 -126 LINE",
"247 -126 LINE",
"246 -146 LINE",
"246 -152 OFFCURVE",
"245 -156 OFFCURVE",
"244 -161 CURVE SMOOTH",
"238 -177 OFFCURVE",
"225 -186 OFFCURVE",
"203 -186 CURVE",
"203 -240 LINE",
"277 -240 OFFCURVE",
"315 -201 OFFCURVE",
"315 -124 CURVE SMOOTH",
"315 -98 OFFCURVE",
"311 -67 OFFCURVE",
"303 -31 CURVE"
);
}
);
width = 569.8;
},
{
components = (
{
alignment = -1;
name = k;
}
);
hints = (
{
horizontal = 1;
place = "{-52, -20}";
target = down;
type = TopGhost;
},
{
horizontal = 1;
place = "{-165, 21}";
target = up;
type = BottomGhost;
}
);
layerId = "6E968933-CD79-43C6-9231-80D77C940F4D";
paths = (
{
closed = 1;
nodes = (
"165 -53 LINE",
"165 -91 LINE",
"194 -91 LINE",
"194 -103 LINE",
"193 -108 OFFCURVE",
"193 -113 OFFCURVE",
"191 -118 CURVE SMOOTH",
"187 -135 OFFCURVE",
"176 -146 OFFCURVE",
"154 -146 CURVE",
"154 -165 LINE",
"189 -165 OFFCURVE",
"217 -150 OFFCURVE",
"217 -83 CURVE SMOOTH",
"217 -75 OFFCURVE",
"216 -62 OFFCURVE",
"214 -53 CURVE"
);
}
);
width = 463.35043;
},
{
components = (
{
alignment = -1;
name = k;
}
);
hints = (
{
place = "{211, 157}";
type = Stem;
},
{
place = "{220, 148}";
type = Stem;
},
{
horizontal = 1;
place = "{-141, 129}";
type = Stem;
},
{
horizontal = 1;
place = "{-268, 21}";
target = up;
type = BottomGhost;
}
);
layerId = "BAF31694-0472-4296-B0EA-1654553C45D2";
paths = (
{
closed = 1;
nodes = (
"210 -12 LINE",
"210 -141 LINE",
"263 -141 LINE",
"265 -150 LINE",
"264 -155 OFFCURVE",
"263 -160 OFFCURVE",
"262 -165 CURVE SMOOTH",
"256 -182 OFFCURVE",
"241 -190 OFFCURVE",
"220 -190 CURVE",
"220 -268 LINE",
"320 -268 OFFCURVE",
"368 -209 OFFCURVE",
"368 -125 CURVE SMOOTH",
"368 -94 OFFCURVE",
"362 -56 OFFCURVE",
"347 -12 CURVE"
);
}
);
width = 607.28321;
}
);
leftMetricsKey = l;
rightMetricsKey = k;
unicode = 0137;
},
{
glyphname = l;
lastChange = "2021-08-13 16:01:28 +0000";
layers = (
{
anchors = (
{
name = bottom;
position = "{133.5, 5}";
},
{
name = commaaccent;
position = "{133.5, 14}";
},
{
name = top;
position = "{133.5, 720}";
},
{
name = topright;
position = "{232.5, 496}";
}
);
hints = (
{
place = "{77, 114}";
type = Stem;
},
{
horizontal = 1;
place = "{0, 21}";
target = up;
type = BottomGhost;
},
{
horizontal = 1;
place = "{720, -20}";
target = down;
type = TopGhost;
}
);
layerId = "0CF0EA28-C756-4A9E-9D7C-CFEF350B4CFE";
paths = (
{
closed = 1;
nodes = (
"76.5 0 LINE",
"190.5 0 LINE",
"190.5 720 LINE",
"76.5 720 LINE"
);
}
);
width = 267;
},
{
anchors = (
{
name = bottom;
position = "{105.5, 1}";
},
{
name = commaaccent;
position = "{105.5, 10}";
},
{
name = top;
position = "{105.5, 723}";
},
{
name = topright;
position = "{166.5, 501}";
}
);
hints = (
{
place = "{95, 22}";
type = Stem;
},
{
horizontal = 1;
place = "{0, 21}";
target = up;
type = BottomGhost;
},
{
horizontal = 1;
place = "{720, -20}";
target = down;
type = TopGhost;
}
);
layerId = "6E968933-CD79-43C6-9231-80D77C940F4D";
paths = (
{
closed = 1;
nodes = (
"94.5 0 LINE",
"116.5 0 LINE",
"116.5 720 LINE",
"94.5 720 LINE"
);
}
);
width = 210.79704;
},
{
anchors = (
{
name = bottom;
position = "{136.7, 11}";
},
{
name = commaaccent;
position = "{136.7, 20}";
},
{
name = top;
position = "{136.7, 721}";
},
{
name = topright;
position = "{257.7, 490}";
}
);
hints = (
{
place = "{49, 176}";
type = Stem;
},
{
horizontal = 1;
place = "{0, 21}";
target = up;
type = BottomGhost;
},
{
horizontal = 1;
place = "{720, -20}";
target = down;
type = TopGhost;
}
);
layerId = "BAF31694-0472-4296-B0EA-1654553C45D2";
paths = (
{
closed = 1;
nodes = (
"47.7 0 LINE",
"223.7 0 LINE",
"223.7 720 LINE",
"47.7 720 LINE"
);
}
);
width = 271.62425;
}
);
leftMetricsKey = "=H*0.9";
rightMetricsKey = "=H*0.9";
unicode = 006C;
},
{
glyphname = lcaron;
lastChange = "2021-08-13 16:01:28 +0000";
layers = (
{
components = (
{
alignment = -1;
name = l;
}
);
hints = (
{
place = "{238, 117}";
type = Stem;
},
{
place = "{242, 112}";
type = Stem;
},
{
place = "{285, 70}";
type = Stem;
},
{
horizontal = 1;
place = "{572, 97}";
type = Stem;
},
{
horizontal = 1;
place = "{459, 21}";
target = up;
type = BottomGhost;
}
);
layerId = "0CF0EA28-C756-4A9E-9D7C-CFEF350B4CFE";
paths = (
{
closed = 1;
nodes = (
"238 669 LINE",
"238 572 LINE",
"285 572 LINE",
"285 559 LINE SMOOTH",
"285 529 OFFCURVE",
"272 514 OFFCURVE",
"242 514 CURVE",
"242 459 LINE",
"316 459 OFFCURVE",
"355 498 OFFCURVE",
"355 575 CURVE SMOOTH",
"355 602 OFFCURVE",
"351 632 OFFCURVE",
"341 669 CURVE"
);
}
);
width = 431.5;
},
{
components = (
{
alignment = -1;
name = l;
}
);
hints = (
{
place = "{153, 57}";
type = Stem;
},
{
place = "{193, 24}";
type = Stem;
},
{
horizontal = 1;
place = "{672, -20}";
target = down;
type = TopGhost;
},
{
horizontal = 1;
place = "{547, 21}";
target = up;
type = BottomGhost;
}
);
layerId = "6E968933-CD79-43C6-9231-80D77C940F4D";
paths = (
{
closed = 1;
nodes = (
"152 686 LINE",
"152 635 LINE",
"187 635 LINE",
"187 609 LINE SMOOTH",
"187 582 OFFCURVE",
"178 568 OFFCURVE",
"146 568 CURVE",
"146 547 LINE",
"184 547 OFFCURVE",
"210 562 OFFCURVE",
"210 621 CURVE SMOOTH",
"210 638 OFFCURVE",
"209 659 OFFCURVE",
"206 686 CURVE"
);
}
);
width = 304.30447;
},
{
components = (
{
alignment = -1;
name = l;
}
);
hints = (
{
place = "{101, 50}";
type = Stem;
},
{
place = "{259, 156}";
type = Stem;
},
{
place = "{285, 130}";
type = Stem;
},
{
horizontal = 1;
place = "{433, 115}";
type = Stem;
},
{
horizontal = 1;
place = "{401, 21}";
target = up;
type = BottomGhost;
}
);
layerId = "BAF31694-0472-4296-B0EA-1654553C45D2";
paths = (
{
closed = 1;
nodes = (
"257 657 LINE",
"257 528 LINE",
"312 537 LINE",
"312 525 LINE SMOOTH",
"312 494 OFFCURVE",
"296 480 OFFCURVE",
"267 480 CURVE",
"267 401 LINE",
"367 401 OFFCURVE",
"415 460 OFFCURVE",
"415 544 CURVE SMOOTH",
"415 576 OFFCURVE",
"409 613 OFFCURVE",
"394 657 CURVE"
);
}
);
width = 462.92038;
}
);
leftMetricsKey = l;
rightMetricsKey = l;
unicode = 013E;
},
{
glyphname = lcommaaccent;
lastChange = "2021-08-13 16:01:28 +0000";
layers = (
{
components = (
{
alignment = -1;
name = l;
transform = "{1, 0, 0, 1, 6.5, 0}";
}
);
hints = (
{
place = "{76, 117}";
type = Stem;
},
{
place = "{80, 113}";
type = Stem;
},
{
place = "{124, 70}";
type = Stem;
},
{
horizontal = 1;
place = "{-126, 95}";
type = Stem;
},
{
horizontal = 1;
place = "{-240, 21}";
target = up;
type = BottomGhost;
}
);
layerId = "0CF0EA28-C756-4A9E-9D7C-CFEF350B4CFE";
paths = (
{
closed = 1;
nodes = (
"76.5 -31 LINE",
"76.5 -126 LINE",
"123.5 -126 LINE",
"123.5 -140 LINE SMOOTH",
"123.5 -170 OFFCURVE",
"109.5 -186 OFFCURVE",
"79.5 -186 CURVE",
"79.5 -240 LINE",
"153.5 -240 OFFCURVE",
"192.5 -201 OFFCURVE",
"192.5 -124 CURVE SMOOTH",
"192.5 -98 OFFCURVE",
"187.5 -67 OFFCURVE",
"179.5 -31 CURVE"
);
}
);
width = 273.5;
},
{
components = (
{
alignment = -1;
name = l;
transform = "{1, 0, 0, 1, 43.5, 0}";
}
);
hints = (
{
place = "{129, 24}";
type = Stem;
},
{
horizontal = 1;
place = "{-52, -20}";
target = down;
type = TopGhost;
},
{
horizontal = 1;
place = "{-165, 21}";
target = up;
type = BottomGhost;
}
);
layerId = "6E968933-CD79-43C6-9231-80D77C940F4D";
paths = (
{
closed = 1;
nodes = (
"105.5 -53 LINE",
"105.5 -91 LINE",
"134.5 -91 LINE",
"134.5 -97 LINE SMOOTH",
"134.5 -127 OFFCURVE",
"124.5 -146 OFFCURVE",
"94.5 -146 CURVE",
"94.5 -165 LINE",
"129.5 -165 OFFCURVE",
"157.5 -150 OFFCURVE",
"157.5 -83 CURVE SMOOTH",
"157.5 -75 OFFCURVE",
"156.5 -62 OFFCURVE",
"155.5 -53 CURVE"
);
}
);
width = 254.3034;
},
{
components = (
{
alignment = -1;
name = l;
transform = "{1, 0, 0, 1, 0.01, 0}";
}
);
hints = (
{
place = "{32, 50}";
type = Stem;
},
{
place = "{76, 156}";
type = Stem;
},
{
place = "{103, 130}";
type = Stem;
},
{
horizontal = 1;
place = "{23, 114}";
type = Stem;
},
{
horizontal = 1;
place = "{-268, 21}";
target = up;
type = BottomGhost;
}
);
layerId = "BAF31694-0472-4296-B0EA-1654553C45D2";
paths = (
{
closed = 1;
nodes = (
"71.01 -12 LINE",
"71.01 -141 LINE",
"126.01 -132 LINE",
"126.01 -143 LINE SMOOTH",
"126.01 -175 OFFCURVE",
"110.01 -190 OFFCURVE",
"81.01 -190 CURVE",
"81.01 -268 LINE",
"181.01 -268 OFFCURVE",
"229.01 -209 OFFCURVE",
"229.01 -125 CURVE SMOOTH",
"229.01 -94 OFFCURVE",
"223.01 -56 OFFCURVE",
"208.01 -12 CURVE"
);
}
);
width = 276.92736;
}
);
leftMetricsKey = l;
rightMetricsKey = l;
unicode = 013C;
},
{
color = 4;
glyphname = ldot;
lastChange = "2021-08-13 16:01:28 +0000";
layers = (
{
hints = (
{
place = "{77, 114}";
type = Stem;
},
{
place = "{213, 119}";
type = Stem;
},
{
horizontal = 1;
place = "{271, 117}";
type = Stem;
},
{
horizontal = 1;
place = "{720, -20}";
target = down;
type = TopGhost;
},
{
horizontal = 1;
place = "{0, 21}";
target = up;
type = BottomGhost;
}
);
layerId = "0CF0EA28-C756-4A9E-9D7C-CFEF350B4CFE";
paths = (
{
closed = 1;
nodes = (
"190.5 0 LINE",
"190.5 720 LINE",
"76.5 720 LINE",
"76.5 0 LINE"
);
},
{
closed = 1;
nodes = (
"304.5 271 OFFCURVE",
"331.5 297 OFFCURVE",
"331.5 330 CURVE SMOOTH",
"331.5 362 OFFCURVE",
"304.5 388 OFFCURVE",
"271.5 388 CURVE SMOOTH",
"238.5 388 OFFCURVE",
"212.5 362 OFFCURVE",
"212.5 330 CURVE SMOOTH",
"212.5 297 OFFCURVE",
"238.5 271 OFFCURVE",
"271.5 271 CURVE SMOOTH"
);
}
);
width = 293.265;
},
{
hints = (
{
place = "{95, 22}";
type = Stem;
},
{
place = "{190, 58}";
type = Stem;
},
{
horizontal = 1;
place = "{316, 58}";
type = Stem;
},
{
horizontal = 1;
place = "{688, -20}";
target = down;
type = TopGhost;
},
{
horizontal = 1;
place = "{0, 21}";
target = up;
type = BottomGhost;
}
);
layerId = "6E968933-CD79-43C6-9231-80D77C940F4D";
paths = (
{
closed = 1;
nodes = (
"116.5 0 LINE",
"116.5 687 LINE",
"94.5 687 LINE",
"94.5 0 LINE"
);
},
{
closed = 1;
nodes = (
"234.5 316 OFFCURVE",
"248.5 329 OFFCURVE",
"248.5 345 CURVE SMOOTH",
"248.5 360 OFFCURVE",
"234.5 374 OFFCURVE",
"219.5 374 CURVE SMOOTH",
"203.5 374 OFFCURVE",
"189.5 360 OFFCURVE",
"189.5 345 CURVE SMOOTH",
"189.5 329 OFFCURVE",
"203.5 316 OFFCURVE",
"219.5 316 CURVE SMOOTH"
);
}
);
width = 201.35181;
},
{
hints = (
{
place = "{33, 48}";
type = Stem;
},
{
place = "{107, 178}";
type = Stem;
},
{
horizontal = 1;
place = "{248, 150}";
type = Stem;
},
{
horizontal = 1;
place = "{720, -20}";
target = down;
type = TopGhost;
},
{
horizontal = 1;
place = "{0, 21}";
target = up;
type = BottomGhost;
}
);
layerId = "BAF31694-0472-4296-B0EA-1654553C45D2";
paths = (
{
closed = 1;
nodes = (
"223.7 0 LINE",
"223.7 720 LINE",
"47.7 720 LINE",
"47.7 0 LINE"
);
},
{
closed = 1;
nodes = (
"343.7 248 OFFCURVE",
"377.7 281 OFFCURVE",
"377.7 323 CURVE SMOOTH",
"377.7 365 OFFCURVE",
"343.7 398 OFFCURVE",
"299.7 398 CURVE SMOOTH",
"256.7 398 OFFCURVE",
"222.7 365 OFFCURVE",
"222.7 323 CURVE SMOOTH",
"222.7 281 OFFCURVE",
"256.7 248 OFFCURVE",
"299.7 248 CURVE SMOOTH"
);
}
);
width = 353.7441;
}
);
leftMetricsKey = l;
rightMetricsKey = "=l*-0.5";
unicode = 0140;
},
{
glyphname = lslash;
lastChange = "2021-08-13 16:01:28 +0000";
layers = (
{
hints = (
{
place = "{7, 173}";
type = Stem;
},
{
place = "{66, 114}";
type = Stem;
},
{
place = "{66, 174}";
type = Stem;
},
{
horizontal = 1;
place = "{720, -20}";
target = down;
type = TopGhost;
},
{
horizontal = 1;
place = "{0, 21}";
target = up;
type = BottomGhost;
}
);
layerId = "0CF0EA28-C756-4A9E-9D7C-CFEF350B4CFE";
paths = (
{
closed = 1;
nodes = (
"7.65 240 LINE",
"239.65 320 LINE",
"239.65 409 LINE",
"7.65 330 LINE"
);
},
{
closed = 1;
nodes = (
"65.65 0 LINE",
"179.65 0 LINE",
"179.65 720 LINE",
"65.65 720 LINE"
);
}
);
width = 247.3;
},
{
hints = (
{
place = "{88, 23}";
type = Stem;
},
{
horizontal = 1;
place = "{688, -20}";
target = down;
type = TopGhost;
},
{
horizontal = 1;
place = "{0, 21}";
target = up;
type = BottomGhost;
}
);
layerId = "6E968933-CD79-43C6-9231-80D77C940F4D";
paths = (
{
closed = 1;
nodes = (
"9.45 387 LINE",
"188.45 488 LINE",
"188.45 509 LINE",
"9.45 408 LINE"
);
},
{
closed = 1;
nodes = (
"88.45 0 LINE",
"110.45 0 LINE",
"110.45 687 LINE",
"88.45 687 LINE"
);
}
);
width = 197.88277;
},
{
hints = (
{
place = "{3, 73}";
type = Stem;
},
{
place = "{28, 48}";
type = Stem;
},
{
place = "{61, 202}";
type = Stem;
},
{
horizontal = 1;
place = "{720, -20}";
target = down;
type = TopGhost;
},
{
horizontal = 1;
place = "{0, 21}";
target = up;
type = BottomGhost;
}
);
layerId = "BAF31694-0472-4296-B0EA-1654553C45D2";
paths = (
{
closed = 1;
nodes = (
"4.77 214 LINE",
"293.77 301 LINE",
"293.77 451 LINE",
"4.77 365 LINE"
);
},
{
closed = 1;
nodes = (
"60.77 0 LINE",
"236.77 0 LINE",
"236.77 720 LINE",
"60.77 720 LINE"
);
}
);
width = 298.55983;
}
);
leftMetricsKey = "=l*0.1";
rightMetricsKey = "=l*0.1";
unicode = 0142;
},
{
glyphname = m;
lastChange = "2021-08-13 16:01:28 +0000";
layers = (
{
hints = (
{
place = "{77, 114}";
type = Stem;
},
{
place = "{410, 113}";
type = Stem;
},
{
place = "{743, 113}";
type = Stem;
},
{
horizontal = 1;
place = "{410, 98}";
type = Stem;
},
{
horizontal = 1;
place = "{0, 21}";
target = up;
type = BottomGhost;
}
);
layerId = "0CF0EA28-C756-4A9E-9D7C-CFEF350B4CFE";
paths = (
{
closed = 1;
nodes = (
"76.5 0 LINE",
"190.5 0 LINE",
"190.5 440 LINE",
"180.5 501 LINE",
"76.5 501 LINE"
);
},
{
closed = 1;
nodes = (
"408.5 0 LINE",
"521.5 0 LINE",
"521.5 294 LINE SMOOTH",
"521.5 435 OFFCURVE",
"442.5 509 OFFCURVE",
"324.5 509 CURVE SMOOTH",
"244.5 509 OFFCURVE",
"173.5 463 OFFCURVE",
"150.5 390 CURVE",
"178.5 277 LINE",
"190.5 278 LINE",
"190.5 365 OFFCURVE",
"232.5 410 OFFCURVE",
"302.5 410 CURVE SMOOTH",
"372.5 410 OFFCURVE",
"408.5 366 OFFCURVE",
"408.5 279 CURVE SMOOTH"
);
},
{
closed = 1;
nodes = (
"742.5 0 LINE",
"855.5 0 LINE",
"855.5 294 LINE SMOOTH",
"855.5 435 OFFCURVE",
"774.5 509 OFFCURVE",
"656.5 509 CURVE SMOOTH",
"575.5 509 OFFCURVE",
"498.5 469 OFFCURVE",
"472.5 397 CURVE",
"510.5 276 LINE",
"521.5 278 LINE",
"521.5 365 OFFCURVE",
"564.5 410 OFFCURVE",
"634.5 410 CURVE SMOOTH",
"704.5 410 OFFCURVE",
"742.5 366 OFFCURVE",
"742.5 279 CURVE SMOOTH"
);
}
);
width = 924.35;
},
{
hints = (
{
place = "{102, 22}";
type = Stem;
},
{
horizontal = 1;
place = "{497, -20}";
target = down;
type = TopGhost;
},
{
horizontal = 1;
place = "{0, 21}";
target = up;
type = BottomGhost;
}
);
layerId = "6E968933-CD79-43C6-9231-80D77C940F4D";
paths = (
{
closed = 1;
nodes = (
"94.5 0 LINE",
"116.5 0 LINE",
"116.5 373 LINE",
"116.5 501 LINE",
"94.5 501 LINE"
);
},
{
closed = 1;
nodes = (
"464.5 0 LINE",
"485.5 0 LINE",
"485.5 283 LINE SMOOTH",
"485.5 438 OFFCURVE",
"401.5 508 OFFCURVE",
"297.5 508 CURVE SMOOTH",
"164.5 508 OFFCURVE",
"110.5 413 OFFCURVE",
"105.5 296 CURVE",
"114.5 252 LINE",
"116.5 252 LINE",
"116.5 408 OFFCURVE",
"189.5 489 OFFCURVE",
"296.5 489 CURVE SMOOTH",
"400.5 489 OFFCURVE",
"464.5 416 OFFCURVE",
"464.5 284 CURVE SMOOTH"
);
},
{
closed = 1;
nodes = (
"832.5 0 LINE",
"853.5 0 LINE",
"853.5 283 LINE SMOOTH",
"853.5 438 OFFCURVE",
"770.5 508 OFFCURVE",
"665.5 508 CURVE SMOOTH",
"561.5 508 OFFCURVE",
"478.5 451 OFFCURVE",
"471.5 305 CURVE",
"472.5 253 LINE",
"485.5 252 LINE",
"485.5 408 OFFCURVE",
"559.5 489 OFFCURVE",
"665.5 489 CURVE SMOOTH",
"768.5 489 OFFCURVE",
"832.5 416 OFFCURVE",
"832.5 284 CURVE SMOOTH"
);
}
);
width = 938.37432;
},
{
hints = (
{
place = "{49, 176}";
type = Stem;
},
{
place = "{373, 175}";
type = Stem;
},
{
place = "{696, 175}";
type = Stem;
},
{
horizontal = 1;
place = "{355, 152}";
type = Stem;
},
{
horizontal = 1;
place = "{0, 21}";
target = up;
type = BottomGhost;
}
);
layerId = "BAF31694-0472-4296-B0EA-1654553C45D2";
paths = (
{
closed = 1;
nodes = (
"47.7 0 LINE",
"223.7 0 LINE",
"223.7 430 LINE",
"207.7 501 LINE",
"47.7 501 LINE"
);
},
{
closed = 1;
nodes = (
"371.7 0 LINE",
"546.694 0 LINE",
"546.7 291 LINE SMOOTH",
"546.7 426 OFFCURVE",
"467.7 506 OFFCURVE",
"348.7 506 CURVE SMOOTH",
"268.7 506 OFFCURVE",
"204.7 458 OFFCURVE",
"178.7 390 CURVE",
"197.7 268 LINE",
"223.7 270 LINE",
"223.7 325 OFFCURVE",
"251.7 355 OFFCURVE",
"298.7 355 CURVE SMOOTH",
"345.7 355 OFFCURVE",
"371.7 325 OFFCURVE",
"371.7 271 CURVE SMOOTH"
);
},
{
closed = 1;
nodes = (
"694.7 0 LINE",
"870.7 0 LINE",
"870.7 291 LINE SMOOTH",
"870.7 426 OFFCURVE",
"793.7 506 OFFCURVE",
"665.7 506 CURVE SMOOTH",
"577.7 506 OFFCURVE",
"505.7 445 OFFCURVE",
"477.7 376 CURVE",
"523.7 263 LINE",
"546.7 267 LINE",
"546.7 324 OFFCURVE",
"574.7 355 OFFCURVE",
"621.7 355 CURVE SMOOTH",
"668.7 355 OFFCURVE",
"694.7 325 OFFCURVE",
"694.7 271 CURVE SMOOTH"
);
}
);
width = 913.82875;
}
);
leftMetricsKey = l;
rightMetricsKey = "=l*0.9";
unicode = 006D;
},
{
glyphname = n;
lastChange = "2021-08-13 16:01:28 +0000";
layers = (
{
anchors = (
{
name = bottom;
position = "{305.5, 5}";
},
{
name = top;
position = "{313.5, 496}";
}
);
hints = (
{
place = "{77, 114}";
type = Stem;
},
{
place = "{411, 113}";
type = Stem;
},
{
horizontal = 1;
place = "{410, 98}";
type = Stem;
},
{
horizontal = 1;
place = "{0, 21}";
target = up;
type = BottomGhost;
}
);
layerId = "0CF0EA28-C756-4A9E-9D7C-CFEF350B4CFE";
paths = (
{
closed = 1;
nodes = (
"76.5 0 LINE",
"190.5 0 LINE",
"190.5 439 LINE",
"180.5 501 LINE",
"76.5 501 LINE"
);
},
{
closed = 1;
nodes = (
"410.5 0 LINE",
"523.5 0 LINE",
"523.5 294 LINE SMOOTH",
"523.5 435 OFFCURVE",
"443.5 509 OFFCURVE",
"325.5 509 CURVE SMOOTH",
"245.5 509 OFFCURVE",
"173.5 463 OFFCURVE",
"150.5 390 CURVE",
"178.5 277 LINE",
"190.5 278 LINE",
"190.5 365 OFFCURVE",
"232.5 410 OFFCURVE",
"302.5 410 CURVE SMOOTH",
"372.5 410 OFFCURVE",
"410.5 366 OFFCURVE",
"410.5 279 CURVE SMOOTH"
);
}
);
width = 592.35;
},
{
anchors = (
{
name = bottom;
position = "{288.5, 1}";
},
{
name = top;
position = "{278.5, 501}";
}
);
hints = (
{
place = "{102, 22}";
type = Stem;
},
{
horizontal = 1;
place = "{497, -20}";
target = down;
type = TopGhost;
},
{
horizontal = 1;
place = "{0, 21}";
target = up;
type = BottomGhost;
}
);
layerId = "6E968933-CD79-43C6-9231-80D77C940F4D";
paths = (
{
closed = 1;
nodes = (
"94.5 0 LINE",
"116.5 0 LINE",
"116.5 372 LINE",
"116.5 501 LINE",
"94.5 501 LINE"
);
},
{
closed = 1;
nodes = (
"482.5 0 LINE",
"503.5 0 LINE",
"503.5 283 LINE SMOOTH",
"503.5 438 OFFCURVE",
"416.5 508 OFFCURVE",
"306.5 508 CURVE SMOOTH",
"178.5 508 OFFCURVE",
"112.5 427 OFFCURVE",
"107.5 307 CURVE",
"114.5 257 LINE",
"116.5 257 LINE",
"116.5 411 OFFCURVE",
"193.5 489 OFFCURVE",
"305.5 489 CURVE SMOOTH",
"414.5 489 OFFCURVE",
"482.5 416 OFFCURVE",
"482.5 284 CURVE SMOOTH"
);
}
);
width = 588.36872;
},
{
anchors = (
{
name = bottom;
position = "{298.7, 11}";
},
{
name = top;
position = "{319.7, 490}";
}
);
hints = (
{
place = "{49, 176}";
type = Stem;
},
{
place = "{373, 175}";
type = Stem;
},
{
horizontal = 1;
place = "{359, 146}";
type = Stem;
},
{
horizontal = 1;
place = "{0, 21}";
target = up;
type = BottomGhost;
}
);
layerId = "BAF31694-0472-4296-B0EA-1654553C45D2";
paths = (
{
closed = 1;
nodes = (
"47.7 0 LINE",
"223.7 0 LINE",
"223.7 425 LINE",
"207.7 501 LINE",
"47.7 501 LINE"
);
},
{
closed = 1;
nodes = (
"371.7 0 LINE",
"547.7 0 LINE",
"547.7 291 LINE SMOOTH",
"547.7 426 OFFCURVE",
"472.7 506 OFFCURVE",
"353.7 506 CURVE SMOOTH",
"271.7 506 OFFCURVE",
"205.7 455 OFFCURVE",
"178.7 386 CURVE",
"197.7 268 LINE",
"223.7 270 LINE",
"223.7 328 OFFCURVE",
"251.7 359 OFFCURVE",
"298.7 359 CURVE SMOOTH",
"345.7 359 OFFCURVE",
"371.7 328 OFFCURVE",
"371.7 271 CURVE SMOOTH"
);
}
);
width = 590.825;
}
);
leftMetricsKey = m;
rightMetricsKey = m;
unicode = 006E;
},
{
glyphname = ncommaaccent;
lastChange = "2021-08-13 16:01:28 +0000";
layers = (
{
components = (
{
alignment = -1;
name = n;
}
);
hints = (
{
place = "{241, 117}";
type = Stem;
},
{
place = "{246, 112}";
type = Stem;
},
{
place = "{288, 70}";
type = Stem;
},
{
horizontal = 1;
place = "{-126, 96}";
type = Stem;
},
{
horizontal = 1;
place = "{-240, 21}";
target = up;
type = BottomGhost;
}
);
layerId = "0CF0EA28-C756-4A9E-9D7C-CFEF350B4CFE";
paths = (
{
closed = 1;
nodes = (
"241 -31 LINE",
"241 -126 LINE",
"301 -126 LINE",
"301 -121 LINE",
"288 -121 LINE",
"288 -140 LINE SMOOTH",
"288 -170 OFFCURVE",
"275 -186 OFFCURVE",
"246 -186 CURVE",
"246 -240 LINE",
"320 -240 OFFCURVE",
"358 -201 OFFCURVE",
"358 -124 CURVE SMOOTH",
"358 -98 OFFCURVE",
"354 -67 OFFCURVE",
"344 -31 CURVE"
);
}
);
width = 592.35;
},
{
components = (
{
alignment = -1;
name = n;
}
);
hints = (
{
place = "{285, 24}";
type = Stem;
},
{
horizontal = 1;
place = "{-52, -20}";
target = down;
type = TopGhost;
},
{
horizontal = 1;
place = "{-165, 21}";
target = up;
type = BottomGhost;
}
);
layerId = "6E968933-CD79-43C6-9231-80D77C940F4D";
paths = (
{
closed = 1;
nodes = (
"265 -53 LINE",
"265 -91 LINE",
"296 -91 LINE",
"296 -90 LINE",
"294 -90 LINE",
"294 -97 LINE SMOOTH",
"294 -127 OFFCURVE",
"284 -146 OFFCURVE",
"254 -146 CURVE",
"254 -165 LINE",
"289 -165 OFFCURVE",
"317 -150 OFFCURVE",
"317 -83 CURVE SMOOTH",
"317 -75 OFFCURVE",
"316 -62 OFFCURVE",
"315 -53 CURVE"
);
}
);
width = 588.36872;
},
{
components = (
{
alignment = -1;
name = n;
}
);
hints = (
{
place = "{102, 50}";
type = Stem;
},
{
place = "{245, 156}";
type = Stem;
},
{
place = "{271, 130}";
type = Stem;
},
{
horizontal = 1;
place = "{-141, 129}";
type = Stem;
},
{
horizontal = 1;
place = "{-268, 21}";
target = up;
type = BottomGhost;
}
);
layerId = "BAF31694-0472-4296-B0EA-1654553C45D2";
paths = (
{
closed = 1;
nodes = (
"243 -12 LINE",
"243 -141 LINE",
"324 -141 LINE",
"324 -130 LINE",
"298 -130 LINE",
"298 -143 LINE SMOOTH",
"298 -175 OFFCURVE",
"282 -190 OFFCURVE",
"253 -190 CURVE",
"253 -268 LINE",
"353 -268 OFFCURVE",
"401 -209 OFFCURVE",
"401 -125 CURVE SMOOTH",
"401 -94 OFFCURVE",
"395 -56 OFFCURVE",
"380 -12 CURVE"
);
}
);
width = 590.835;
}
);
leftMetricsKey = n;
rightMetricsKey = n;
unicode = 0146;
},
{
glyphname = o;
lastChange = "2021-08-13 16:01:28 +0000";
layers = (
{
anchors = (
{
name = top;
position = "{301.9, 504}";
}
);
hints = (
{
place = "{46, 116}";
type = Stem;
},
{
place = "{442, 117}";
type = Stem;
},
{
horizontal = 1;
place = "{-8, 98}";
type = Stem;
},
{
horizontal = 1;
place = "{410, 98}";
type = Stem;
}
);
layerId = "0CF0EA28-C756-4A9E-9D7C-CFEF350B4CFE";
paths = (
{
closed = 1;
nodes = (
"441.9 -8 OFFCURVE",
"558.9 94 OFFCURVE",
"558.9 251 CURVE SMOOTH",
"558.9 408 OFFCURVE",
"444.9 509 OFFCURVE",
"301.9 509 CURVE SMOOTH",
"158.9 509 OFFCURVE",
"45.9 408 OFFCURVE",
"45.9 251 CURVE SMOOTH",
"45.9 94 OFFCURVE",
"154.9 -8 OFFCURVE",
"297.9 -8 CURVE SMOOTH"
);
},
{
closed = 1;
nodes = (
"224.9 90 OFFCURVE",
"161.9 143 OFFCURVE",
"161.9 251 CURVE SMOOTH",
"161.9 359 OFFCURVE",
"226.9 410 OFFCURVE",
"299.9 410 CURVE SMOOTH",
"372.9 410 OFFCURVE",
"441.9 359 OFFCURVE",
"441.9 251 CURVE SMOOTH",
"441.9 143 OFFCURVE",
"369.9 90 OFFCURVE",
"297.9 90 CURVE SMOOTH"
);
}
);
width = 604.8;
},
{
anchors = (
{
name = top;
position = "{305.7, 501}";
}
);
hints = (
{
place = "{56, 22}";
type = Stem;
},
{
place = "{524, 22}";
type = Stem;
},
{
horizontal = 1;
place = "{497, -20}";
target = down;
type = TopGhost;
},
{
horizontal = 1;
place = "{-6, 21}";
target = up;
type = BottomGhost;
}
);
layerId = "6E968933-CD79-43C6-9231-80D77C940F4D";
paths = (
{
closed = 1;
nodes = (
"441.7 -7 OFFCURVE",
"546.7 89 OFFCURVE",
"546.7 251 CURVE SMOOTH",
"546.7 412 OFFCURVE",
"441.7 508 OFFCURVE",
"302.7 508 CURVE SMOOTH",
"162.7 508 OFFCURVE",
"56.7 412 OFFCURVE",
"56.7 251 CURVE SMOOTH",
"56.7 89 OFFCURVE",
"162.7 -7 OFFCURVE",
"302.7 -7 CURVE SMOOTH"
);
},
{
closed = 1;
nodes = (
"188.7 13 OFFCURVE",
"79.7 87 OFFCURVE",
"79.7 251 CURVE SMOOTH",
"79.7 415 OFFCURVE",
"188.7 488 OFFCURVE",
"302.7 488 CURVE SMOOTH",
"415.7 488 OFFCURVE",
"524.7 415 OFFCURVE",
"524.7 251 CURVE SMOOTH",
"524.7 87 OFFCURVE",
"415.7 13 OFFCURVE",
"302.7 13 CURVE SMOOTH"
);
}
);
width = 603.27574;
},
{
anchors = (
{
name = top;
position = "{302.62, 494}";
}
);
hints = (
{
place = "{29, 179}";
type = Stem;
},
{
place = "{375, 179}";
type = Stem;
},
{
horizontal = 1;
place = "{-7, 152}";
type = Stem;
},
{
horizontal = 1;
place = "{356, 152}";
type = Stem;
}
);
layerId = "BAF31694-0472-4296-B0EA-1654553C45D2";
paths = (
{
closed = 1;
nodes = (
"437.62 -7 OFFCURVE",
"553.62 92 OFFCURVE",
"553.62 251 CURVE SMOOTH",
"553.62 409 OFFCURVE",
"439.62 508 OFFCURVE",
"290.62 508 CURVE SMOOTH",
"142.62 508 OFFCURVE",
"28.62 409 OFFCURVE",
"28.62 251 CURVE SMOOTH",
"28.62 92 OFFCURVE",
"140.62 -7 OFFCURVE",
"288.62 -7 CURVE SMOOTH"
);
},
{
closed = 1;
nodes = (
"244.62 145 OFFCURVE",
"206.62 179 OFFCURVE",
"206.62 251 CURVE SMOOTH",
"206.62 322 OFFCURVE",
"245.62 356 OFFCURVE",
"290.62 356 CURVE SMOOTH",
"333.62 356 OFFCURVE",
"374.62 322 OFFCURVE",
"374.62 251 CURVE SMOOTH",
"374.62 179 OFFCURVE",
"332.62 145 OFFCURVE",
"288.62 145 CURVE SMOOTH"
);
}
);
width = 582.36898;
}
);
leftMetricsKey = "=l*0.6";
rightMetricsKey = "=l*0.6";
unicode = 006F;
},
{
glyphname = oslash;
lastChange = "2021-08-13 16:01:28 +0000";
layers = (
{
components = (
{
alignment = -1;
name = o;
}
);
layerId = "0CF0EA28-C756-4A9E-9D7C-CFEF350B4CFE";
paths = (
{
closed = 1;
nodes = (
"113 115 LINE",
"193 58 LINE",
"497 392 LINE",
"417 449 LINE"
);
}
);
width = 604.8;
},
{
components = (
{
alignment = -1;
name = o;
}
);
layerId = "6E968933-CD79-43C6-9231-80D77C940F4D";
paths = (
{
closed = 1;
nodes = (
"126 74 LINE",
"146 67 LINE",
"477 431 LINE",
"459 439 LINE"
);
}
);
width = 603.27574;
},
{
components = (
{
alignment = -1;
name = o;
transform = "{1, 0, 0, 1, -0.003, 0}";
}
);
layerId = "BAF31694-0472-4296-B0EA-1654553C45D2";
paths = (
{
closed = 1;
nodes = (
"129 126 LINE",
"192 86 LINE",
"482 404 LINE",
"419 444 LINE"
);
}
);
width = 582.37123;
}
);
leftMetricsKey = o;
rightMetricsKey = o;
unicode = 00F8;
},
{
glyphname = oe;
lastChange = "2021-08-13 16:04:01 +0000";
layers = (
{
hints = (
{
place = "{46, 117}";
type = Stem;
},
{
place = "{819, 119}";
type = Stem;
},
{
horizontal = 1;
place = "{-8, 96}";
type = Stem;
},
{
horizontal = 1;
place = "{211, 80}";
type = Stem;
},
{
horizontal = 1;
place = "{413, 96}";
type = Stem;
},
{
horizontal = 1;
place = "{-8, 164}";
type = Stem;
}
);
layerId = "0CF0EA28-C756-4A9E-9D7C-CFEF350B4CFE";
paths = (
{
closed = 1;
nodes = (
"441.9 143 OFFCURVE",
"370.9 88 OFFCURVE",
"298.9 88 CURVE SMOOTH",
"225.9 88 OFFCURVE",
"162.9 143 OFFCURVE",
"162.9 251 CURVE SMOOTH",
"162.9 359 OFFCURVE",
"227.9 413 OFFCURVE",
"299.9 413 CURVE SMOOTH",
"373.9 413 OFFCURVE",
"441.9 359 OFFCURVE",
"441.9 251 CURVE SMOOTH"
);
},
{
closed = 1;
nodes = (
"45.9 94 OFFCURVE",
"154.9 -8 OFFCURVE",
"298.9 -8 CURVE SMOOTH",
"378.9 -8 OFFCURVE",
"451.9 28 OFFCURVE",
"497.9 90 CURVE",
"539.9 29 OFFCURVE",
"608.9 -7 OFFCURVE",
"688.9 -8 CURVE",
"808.9 -6 OFFCURVE",
"893.9 66 OFFCURVE",
"922.9 156 CURVE",
"800.9 156 LINE",
"781.9 118 OFFCURVE",
"748.9 88 OFFCURVE",
"688.9 88 CURVE SMOOTH",
"612.9 88 OFFCURVE",
"559.9 142 OFFCURVE",
"559.9 229 CURVE SMOOTH",
"559.9 268 LINE SMOOTH",
"559.9 358 OFFCURVE",
"615.9 413 OFFCURVE",
"688.9 413 CURVE SMOOTH",
"758.9 413 OFFCURVE",
"814.9 366 OFFCURVE",
"818.9 291 CURVE",
"510.9 291 LINE",
"509.9 211 LINE",
"932.9 211 LINE",
"936.9 232 OFFCURVE",
"937.9 249 OFFCURVE",
"937.9 264 CURVE SMOOTH",
"937.9 410 OFFCURVE",
"835.9 509 OFFCURVE",
"692.9 509 CURVE SMOOTH",
"609.9 509 OFFCURVE",
"540.9 473 OFFCURVE",
"498.9 412 CURVE",
"453.9 473 OFFCURVE",
"382.9 509 OFFCURVE",
"302.9 509 CURVE SMOOTH",
"159.9 509 OFFCURVE",
"45.9 408 OFFCURVE",
"45.9 251 CURVE SMOOTH"
);
}
);
width = 983.8;
},
{
hints = (
{
place = "{60, 21}";
type = Stem;
},
{
place = "{524, 22}";
type = Stem;
},
{
horizontal = 1;
place = "{497, -20}";
target = down;
type = TopGhost;
},
{
horizontal = 1;
place = "{-6, 21}";
target = up;
type = BottomGhost;
}
);
layerId = "6E968933-CD79-43C6-9231-80D77C940F4D";
paths = (
{
closed = 1;
nodes = (
"524.7 87 OFFCURVE",
"415.7 13 OFFCURVE",
"302.7 13 CURVE SMOOTH",
"188.7 13 OFFCURVE",
"79.7 87 OFFCURVE",
"79.7 251 CURVE SMOOTH",
"79.7 415 OFFCURVE",
"188.7 488 OFFCURVE",
"302.7 488 CURVE SMOOTH",
"415.7 488 OFFCURVE",
"524.7 415 OFFCURVE",
"524.7 251 CURVE SMOOTH"
);
},
{
closed = 1;
nodes = (
"56.7 89 OFFCURVE",
"162.7 -7 OFFCURVE",
"302.7 -7 CURVE SMOOTH",
"416.7 -7 OFFCURVE",
"506.7 57 OFFCURVE",
"535.7 167 CURVE",
"564.7 57 OFFCURVE",
"652.7 -6 OFFCURVE",
"766.7 -7 CURVE SMOOTH",
"896.7 -6 OFFCURVE",
"979.7 67 OFFCURVE",
"997.7 171 CURVE",
"974.7 171 LINE",
"959.7 73 OFFCURVE",
"876.7 13 OFFCURVE",
"766.7 13 CURVE SMOOTH",
"653.7 13 OFFCURVE",
"546.7 86 OFFCURVE",
"546.7 248 CURVE SMOOTH",
"546.7 256 LINE SMOOTH",
"546.7 417 OFFCURVE",
"653.7 488 OFFCURVE",
"766.7 488 CURVE SMOOTH",
"901.7 488 OFFCURVE",
"983.7 397 OFFCURVE",
"976.7 261 CURVE",
"535.7 260 LINE",
"535.7 241 LINE",
"993.7 241 LINE",
"996.7 258 OFFCURVE",
"997.7 268 OFFCURVE",
"997.7 292 CURVE SMOOTH",
"997.7 398 OFFCURVE",
"919.7 508 OFFCURVE",
"766.7 508 CURVE SMOOTH",
"652.7 508 OFFCURVE",
"564.7 445 OFFCURVE",
"535.7 334 CURVE",
"506.7 445 OFFCURVE",
"416.7 508 OFFCURVE",
"302.7 508 CURVE SMOOTH",
"163.7 508 OFFCURVE",
"56.7 412 OFFCURVE",
"56.7 251 CURVE SMOOTH"
);
}
);
width = 1054.27596;
},
{
hints = (
{
place = "{16, 152}";
type = Stem;
},
{
place = "{344, 160}";
type = Stem;
},
{
horizontal = 1;
place = "{-7, 159}";
type = Stem;
},
{
horizontal = 1;
place = "{271, 144}";
type = Stem;
},
{
horizontal = 1;
place = "{366, 142}";
type = Stem;
},
{
horizontal = 1;
place = "{113, 131}";
type = Stem;
}
);
layerId = "BAF31694-0472-4296-B0EA-1654553C45D2";
paths = (
{
closed = 1;
nodes = (
"374.62 179 OFFCURVE",
"333.62 144 OFFCURVE",
"289.62 144 CURVE SMOOTH",
"244.62 144 OFFCURVE",
"207.62 179 OFFCURVE",
"207.62 251 CURVE SMOOTH",
"207.62 322 OFFCURVE",
"246.62 357 OFFCURVE",
"290.62 357 CURVE SMOOTH",
"334.62 357 OFFCURVE",
"374.62 322 OFFCURVE",
"374.62 251 CURVE SMOOTH"
);
},
{
closed = 1;
nodes = (
"28.62 92 OFFCURVE",
"140.62 -7 OFFCURVE",
"289.62 -7 CURVE SMOOTH",
"357.62 -7 OFFCURVE",
"419.62 17 OFFCURVE",
"463.62 60 CURVE",
"505.62 17 OFFCURVE",
"564.62 -6 OFFCURVE",
"632.62 -7 CURVE",
"757.62 -6 OFFCURVE",
"850.62 76 OFFCURVE",
"876.62 181 CURVE",
"692.62 181 LINE",
"681.62 157 OFFCURVE",
"661.62 136 OFFCURVE",
"627.62 136 CURVE SMOOTH",
"584.62 136 OFFCURVE",
"553.62 165 OFFCURVE",
"553.62 230 CURVE SMOOTH",
"553.62 272 LINE SMOOTH",
"553.62 332 OFFCURVE",
"586.62 366 OFFCURVE",
"632.62 366 CURVE SMOOTH",
"669.62 366 OFFCURVE",
"700.62 342 OFFCURVE",
"706.62 301 CURVE",
"492.62 301 LINE",
"491.62 206 LINE",
"880.62 206 LINE",
"884.62 227 OFFCURVE",
"886.62 245 OFFCURVE",
"886.62 259 CURVE SMOOTH",
"886.62 411 OFFCURVE",
"782.62 508 OFFCURVE",
"634.62 508 CURVE SMOOTH",
"564.62 508 OFFCURVE",
"506.62 484 OFFCURVE",
"463.62 442 CURVE",
"419.62 484 OFFCURVE",
"359.62 508 OFFCURVE",
"291.62 508 CURVE SMOOTH",
"142.62 508 OFFCURVE",
"28.62 409 OFFCURVE",
"28.62 251 CURVE SMOOTH"
);
}
);
width = 915.37226;
}
);
leftMetricsKey = o;
rightMetricsKey = e;
unicode = 0153;
},
{
glyphname = p;
lastChange = "2021-08-13 16:01:28 +0000";
layers = (
{
guideLines = (
{
position = "{-0.75, 79.88}";
}
);
hints = (
{
place = "{77, 114}";
type = Stem;
},
{
place = "{467, 116}";
type = Stem;
},
{
horizontal = 1;
place = "{-8, 98}";
type = Stem;
},
{
horizontal = 1;
place = "{410, 98}";
type = Stem;
},
{
horizontal = 1;
place = "{-200, 21}";
target = up;
type = BottomGhost;
}
);
layerId = "0CF0EA28-C756-4A9E-9D7C-CFEF350B4CFE";
paths = (
{
closed = 1;
nodes = (
"190.5 61 LINE",
"225.5 23 OFFCURVE",
"284.5 -8 OFFCURVE",
"354.5 -8 CURVE SMOOTH",
"488.5 -8 OFFCURVE",
"582.5 93 OFFCURVE",
"582.5 248 CURVE SMOOTH",
"582.5 402 OFFCURVE",
"487.5 508 OFFCURVE",
"354.5 508 CURVE SMOOTH",
"279.5 508 OFFCURVE",
"223.5 477 OFFCURVE",
"188.5 438 CURVE",
"180.5 500 LINE",
"76.5 500 LINE",
"76.5 -200 LINE",
"190.5 -200 LINE"
);
},
{
closed = 1;
nodes = (
"466.5 145 OFFCURVE",
"405.5 90 OFFCURVE",
"332.5 90 CURVE SMOOTH",
"259.5 90 OFFCURVE",
"190.5 148 OFFCURVE",
"190.5 250 CURVE SMOOTH",
"190.5 352 OFFCURVE",
"259.5 410 OFFCURVE",
"332.5 410 CURVE SMOOTH",
"405.5 410 OFFCURVE",
"466.5 351 OFFCURVE",
"466.5 248 CURVE SMOOTH"
);
}
);
width = 620.74;
},
{
hints = (
{
place = "{93, 22}";
type = Stem;
},
{
place = "{549, 22}";
type = Stem;
},
{
horizontal = 1;
place = "{497, -20}";
target = down;
type = TopGhost;
},
{
horizontal = 1;
place = "{-200, 21}";
target = up;
type = BottomGhost;
}
);
layerId = "6E968933-CD79-43C6-9231-80D77C940F4D";
paths = (
{
closed = 1;
nodes = (
"116.5 144 LINE",
"147.5 60 OFFCURVE",
"216.5 -6 OFFCURVE",
"331.5 -6 CURVE SMOOTH",
"475.5 -6 OFFCURVE",
"572.5 91 OFFCURVE",
"572.5 251 CURVE SMOOTH",
"572.5 411 OFFCURVE",
"475.5 508 OFFCURVE",
"331.5 508 CURVE SMOOTH",
"214.5 508 OFFCURVE",
"144.5 444 OFFCURVE",
"116.5 358 CURVE",
"116.5 500 LINE",
"94.5 500 LINE",
"94.5 -200 LINE",
"116.5 -200 LINE"
);
},
{
closed = 1;
nodes = (
"550.5 103 OFFCURVE",
"466.5 14 OFFCURVE",
"331.5 14 CURVE SMOOTH",
"202.5 14 OFFCURVE",
"116.5 108 OFFCURVE",
"116.5 251 CURVE SMOOTH",
"116.5 394 OFFCURVE",
"202.5 488 OFFCURVE",
"331.5 488 CURVE SMOOTH",
"466.5 488 OFFCURVE",
"550.5 399 OFFCURVE",
"550.5 251 CURVE SMOOTH"
);
}
);
width = 619.65255;
},
{
hints = (
{
place = "{49, 176}";
type = Stem;
},
{
place = "{399, 179}";
type = Stem;
},
{
horizontal = 1;
place = "{-7, 153}";
type = Stem;
},
{
horizontal = 1;
place = "{355, 153}";
type = Stem;
},
{
horizontal = 1;
place = "{-200, 21}";
target = up;
type = BottomGhost;
}
);
layerId = "BAF31694-0472-4296-B0EA-1654553C45D2";
paths = (
{
closed = 1;
nodes = (
"223.7 46 LINE",
"254.7 17 OFFCURVE",
"300.7 -7 OFFCURVE",
"357.7 -7 CURVE SMOOTH",
"482.7 -7 OFFCURVE",
"576.7 91 OFFCURVE",
"576.7 249 CURVE SMOOTH",
"576.7 408 OFFCURVE",
"481.7 508 OFFCURVE",
"357.7 508 CURVE SMOOTH",
"296.7 508 OFFCURVE",
"249.7 483 OFFCURVE",
"217.7 450 CURVE",
"207.7 500 LINE",
"47.7 500 LINE",
"47.7 -200 LINE",
"223.7 -200 LINE"
);
},
{
closed = 1;
nodes = (
"398.7 182 OFFCURVE",
"359.7 146 OFFCURVE",
"312.7 146 CURVE SMOOTH",
"265.7 146 OFFCURVE",
"223.7 183 OFFCURVE",
"223.7 250 CURVE SMOOTH",
"223.7 318 OFFCURVE",
"265.7 355 OFFCURVE",
"312.7 355 CURVE SMOOTH",
"359.7 355 OFFCURVE",
"398.7 317 OFFCURVE",
"398.7 249 CURVE SMOOTH"
);
}
);
width = 600.66217;
}
);
leftMetricsKey = l;
rightMetricsKey = "=l*0.5";
unicode = 0070;
},
{
glyphname = thorn;
lastChange = "2021-08-13 16:01:28 +0000";
layers = (
{
hints = (
{
place = "{77, 108}";
type = Stem;
},
{
place = "{476, 116}";
type = Stem;
},
{
place = "{77, 114}";
type = Stem;
},
{
horizontal = 1;
place = "{-8, 98}";
type = Stem;
},
{
horizontal = 1;
place = "{410, 98}";
type = Stem;
},
{
horizontal = 1;
place = "{721, -20}";
target = down;
type = TopGhost;
},
{
horizontal = 1;
place = "{-200, 21}";
target = up;
type = BottomGhost;
}
);
layerId = "0CF0EA28-C756-4A9E-9D7C-CFEF350B4CFE";
paths = (
{
closed = 1;
nodes = (
"190.5 76 LINE",
"224.5 28 OFFCURVE",
"281.5 -8 OFFCURVE",
"354.5 -8 CURVE SMOOTH",
"487.5 -8 OFFCURVE",
"591.5 98 OFFCURVE",
"591.5 253 CURVE SMOOTH",
"591.5 407 OFFCURVE",
"487.5 509 OFFCURVE",
"354.5 509 CURVE SMOOTH",
"280.5 509 OFFCURVE",
"224.5 476 OFFCURVE",
"190.5 430 CURVE",
"177.5 409 LINE",
"190.5 721 LINE",
"76.5 721 LINE",
"76.5 -200 LINE",
"190.5 -200 LINE"
);
},
{
closed = 1;
nodes = (
"475.5 150 OFFCURVE",
"405.5 90 OFFCURVE",
"332.5 90 CURVE SMOOTH",
"259.5 90 OFFCURVE",
"190.5 148 OFFCURVE",
"190.5 251 CURVE SMOOTH",
"190.5 353 OFFCURVE",
"259.5 410 OFFCURVE",
"332.5 410 CURVE SMOOTH",
"405.5 410 OFFCURVE",
"475.5 355 OFFCURVE",
"475.5 253 CURVE SMOOTH"
);
}
);
width = 637.4;
},
{
hints = (
{
place = "{560, 22}";
type = Stem;
},
{
horizontal = 1;
place = "{688, -20}";
target = down;
type = TopGhost;
},
{
horizontal = 1;
place = "{-234, 21}";
target = up;
type = BottomGhost;
}
);
layerId = "6E968933-CD79-43C6-9231-80D77C940F4D";
paths = (
{
closed = 1;
nodes = (
"115.5 155 LINE",
"144.5 63 OFFCURVE",
"225.5 -7 OFFCURVE",
"339.5 -7 CURVE SMOOTH",
"483.5 -7 OFFCURVE",
"583.5 91 OFFCURVE",
"583.5 251 CURVE SMOOTH",
"583.5 410 OFFCURVE",
"483.5 508 OFFCURVE",
"339.5 508 CURVE SMOOTH",
"221.5 508 OFFCURVE",
"140.5 438 OFFCURVE",
"114.5 342 CURVE",
"115.5 347 LINE",
"115.5 687 LINE",
"94.5 687 LINE",
"94.5 -234 LINE",
"115.5 -234 LINE"
);
},
{
closed = 1;
nodes = (
"561.5 103 OFFCURVE",
"474.5 13 OFFCURVE",
"339.5 13 CURVE SMOOTH",
"210.5 13 OFFCURVE",
"115.5 108 OFFCURVE",
"115.5 251 CURVE SMOOTH",
"115.5 394 OFFCURVE",
"210.5 488 OFFCURVE",
"339.5 488 CURVE SMOOTH",
"474.5 488 OFFCURVE",
"561.5 398 OFFCURVE",
"561.5 251 CURVE SMOOTH"
);
}
);
width = 640.07872;
},
{
hints = (
{
place = "{33, 46}";
type = Stem;
},
{
place = "{403, 179}";
type = Stem;
},
{
place = "{49, 176}";
type = Stem;
},
{
horizontal = 1;
place = "{-6, 152}";
type = Stem;
},
{
horizontal = 1;
place = "{355, 152}";
type = Stem;
},
{
horizontal = 1;
place = "{720, -20}";
target = down;
type = TopGhost;
},
{
horizontal = 1;
place = "{-200, 21}";
target = up;
type = BottomGhost;
}
);
layerId = "BAF31694-0472-4296-B0EA-1654553C45D2";
paths = (
{
closed = 1;
nodes = (
"223.7 48 LINE",
"254.7 15 OFFCURVE",
"296.7 -6 OFFCURVE",
"349.7 -6 CURVE SMOOTH",
"475.7 -6 OFFCURVE",
"580.7 97 OFFCURVE",
"580.7 249 CURVE SMOOTH",
"580.7 402 OFFCURVE",
"475.7 506 OFFCURVE",
"349.7 506 CURVE SMOOTH",
"287.7 506 OFFCURVE",
"240.7 485 OFFCURVE",
"206.7 444 CURVE",
"218.7 454 LINE",
"223.7 720 LINE",
"47.7 720 LINE",
"47.7 -200 LINE",
"223.7 -200 LINE"
);
},
{
closed = 1;
nodes = (
"401.7 178 OFFCURVE",
"355.7 146 OFFCURVE",
"312.7 146 CURVE SMOOTH",
"270.7 146 OFFCURVE",
"223.7 179 OFFCURVE",
"223.7 251 CURVE SMOOTH",
"223.7 322 OFFCURVE",
"270.7 355 OFFCURVE",
"312.7 355 CURVE SMOOTH",
"355.7 355 OFFCURVE",
"401.7 321 OFFCURVE",
"401.7 249 CURVE SMOOTH"
);
}
);
width = 609.45189;
}
);
leftMetricsKey = l;
rightMetricsKey = o;
unicode = 00FE;
},
{
glyphname = q;
lastChange = "2021-08-13 16:01:28 +0000";
layers = (
{
guideLines = (
{
position = "{-0.46, 79.88}";
}
);
hints = (
{
place = "{39, 116}";
type = Stem;
},
{
place = "{431, 114}";
type = Stem;
},
{
horizontal = 1;
place = "{-9, 98}";
type = Stem;
},
{
horizontal = 1;
place = "{409, 98}";
type = Stem;
},
{
horizontal = 1;
place = "{-200, 21}";
target = up;
type = BottomGhost;
}
);
layerId = "0CF0EA28-C756-4A9E-9D7C-CFEF350B4CFE";
paths = (
{
closed = 1;
nodes = (
"433.25 437 LINE",
"398.25 476 OFFCURVE",
"341.25 508 OFFCURVE",
"266.25 508 CURVE SMOOTH",
"133.25 508 OFFCURVE",
"38.25 401 OFFCURVE",
"38.25 247 CURVE SMOOTH",
"38.25 93 OFFCURVE",
"133.25 -9 OFFCURVE",
"266.25 -9 CURVE SMOOTH",
"337.25 -9 OFFCURVE",
"394.25 21 OFFCURVE",
"430.25 60 CURVE",
"431.25 -200 LINE",
"545.25 -200 LINE",
"545.25 499 LINE",
"441.25 499 LINE"
);
},
{
closed = 1;
nodes = (
"154.25 350 OFFCURVE",
"215.25 409 OFFCURVE",
"288.25 409 CURVE SMOOTH",
"361.25 409 OFFCURVE",
"431.25 351 OFFCURVE",
"431.25 249 CURVE SMOOTH",
"431.25 147 OFFCURVE",
"361.25 89 OFFCURVE",
"288.25 89 CURVE SMOOTH",
"215.25 89 OFFCURVE",
"154.25 144 OFFCURVE",
"154.25 247 CURVE SMOOTH"
);
}
);
width = 621.75;
},
{
hints = (
{
place = "{47, 22}";
type = Stem;
},
{
place = "{503, 22}";
type = Stem;
},
{
horizontal = 1;
place = "{497, -20}";
target = down;
type = TopGhost;
},
{
horizontal = 1;
place = "{-200, 21}";
target = up;
type = BottomGhost;
}
);
layerId = "6E968933-CD79-43C6-9231-80D77C940F4D";
paths = (
{
closed = 1;
nodes = (
"503.25 358 LINE",
"474.25 442 OFFCURVE",
"403.25 508 OFFCURVE",
"288.25 508 CURVE SMOOTH",
"145.25 508 OFFCURVE",
"47.25 411 OFFCURVE",
"47.25 251 CURVE SMOOTH",
"47.25 91 OFFCURVE",
"145.25 -6 OFFCURVE",
"288.25 -6 CURVE SMOOTH",
"405.25 -6 OFFCURVE",
"473.25 59 OFFCURVE",
"503.25 145 CURVE",
"503.25 -200 LINE",
"525.25 -200 LINE",
"525.25 500 LINE",
"503.25 500 LINE"
);
},
{
closed = 1;
nodes = (
"69.25 399 OFFCURVE",
"153.25 488 OFFCURVE",
"289.25 488 CURVE SMOOTH",
"418.25 488 OFFCURVE",
"503.25 394 OFFCURVE",
"503.25 251 CURVE SMOOTH",
"503.25 108 OFFCURVE",
"418.25 14 OFFCURVE",
"289.25 14 CURVE SMOOTH",
"153.25 14 OFFCURVE",
"69.25 103 OFFCURVE",
"69.25 251 CURVE SMOOTH"
);
}
);
width = 619.55277;
},
{
hints = (
{
place = "{25, 179}";
type = Stem;
},
{
place = "{377, 176}";
type = Stem;
},
{
horizontal = 1;
place = "{-7, 153}";
type = Stem;
},
{
horizontal = 1;
place = "{354, 152}";
type = Stem;
},
{
horizontal = 1;
place = "{-200, 21}";
target = up;
type = BottomGhost;
}
);
layerId = "BAF31694-0472-4296-B0EA-1654553C45D2";
paths = (
{
closed = 1;
nodes = (
"382.85 448 LINE",
"350.85 482 OFFCURVE",
"304.85 507 OFFCURVE",
"242.85 507 CURVE SMOOTH",
"118.85 507 OFFCURVE",
"23.85 407 OFFCURVE",
"23.85 249 CURVE SMOOTH",
"23.85 91 OFFCURVE",
"117.85 -7 OFFCURVE",
"242.85 -7 CURVE SMOOTH",
"298.85 -7 OFFCURVE",
"344.85 15 OFFCURVE",
"376.85 45 CURVE",
"376.85 -200 LINE",
"552.85 -200 LINE",
"552.85 500 LINE",
"392.85 500 LINE"
);
},
{
closed = 1;
nodes = (
"201.85 317 OFFCURVE",
"240.85 355 OFFCURVE",
"287.85 355 CURVE SMOOTH",
"334.85 355 OFFCURVE",
"376.85 317 OFFCURVE",
"376.85 250 CURVE SMOOTH",
"376.85 183 OFFCURVE",
"334.85 145 OFFCURVE",
"287.85 145 CURVE SMOOTH",
"240.85 145 OFFCURVE",
"201.85 181 OFFCURVE",
"201.85 249 CURVE SMOOTH"
);
}
);
width = 600.77217;
}
);
leftMetricsKey = "=l*0.5";
rightMetricsKey = l;
unicode = 0071;
},
{
glyphname = r;
lastChange = "2021-08-13 16:01:28 +0000";
layers = (
{
anchors = (
{
name = bottom;
position = "{133.5, 5}";
},
{
name = top;
position = "{230.5, 496}";
}
);
hints = (
{
place = "{77, 114}";
type = Stem;
},
{
horizontal = 1;
place = "{388, 115}";
type = Stem;
},
{
horizontal = 1;
place = "{0, 21}";
target = up;
type = BottomGhost;
}
);
layerId = "0CF0EA28-C756-4A9E-9D7C-CFEF350B4CFE";
paths = (
{
closed = 1;
nodes = (
"190.5 239 LINE",
"190.5 339 OFFCURVE",
"251.5 388 OFFCURVE",
"314.5 388 CURVE",
"327.5 388 OFFCURVE",
"339.5 387 OFFCURVE",
"354.5 383 CURVE",
"354.5 498 LINE",
"338.5 502 OFFCURVE",
"324.5 503 OFFCURVE",
"312.5 503 CURVE SMOOTH",
"207.5 503 OFFCURVE",
"134.5 395 OFFCURVE",
"133.5 296 CURVE"
);
},
{
closed = 1;
nodes = (
"76.5 0 LINE",
"190.5 0 LINE",
"190.5 424 LINE",
"180.5 500 LINE",
"76.5 500 LINE"
);
}
);
width = 379.99667;
},
{
anchors = (
{
name = bottom;
position = "{109.5, 1}";
},
{
name = top;
position = "{202.5, 501}";
}
);
hints = (
{
place = "{101, 22}";
type = Stem;
},
{
horizontal = 1;
place = "{494, -20}";
target = down;
type = TopGhost;
},
{
horizontal = 1;
place = "{0, 21}";
target = up;
type = BottomGhost;
}
);
layerId = "6E968933-CD79-43C6-9231-80D77C940F4D";
paths = (
{
closed = 1;
nodes = (
"116.5 287 LINE",
"116.5 420 OFFCURVE",
"200.5 486 OFFCURVE",
"279.5 486 CURVE SMOOTH",
"293.5 486 OFFCURVE",
"308.5 483 OFFCURVE",
"322.5 481 CURVE",
"322.5 500 LINE",
"306.5 503 OFFCURVE",
"290.5 504 OFFCURVE",
"276.5 504 CURVE SMOOTH",
"173.5 504 OFFCURVE",
"107.5 414 OFFCURVE",
"107.5 335 CURVE"
);
},
{
closed = 1;
nodes = (
"94.5 0 LINE",
"116.5 0 LINE",
"116.5 379 LINE",
"116.5 500 LINE",
"94.5 500 LINE"
);
}
);
width = 353.93588;
},
{
anchors = (
{
name = bottom;
position = "{132.7, 11}";
},
{
name = top;
position = "{231.7, 490}";
}
);
hints = (
{
place = "{33, 48}";
type = Stem;
},
{
horizontal = 1;
place = "{181, 177}";
type = Stem;
},
{
horizontal = 1;
place = "{0, 21}";
target = up;
type = BottomGhost;
}
);
layerId = "BAF31694-0472-4296-B0EA-1654553C45D2";
paths = (
{
closed = 1;
nodes = (
"223.7 179 LINE",
"223.7 264 OFFCURVE",
"275.7 329 OFFCURVE",
"343.7 329 CURVE",
"354.7 329 OFFCURVE",
"379.7 329 OFFCURVE",
"396.7 324 CURVE",
"396.7 500 LINE",
"377.7 503 OFFCURVE",
"357.7 503 OFFCURVE",
"348.7 503 CURVE SMOOTH",
"227.7 502 OFFCURVE",
"152.7 359 OFFCURVE",
"152.7 261 CURVE"
);
},
{
closed = 1;
nodes = (
"47.7 0 LINE",
"223.7 0 LINE",
"223.7 410 LINE",
"208.7 500 LINE",
"47.7 500 LINE"
);
}
);
width = 412.6705;
}
);
leftMetricsKey = l;
rightMetricsKey = "=l/3";
unicode = 0072;
},
{
glyphname = rcommaaccent;
lastChange = "2021-08-13 16:01:28 +0000";
layers = (
{
components = (
{
alignment = -1;
name = r;
transform = "{1, 0, 0, 1, 6.5, 0}";
}
);
hints = (
{
place = "{77, 117}";
type = Stem;
},
{
place = "{81, 112}";
type = Stem;
},
{
place = "{124, 70}";
type = Stem;
},
{
horizontal = 1;
place = "{-126, 96}";
type = Stem;
},
{
horizontal = 1;
place = "{-240, 21}";
target = up;
type = BottomGhost;
}
);
layerId = "0CF0EA28-C756-4A9E-9D7C-CFEF350B4CFE";
paths = (
{
closed = 1;
nodes = (
"76.5 -31 LINE",
"76.5 -126 LINE",
"123.5 -126 LINE",
"123.5 -140 LINE SMOOTH",
"123.5 -170 OFFCURVE",
"109.5 -186 OFFCURVE",
"80.5 -186 CURVE",
"80.5 -240 LINE",
"154.5 -240 OFFCURVE",
"192.5 -201 OFFCURVE",
"192.5 -124 CURVE SMOOTH",
"192.5 -98 OFFCURVE",
"188.5 -67 OFFCURVE",
"178.5 -31 CURVE"
);
}
);
width = 386.5;
},
{
components = (
{
alignment = -1;
name = r;
transform = "{1, 0, 0, 1, 43.5, 0}";
}
);
hints = (
{
place = "{129, 24}";
type = Stem;
},
{
horizontal = 1;
place = "{-52, -20}";
target = down;
type = TopGhost;
},
{
horizontal = 1;
place = "{-165, 21}";
target = up;
type = BottomGhost;
}
);
layerId = "6E968933-CD79-43C6-9231-80D77C940F4D";
paths = (
{
closed = 1;
nodes = (
"105.5 -53 LINE",
"105.5 -91 LINE",
"134.5 -91 LINE",
"134.5 -97 LINE SMOOTH",
"134.5 -127 OFFCURVE",
"124.5 -146 OFFCURVE",
"94.5 -146 CURVE",
"94.5 -165 LINE",
"129.5 -165 OFFCURVE",
"157.5 -150 OFFCURVE",
"157.5 -83 CURVE SMOOTH",
"157.5 -75 OFFCURVE",
"156.5 -62 OFFCURVE",
"155.5 -53 CURVE"
);
}
);
width = 397.44043;
},
{
components = (
{
alignment = -1;
name = r;
}
);
hints = (
{
place = "{33, 50}";
type = Stem;
},
{
place = "{73, 156}";
type = Stem;
},
{
place = "{99, 130}";
type = Stem;
},
{
horizontal = 1;
place = "{20, 114}";
type = Stem;
},
{
horizontal = 1;
place = "{-268, 21}";
target = up;
type = BottomGhost;
}
);
layerId = "BAF31694-0472-4296-B0EA-1654553C45D2";
paths = (
{
closed = 1;
nodes = (
"68 -12 LINE",
"68 -141 LINE",
"122 -132 LINE",
"122 -143 LINE SMOOTH",
"122 -175 OFFCURVE",
"107 -190 OFFCURVE",
"78 -190 CURVE",
"78 -268 LINE",
"178 -268 OFFCURVE",
"226 -209 OFFCURVE",
"226 -125 CURVE SMOOTH",
"226 -94 OFFCURVE",
"220 -56 OFFCURVE",
"205 -12 CURVE"
);
}
);
width = 412.66755;
}
);
leftMetricsKey = r;
rightMetricsKey = r;
unicode = 0157;
},
